<?xml version="1.0" encoding="UTF-8" standalone="no"?>
<!DOCTYPE svg PUBLIC "-//W3C//DTD SVG 1.0//EN" "http://www.w3.org/TR/2001/PR-SVG-20010719/DTD/svg10.dtd">
<svg width="29cm" height="34cm" viewBox="199 68 564 675" xmlns="http://www.w3.org/2000/svg" xmlns:xlink="http://www.w3.org/1999/xlink">
  <g>
    <polyline style="fill: none; fill-opacity:0; stroke-width: 2; stroke: #7f7f7f" points="290,460 290,500 560,500 560,530 590.264,530 "/>
    <polygon style="fill: #7f7f7f" points="597.764,530 587.764,535 590.264,530 587.764,525 "/>
    <polygon style="fill: none; fill-opacity:0; stroke-width: 2; stroke: #7f7f7f" points="597.764,530 587.764,535 590.264,530 587.764,525 "/>
  </g>
  <g>
    <rect style="fill: #ffffff" x="200" y="120" width="120" height="40"/>
    <rect style="fill: none; fill-opacity:0; stroke-width: 2; stroke: #000000" x="200" y="120" width="120" height="40"/>
    <text font-size="12.8" style="fill: #000000;text-anchor:middle;font-family:sans-serif;font-style:normal;font-weight:normal" x="260" y="143.881">
      <tspan x="260" y="143.881">GitLab</tspan>
    </text>
  </g>
  <g>
    <rect style="fill: #ffffff" x="200" y="200" width="120" height="40"/>
    <rect style="fill: none; fill-opacity:0; stroke-width: 2; stroke: #000000" x="200" y="200" width="120" height="40"/>
    <text font-size="12.8" style="fill: #000000;text-anchor:middle;font-family:sans-serif;font-style:normal;font-weight:normal" x="260" y="223.881">
      <tspan x="260" y="223.881">Source</tspan>
    </text>
  </g>
  <g>
    <line style="fill: none; fill-opacity:0; stroke-width: 2; stroke: #000000" x1="260" y1="160" x2="260" y2="190.264"/>
    <polygon style="fill: #000000" points="260,197.764 255,187.764 260,190.264 265,187.764 "/>
    <polygon style="fill: none; fill-opacity:0; stroke-width: 2; stroke: #000000" points="260,197.764 255,187.764 260,190.264 265,187.764 "/>
  </g>
  <text font-size="12.8" style="fill: #000000;text-anchor:start;font-family:sans-serif;font-style:normal;font-weight:normal" x="280" y="180">
    <tspan x="280" y="180">git clone</tspan>
  </text>
  <g>
    <rect style="fill: #ffffff" x="200" y="280" width="120" height="60"/>
    <rect style="fill: none; fill-opacity:0; stroke-width: 2; stroke: #000000" x="200" y="280" width="120" height="60"/>
    <text font-size="12.8" style="fill: #000000;text-anchor:middle;font-family:sans-serif;font-style:normal;font-weight:normal" x="260" y="305.881">
      <tspan x="260" y="305.881">Source Tarbar</tspan>
      <tspan x="260" y="321.881">(.tar.gz)</tspan>
    </text>
  </g>
  <g>
    <line style="fill: none; fill-opacity:0; stroke-width: 2; stroke: #000000" x1="260" y1="240" x2="260" y2="270.264"/>
    <polygon style="fill: #000000" points="260,277.764 255,267.764 260,270.264 265,267.764 "/>
    <polygon style="fill: none; fill-opacity:0; stroke-width: 2; stroke: #000000" points="260,277.764 255,267.764 260,270.264 265,267.764 "/>
  </g>
  <text font-size="12.8" style="fill: #000000;text-anchor:start;font-family:sans-serif;font-style:normal;font-weight:normal" x="280" y="260">
    <tspan x="280" y="260">make dist</tspan>
  </text>
  <g>
    <rect style="fill: #ffffff" x="200" y="400" width="120" height="60"/>
    <rect style="fill: none; fill-opacity:0; stroke-width: 2; stroke: #000000" x="200" y="400" width="120" height="60"/>
    <text font-size="12.8" style="fill: #000000;text-anchor:middle;font-family:sans-serif;font-style:normal;font-weight:normal" x="260" y="425.881">
      <tspan x="260" y="425.881">RPM Package</tspan>
      <tspan x="260" y="441.881">(.rpm)</tspan>
    </text>
  </g>
  <g>
    <line style="fill: none; fill-opacity:0; stroke-width: 2; stroke: #000000" x1="260" y1="340.992" x2="260" y2="390.264"/>
    <polygon style="fill: #000000" points="260,397.764 255,387.764 260,390.264 265,387.764 "/>
    <polygon style="fill: none; fill-opacity:0; stroke-width: 2; stroke: #000000" points="260,397.764 255,387.764 260,390.264 265,387.764 "/>
  </g>
  <text font-size="12.8" style="fill: #000000;text-anchor:start;font-family:sans-serif;font-style:normal;font-weight:normal" x="278.966" y="387.242">
    <tspan x="278.966" y="387.242">make rpm</tspan>
  </text>
  <g>
    <rect style="fill: #ffffff" x="400" y="520" width="121.75" height="60"/>
    <rect style="fill: none; fill-opacity:0; stroke-width: 2; stroke: #000000" x="400" y="520" width="121.75" height="60"/>
    <text font-size="12.8" style="fill: #000000;text-anchor:middle;font-family:sans-serif;font-style:normal;font-weight:normal" x="460.875" y="545.881">
      <tspan x="460.875" y="545.881">Docker image:</tspan>
      <tspan x="460.875" y="561.881">villas-deps</tspan>
    </text>
  </g>
  <text font-size="12.8" style="fill: #000000;text-anchor:start;font-family:sans-serif;font-style:normal;font-weight:normal" x="280" y="520">
    <tspan x="280" y="520">make docker</tspan>
  </text>
  <g>
    <rect style="fill: #ffffff" x="399.826" y="120" width="120.35" height="40"/>
    <rect style="fill: none; fill-opacity:0; stroke-width: 2; stroke: #000000" x="399.826" y="120" width="120.35" height="40"/>
    <text font-size="12.8" style="fill: #000000;text-anchor:middle;font-family:sans-serif;font-style:normal;font-weight:normal" x="460.001" y="143.881">
      <tspan x="460.001" y="143.881">GitLab / GitHub</tspan>
    </text>
  </g>
  <g>
    <rect style="fill: #ffffff" x="400" y="200" width="120" height="40"/>
    <rect style="fill: none; fill-opacity:0; stroke-width: 2; stroke: #000000" x="400" y="200" width="120" height="40"/>
    <text font-size="12.8" style="fill: #000000;text-anchor:middle;font-family:sans-serif;font-style:normal;font-weight:normal" x="460" y="223.881">
      <tspan x="460" y="223.881">Source</tspan>
    </text>
  </g>
  <g>
    <line style="fill: none; fill-opacity:0; stroke-width: 2; stroke: #000000" x1="460" y1="160" x2="460" y2="190.264"/>
    <polygon style="fill: #000000" points="460,197.764 455,187.764 460,190.264 465,187.764 "/>
    <polygon style="fill: none; fill-opacity:0; stroke-width: 2; stroke: #000000" points="460,197.764 455,187.764 460,190.264 465,187.764 "/>
  </g>
  <g>
    <rect style="fill: #ffffff" x="400" y="280" width="120" height="60"/>
    <rect style="fill: none; fill-opacity:0; stroke-width: 2; stroke: #000000" x="400" y="280" width="120" height="60"/>
    <text font-size="12.8" style="fill: #000000;text-anchor:middle;font-family:sans-serif;font-style:normal;font-weight:normal" x="460" y="305.881">
      <tspan x="460" y="305.881">Source Tarbar</tspan>
      <tspan x="460" y="321.881">(.tar.gz)</tspan>
    </text>
  </g>
  <g>
    <line style="fill: none; fill-opacity:0; stroke-width: 2; stroke: #000000" x1="460" y1="240" x2="460" y2="270.264"/>
    <polygon style="fill: #000000" points="460,277.764 455,267.764 460,270.264 465,267.764 "/>
    <polygon style="fill: none; fill-opacity:0; stroke-width: 2; stroke: #000000" points="460,277.764 455,267.764 460,270.264 465,267.764 "/>
  </g>
  <g>
    <rect style="fill: #ffffff" x="400" y="400" width="120" height="60"/>
    <rect style="fill: none; fill-opacity:0; stroke-width: 2; stroke: #000000" x="400" y="400" width="120" height="60"/>
    <text font-size="12.8" style="fill: #000000;text-anchor:middle;font-family:sans-serif;font-style:normal;font-weight:normal" x="460" y="425.881">
      <tspan x="460" y="425.881">RPM Package</tspan>
      <tspan x="460" y="441.881">(.rpm)</tspan>
    </text>
  </g>
  <g>
    <line style="fill: none; fill-opacity:0; stroke-width: 2; stroke: #000000" x1="460" y1="340.992" x2="460" y2="390.264"/>
    <polygon style="fill: #000000" points="460,397.764 455,387.764 460,390.264 465,387.764 "/>
    <polygon style="fill: none; fill-opacity:0; stroke-width: 2; stroke: #000000" points="460,397.764 455,387.764 460,390.264 465,387.764 "/>
  </g>
  <text font-size="12.8" style="fill: #000000;text-anchor:middle;font-family:sans-serif;font-style:normal;font-weight:700" x="260" y="80">
    <tspan x="260" y="80">VILLASnode</tspan>
  </text>
  <text font-size="12.8" style="fill: #000000;text-anchor:middle;font-family:sans-serif;font-style:normal;font-weight:700" x="460" y="80">
    <tspan x="460" y="80">Dependencies</tspan>
  </text>
  <g>
    <rect style="fill: #ffffff" x="200" y="640" width="120" height="60"/>
    <rect style="fill: none; fill-opacity:0; stroke-width: 2; stroke: #000000" x="200" y="640" width="120" height="60"/>
    <text font-size="12.8" style="fill: #000000;text-anchor:middle;font-family:sans-serif;font-style:normal;font-weight:normal" x="260" y="665.881">
      <tspan x="260" y="665.881">Docker image:</tspan>
      <tspan x="260" y="681.881">villas</tspan>
    </text>
  </g>
  <g>
    <polyline style="fill: none; fill-opacity:0; stroke-width: 2; stroke: #000000" points="400,550 400,540 290,540 290,630.264 "/>
    <polygon style="fill: #000000" points="290,637.764 285,627.764 290,630.264 295,627.764 "/>
    <polygon style="fill: none; fill-opacity:0; stroke-width: 2; stroke: #000000" points="290,637.764 285,627.764 290,630.264 295,627.764 "/>
  </g>
  <g>
    <line style="fill: none; fill-opacity:0; stroke-width: 2; stroke: #000000" x1="260" y1="460" x2="260" y2="630.264"/>
    <polygon style="fill: #000000" points="260,637.764 255,627.764 260,630.264 265,627.764 "/>
    <polygon style="fill: none; fill-opacity:0; stroke-width: 2; stroke: #000000" points="260,637.764 255,627.764 260,630.264 265,627.764 "/>
  </g>
  <text font-size="12.8" style="fill: #000000;text-anchor:start;font-family:sans-serif;font-style:normal;font-weight:normal" x="480" y="180">
    <tspan x="480" y="180">git submodule update</tspan>
  </text>
  <text font-size="12.8" style="fill: #000000;text-anchor:start;font-family:sans-serif;font-style:normal;font-weight:normal" x="480" y="252">
    <tspan x="480" y="252">make dist</tspan>
    <tspan x="480" y="268">cmake package_source</tspan>
  </text>
  <g>
    <rect style="fill: #ffffff" x="400" y="640" width="120" height="60"/>
    <rect style="fill: none; fill-opacity:0; stroke-width: 2; stroke: #000000" x="400" y="640" width="120" height="60"/>
    <text font-size="12.8" style="fill: #000000;text-anchor:middle;font-family:sans-serif;font-style:normal;font-weight:normal" x="460" y="665.881">
      <tspan x="460" y="665.881">Docker image:</tspan>
      <tspan x="460" y="681.881">villas-dev</tspan>
    </text>
  </g>
  <g>
    <line style="fill: none; fill-opacity:0; stroke-width: 2; stroke: #000000" x1="460.874" y1="580" x2="460.142" y2="630.265"/>
    <polygon style="fill: #000000" points="460.033,637.764 455.179,627.692 460.142,630.265 465.178,627.838 "/>
    <polygon style="fill: none; fill-opacity:0; stroke-width: 2; stroke: #000000" points="460.033,637.764 455.179,627.692 460.142,630.265 465.178,627.838 "/>
  </g>
  <text font-size="12.8" style="fill: #000000;text-anchor:start;font-family:sans-serif;font-style:normal;font-weight:normal" x="340" y="620">
    <tspan x="340" y="620">make docker-dev</tspan>
  </text>
  <text font-size="12.8" style="fill: #000000;text-anchor:start;font-family:sans-serif;font-style:normal;font-weight:normal" x="540" y="420">
    <tspan x="540" y="420">make iso</tspan>
  </text>
  <g>
    <rect style="fill: #ffffff" x="600" y="340" width="161.776" height="60"/>
    <rect style="fill: none; fill-opacity:0; stroke-width: 2; stroke: #a20000" x="600" y="340" width="161.776" height="60"/>
    <text font-size="12.8" style="fill: #000000;text-anchor:middle;font-family:sans-serif;font-style:normal;font-weight:normal" x="680.888" y="365.881">
      <tspan x="680.888" y="365.881">Website:</tspan>
      <tspan x="680.888" y="381.881">villas.0l.de</tspan>
    </text>
  </g>
  <g>
    <rect style="fill: #ffffff" x="600" y="420" width="160" height="60"/>
    <rect style="fill: none; fill-opacity:0; stroke-width: 2; stroke: #a20000" x="600" y="420" width="160" height="60"/>
    <text font-size="12.8" style="fill: #000000;text-anchor:middle;font-family:sans-serif;font-style:normal;font-weight:normal" x="680" y="445.881">
      <tspan x="680" y="445.881">Live images:</tspan>
      <tspan x="680" y="461.881">(.iso)</tspan>
    </text>
  </g>
  <g>
    <rect style="fill: #ffffff" x="600" y="500" width="160" height="60"/>
    <rect style="fill: none; fill-opacity:0; stroke-width: 2; stroke: #a20000" x="600" y="500" width="160" height="60"/>
    <text font-size="12.8" style="fill: #000000;text-anchor:middle;font-family:sans-serif;font-style:normal;font-weight:normal" x="680" y="525.881">
      <tspan x="680" y="525.881">RPM Repository:</tspan>
      <tspan x="680" y="541.881">villas.0l.de/packages</tspan>
    </text>
  </g>
  <g>
    <rect style="fill: #ffffff" x="600" y="580" width="160" height="60"/>
    <rect style="fill: none; fill-opacity:0; stroke-width: 2; stroke: #a20000" x="600" y="580" width="160" height="60"/>
    <text font-size="12.8" style="fill: #000000;text-anchor:middle;font-family:sans-serif;font-style:normal;font-weight:normal" x="680" y="605.881">
      <tspan x="680" y="605.881">Docker Registry:</tspan>
      <tspan x="680" y="621.881">villas.0l.de:5000</tspan>
    </text>
  </g>
  <text font-size="12.8" style="fill: #000000;text-anchor:start;font-family:sans-serif;font-style:normal;font-weight:normal" x="460" y="740">
    <tspan x="460" y="740">docker push</tspan>
  </text>
  <text font-size="12.8" style="fill: #000000;text-anchor:middle;font-family:sans-serif;font-style:normal;font-weight:normal" x="460" y="100">
    <tspan x="460" y="100">libxil, libwebsockets, ...</tspan>
  </text>
  <g>
    <line style="fill: none; fill-opacity:0; stroke-width: 2; stroke: #000000" x1="460" y1="460" x2="460.732" y2="510.265"/>
    <polygon style="fill: #000000" points="460.841,517.764 455.696,507.838 460.732,510.265 465.695,507.692 "/>
    <polygon style="fill: none; fill-opacity:0; stroke-width: 2; stroke: #000000" points="460.841,517.764 455.696,507.838 460.732,510.265 465.695,507.692 "/>
  </g>
  <g>
    <rect style="fill: #ffffff" x="404" y="116" width="120.35" height="40"/>
    <rect style="fill: none; fill-opacity:0; stroke-width: 2; stroke: #000000" x="404" y="116" width="120.35" height="40"/>
    <text font-size="12.8" style="fill: #000000;text-anchor:middle;font-family:sans-serif;font-style:normal;font-weight:normal" x="464.175" y="139.881">
      <tspan x="464.175" y="139.881">GitLab / GitHub</tspan>
    </text>
  </g>
  <g>
    <rect style="fill: #ffffff" x="404" y="196" width="120" height="40"/>
    <rect style="fill: none; fill-opacity:0; stroke-width: 2; stroke: #000000" x="404" y="196" width="120" height="40"/>
    <text font-size="12.8" style="fill: #000000;text-anchor:middle;font-family:sans-serif;font-style:normal;font-weight:normal" x="464" y="219.881">
      <tspan x="464" y="219.881">Source</tspan>
    </text>
  </g>
  <g>
    <rect style="fill: #ffffff" x="404" y="276" width="120" height="60"/>
    <rect style="fill: none; fill-opacity:0; stroke-width: 2; stroke: #000000" x="404" y="276" width="120" height="60"/>
    <text font-size="12.8" style="fill: #000000;text-anchor:middle;font-family:sans-serif;font-style:normal;font-weight:normal" x="464" y="301.881">
      <tspan x="464" y="301.881">Source Tarbars</tspan>
      <tspan x="464" y="317.881">(.tar.gz)</tspan>
    </text>
  </g>
  <g>
    <rect style="fill: #ffffff" x="404" y="396" width="120" height="60"/>
    <rect style="fill: none; fill-opacity:0; stroke-width: 2; stroke: #000000" x="404" y="396" width="120" height="60"/>
    <text font-size="12.8" style="fill: #000000;text-anchor:middle;font-family:sans-serif;font-style:normal;font-weight:normal" x="464" y="421.881">
      <tspan x="464" y="421.881">RPM Packages</tspan>
      <tspan x="464" y="437.881">(.rpm)</tspan>
    </text>
  </g>
  <g>
    <line style="fill: none; fill-opacity:0; stroke-width: 2; stroke-dasharray: 4; stroke: #000000" x1="320" y1="140" x2="390.09" y2="140"/>
    <polygon style="fill: #000000" points="397.59,140 387.59,145 390.09,140 387.59,135 "/>
    <polygon style="fill: none; fill-opacity:0; stroke-width: 2; stroke: #000000" points="397.59,140 387.59,145 390.09,140 387.59,135 "/>
  </g>
  <g>
    <line style="fill: none; fill-opacity:0; stroke-width: 2; stroke: #7f7f7f" x1="680" y1="420" x2="680.456" y2="409.726"/>
    <polygon style="fill: #7f7f7f" points="680.789,402.234 685.34,412.446 680.456,409.726 675.35,412.002 "/>
    <polygon style="fill: none; fill-opacity:0; stroke-width: 2; stroke: #7f7f7f" points="680.789,402.234 685.34,412.446 680.456,409.726 675.35,412.002 "/>
  </g>
  <g>
    <g>
      <polyline style="fill: none; fill-opacity:0; stroke-width: 2; stroke: #a20000" points="490,340 490,370 590.264,370 "/>
      <polygon style="fill: #a20000" points="597.764,370 587.764,375 590.264,370 587.764,365 "/>
      <polygon style="fill: none; fill-opacity:0; stroke-width: 2; stroke: #a20000" points="597.764,370 587.764,375 590.264,370 587.764,365 "/>
    </g>
    <g>
      <polyline style="fill: none; fill-opacity:0; stroke-width: 2; stroke: #a20000" points="290,340 290,370 590.264,370 "/>
      <polygon style="fill: #a20000" points="597.764,370 587.764,375 590.264,370 587.764,365 "/>
      <polygon style="fill: none; fill-opacity:0; stroke-width: 2; stroke: #a20000" points="597.764,370 587.764,375 590.264,370 587.764,365 "/>
    </g>
    <g>
      <polyline style="fill: none; fill-opacity:0; stroke-width: 2; stroke: #a20000" points="490,460 490,500 560,500 560,530 590.264,530 "/>
      <polygon style="fill: #a20000" points="597.764,530 587.764,535 590.264,530 587.764,525 "/>
      <polygon style="fill: none; fill-opacity:0; stroke-width: 2; stroke: #a20000" points="597.764,530 587.764,535 590.264,530 587.764,525 "/>
    </g>
    <g>
      <polyline style="fill: none; fill-opacity:0; stroke-width: 2; stroke: #a20000" points="521.75,550 560,550 560,610 590.264,610 "/>
      <polygon style="fill: #a20000" points="597.764,610 587.764,615 590.264,610 587.764,605 "/>
      <polygon style="fill: none; fill-opacity:0; stroke-width: 2; stroke: #a20000" points="597.764,610 587.764,615 590.264,610 587.764,605 "/>
    </g>
    <g>
      <polyline style="fill: none; fill-opacity:0; stroke-width: 2; stroke: #a20000" points="520,670 560,670 560,610 590.264,610 "/>
      <polygon style="fill: #a20000" points="597.764,610 587.764,615 590.264,610 587.764,605 "/>
      <polygon style="fill: none; fill-opacity:0; stroke-width: 2; stroke: #a20000" points="597.764,610 587.764,615 590.264,610 587.764,605 "/>
    </g>
    <g>
      <polyline style="fill: none; fill-opacity:0; stroke-width: 2; stroke: #a20000" points="260,700 260,720 560,720 560,610 590.264,610 "/>
      <polygon style="fill: #a20000" points="597.764,610 587.764,615 590.264,610 587.764,605 "/>
      <polygon style="fill: none; fill-opacity:0; stroke-width: 2; stroke: #a20000" points="597.764,610 587.764,615 590.264,610 587.764,605 "/>
    </g>
    <g>
      <polyline style="fill: none; fill-opacity:0; stroke-width: 2; stroke: #a20000" points="494,456 494,500 560,500 560,530 590.264,530 "/>
      <polygon style="fill: #a20000" points="597.764,530 587.764,535 590.264,530 587.764,525 "/>
      <polygon style="fill: none; fill-opacity:0; stroke-width: 2; stroke: #a20000" points="597.764,530 587.764,535 590.264,530 587.764,525 "/>
    </g>
    <g>
      <polyline style="fill: none; fill-opacity:0; stroke-width: 2; stroke: #a20000" points="290,460 290,500 560,500 560,450 590.264,450 "/>
      <polygon style="fill: #a20000" points="597.764,450 587.764,455 590.264,450 587.764,445 "/>
      <polygon style="fill: none; fill-opacity:0; stroke-width: 2; stroke: #a20000" points="597.764,450 587.764,455 590.264,450 587.764,445 "/>
    </g>
    <g>
      <polyline style="fill: none; fill-opacity:0; stroke-width: 2; stroke: #a20000" points="494,336 494,370 590.264,370 "/>
      <polygon style="fill: #a20000" points="597.764,370 587.764,375 590.264,370 587.764,365 "/>
      <polygon style="fill: none; fill-opacity:0; stroke-width: 2; stroke: #a20000" points="597.764,370 587.764,375 590.264,370 587.764,365 "/>
    </g>
  </g>
</svg>
