<?xml version="1.0" encoding="UTF-8" standalone="no"?>
<!DOCTYPE svg PUBLIC "-//W3C//DTD SVG 1.0//EN" "http://www.w3.org/TR/2001/PR-SVG-20010719/DTD/svg10.dtd">
<svg width="47cm" height="21cm" viewBox="-1 -6 922 407" xmlns="http://www.w3.org/2000/svg" xmlns:xlink="http://www.w3.org/1999/xlink">
  <rect style="fill: none; fill-opacity:0; stroke-width: 2; stroke: #000000" x="100" y="20" width="640" height="360"/>
  <line style="fill: none; fill-opacity:0; stroke-width: 2; stroke-dasharray: 4; stroke: #b1b1b1" x1="420" y1="0" x2="420" y2="400"/>
  <g>
    <rect style="fill: #ffbbbb" x="100" y="20" width="80" height="40"/>
    <rect style="fill: none; fill-opacity:0; stroke-width: 2; stroke: #000000" x="100" y="20" width="80" height="40"/>
    <text font-size="12.8" style="fill: #000000;text-anchor:middle;font-family:sans-serif;font-style:normal;font-weight:normal" x="140" y="43.8812">
      <tspan x="140" y="43.8812"></tspan>
    </text>
  </g>
  <text font-size="12.8" style="fill: #000000;text-anchor:middle;font-family:sans-serif;font-style:normal;font-weight:normal" x="140" y="36.4312">
    <tspan x="140" y="36.4312">version:</tspan>
    <tspan x="140" y="52.4312">1</tspan>
  </text>
  <g>
    <rect style="fill: #c1ff60" x="100" y="180" width="640" height="40"/>
    <rect style="fill: none; fill-opacity:0; stroke-width: 2; stroke: #000000" x="100" y="180" width="640" height="40"/>
    <text font-size="12.8" style="fill: #000000;text-anchor:middle;font-family:sans-serif;font-style:normal;font-weight:normal" x="420" y="203.881">
      <tspan x="420" y="203.881">data[0]</tspan>
    </text>
  </g>
  <g>
    <rect style="fill: #c1ff60" x="100" y="340" width="640" height="40"/>
    <rect style="fill: none; fill-opacity:0; stroke-width: 2; stroke: #000000" x="100" y="340" width="640" height="40"/>
    <text font-size="12.8" style="fill: #000000;text-anchor:middle;font-family:sans-serif;font-style:normal;font-weight:normal" x="420" y="363.881">
      <tspan x="420" y="363.881">data[length-1]</tspan>
    </text>
  </g>
  <text font-size="12.8" style="fill: #000000;text-anchor:end;font-family:sans-serif;font-style:normal;font-weight:normal" x="90" y="24.4313">
    <tspan x="90" y="24.4313">0x00</tspan>
  </text>
  <text font-size="12.8" style="fill: #000000;text-anchor:end;font-family:sans-serif;font-style:normal;font-weight:normal" x="90" y="64.4312">
    <tspan x="90" y="64.4312">0x04</tspan>
  </text>
  <text font-size="12.8" style="fill: #000000;text-anchor:end;font-family:sans-serif;font-style:normal;font-weight:normal" x="88.508" y="104.431">
    <tspan x="88.508" y="104.431">0x08</tspan>
  </text>
  <text font-size="12.8" style="fill: #000000;text-anchor:end;font-family:sans-serif;font-style:normal;font-weight:normal" x="86" y="144.431">
    <tspan x="86" y="144.431">0x0C</tspan>
  </text>
  <text font-size="12.8" style="fill: #000000;text-anchor:end;font-family:sans-serif;font-style:normal;font-weight:normal" x="86" y="184.431">
    <tspan x="86" y="184.431">0x10</tspan>
  </text>
  <text font-size="12.8" style="fill: #000000;text-anchor:middle;font-family:sans-serif;font-style:normal;font-weight:normal" x="100" y="6.98125">
    <tspan x="100" y="6.98125">0</tspan>
  </text>
  <text font-size="12.8" style="fill: #000000;text-anchor:middle;font-family:sans-serif;font-style:normal;font-weight:normal" x="180" y="6.98125">
    <tspan x="180" y="6.98125">4</tspan>
  </text>
  <text font-size="12.8" style="fill: #000000;text-anchor:middle;font-family:sans-serif;font-style:normal;font-weight:normal" x="260" y="6.98125">
    <tspan x="260" y="6.98125">8</tspan>
  </text>
  <text font-size="12.8" style="fill: #000000;text-anchor:middle;font-family:sans-serif;font-style:normal;font-weight:normal" x="340" y="6.98125">
    <tspan x="340" y="6.98125">12</tspan>
  </text>
  <text font-size="12.8" style="fill: #000000;text-anchor:middle;font-family:sans-serif;font-style:normal;font-weight:normal" x="420" y="6.98125">
    <tspan x="420" y="6.98125">16</tspan>
  </text>
  <text font-size="12.8" style="fill: #000000;text-anchor:middle;font-family:sans-serif;font-style:normal;font-weight:normal" x="500" y="6.98125">
    <tspan x="500" y="6.98125">20</tspan>
  </text>
  <text font-size="12.8" style="fill: #000000;text-anchor:middle;font-family:sans-serif;font-style:normal;font-weight:normal" x="580" y="6.98125">
    <tspan x="580" y="6.98125">24</tspan>
  </text>
  <text font-size="12.8" style="fill: #000000;text-anchor:middle;font-family:sans-serif;font-style:normal;font-weight:normal" x="660" y="6.98125">
    <tspan x="660" y="6.98125">28</tspan>
  </text>
  <text font-size="12.8" style="fill: #000000;text-anchor:start;font-family:sans-serif;font-style:normal;font-weight:normal" x="731.904" y="6.59565">
    <tspan x="731.904" y="6.59565">32 bits</tspan>
  </text>
  <text font-size="12.8" style="fill: #000000;text-anchor:start;font-family:sans-serif;font-style:normal;font-weight:normal" x="800" y="96.4312">
    <tspan x="800" y="96.4312">fixed preamble</tspan>
    <tspan x="800" y="112.431">(4 DWORDS)</tspan>
  </text>
  <text font-size="12.8" style="fill: #000000;text-anchor:start;font-family:sans-serif;font-style:normal;font-weight:normal" x="800" y="276.431">
    <tspan x="800" y="276.431">data</tspan>
    <tspan x="800" y="292.431">(length DWORDS)</tspan>
  </text>
  <g>
    <rect style="fill: #ffbbbb" x="100" y="60" width="640" height="40"/>
    <rect style="fill: none; fill-opacity:0; stroke-width: 2; stroke: #000000" x="100" y="60" width="640" height="40"/>
    <text font-size="12.8" style="fill: #000000;text-anchor:middle;font-family:sans-serif;font-style:normal;font-weight:normal" x="420" y="83.8812">
      <tspan x="420" y="83.8812">sequence</tspan>
    </text>
  </g>
  <line style="fill: none; fill-opacity:0; stroke-width: 2; stroke: #4d4d4d" x1="740" y1="180" x2="920" y2="180"/>
  <line style="fill: none; fill-opacity:0; stroke-width: 2; stroke: #4d4d4d" x1="740" y1="20" x2="920" y2="20"/>
  <path style="fill: none; fill-opacity:0; stroke-width: 2; stroke: #000000" d="M 750 180 C 770,180 750,280 780,280"/>
  <line style="fill: none; fill-opacity:0; stroke-width: 10; stroke-dasharray: 10; stroke: #000000" x1="420" y1="220" x2="420" y2="340"/>
  <line style="fill: none; fill-opacity:0; stroke-width: 2; stroke: #4d4d4d" x1="740" y1="380" x2="920" y2="380"/>
  <path style="fill: none; fill-opacity:0; stroke-width: 2; stroke: #000000" d="M 750 380 C 770,380 750,280 780,280"/>
  <g>
    <rect style="fill: #ffbbbb" x="180" y="20" width="40" height="40"/>
    <rect style="fill: none; fill-opacity:0; stroke-width: 2; stroke: #000000" x="180" y="20" width="40" height="40"/>
  </g>
  <text font-size="16.9333" style="fill: #000000;text-anchor:middle;font-family:sans-serif;font-style:normal;font-weight:700" x="200" y="45.8622">
    <tspan x="200" y="45.8622">0</tspan>
  </text>
  <g>
    <rect style="fill: #ffbbbb" x="420" y="20" width="320" height="40"/>
    <rect style="fill: none; fill-opacity:0; stroke-width: 2; stroke: #000000" x="420" y="20" width="320" height="40"/>
    <text font-size="12.8" style="fill: #000000;text-anchor:middle;font-family:sans-serif;font-style:normal;font-weight:normal" x="580" y="43.8812">
      <tspan x="580" y="43.8812">length</tspan>
    </text>
  </g>
  <text font-size="12.8" style="fill: #000000;text-anchor:end;font-family:sans-serif;font-style:normal;font-weight:normal" x="84" y="384.431">
    <tspan x="84" y="384.431">4*(length+4)</tspan>
  </text>
  <g>
    <rect style="fill: #ffde00" x="100" y="100" width="640" height="40"/>
    <rect style="fill: none; fill-opacity:0; stroke-width: 2; stroke: #000000" x="100" y="100" width="640" height="40"/>
    <text font-size="12.8" style="fill: #000000;text-anchor:middle;font-family:sans-serif;font-style:normal;font-weight:normal" x="420" y="123.881">
      <tspan x="420" y="123.881">timestamp.seconds</tspan>
    </text>
  </g>
  <text font-size="12.8" style="fill: #000000;text-anchor:start;font-family:sans-serif;font-style:normal;font-weight:normal" x="420" y="120">
    <tspan x="420" y="120"></tspan>
  </text>
  <text font-size="12.8" style="fill: #000000;text-anchor:start;font-family:sans-serif;font-style:normal;font-weight:normal" x="420" y="120">
    <tspan x="420" y="120"></tspan>
  </text>
  <path style="fill: none; fill-opacity:0; stroke-width: 2; stroke: #000000" d="M 754 20 C 774,20 750,100 780,100"/>
  <path style="fill: none; fill-opacity:0; stroke-width: 2; stroke: #000000" d="M 754 180 C 774,180 750,100 780,100"/>
  <g>
    <rect style="fill: #ffde00" x="100" y="140" width="640" height="40"/>
    <rect style="fill: none; fill-opacity:0; stroke-width: 2; stroke: #000000" x="100" y="140" width="640" height="40"/>
    <text font-size="12.8" style="fill: #000000;text-anchor:middle;font-family:sans-serif;font-style:normal;font-weight:normal" x="420" y="163.881">
      <tspan x="420" y="163.881">timestamp.nanoseconds</tspan>
    </text>
  </g>
  <g>
    <rect style="fill: #ffbbbb" x="260" y="20" width="160" height="40"/>
    <rect style="fill: none; fill-opacity:0; stroke-width: 2; stroke: #000000" x="260" y="20" width="160" height="40"/>
    <text font-size="12.8" style="fill: #000000;text-anchor:middle;font-family:sans-serif;font-style:normal;font-weight:normal" x="340" y="43.8812">
      <tspan x="340" y="43.8812">node_id</tspan>
    </text>
  </g>
  <g>
    <rect style="fill: #e5e5e5" x="220" y="20" width="42" height="40"/>
    <rect style="fill: none; fill-opacity:0; stroke-width: 2; stroke: #000000" x="220" y="20" width="42" height="40"/>
    <text font-size="12.8" style="fill: #000000;text-anchor:middle;font-family:sans-serif;font-style:normal;font-weight:normal" x="241" y="43.8812">
      <tspan x="241" y="43.8812"></tspan>
    </text>
  </g>
  <text font-size="12.8" style="fill: #000000;text-anchor:start;font-family:sans-serif;font-style:normal;font-weight:normal" x="580" y="40">
    <tspan x="580" y="40"></tspan>
  </text>
  <text font-size="10.5438" style="fill: #000000;text-anchor:middle;font-family:sans-serif;font-style:normal;font-weight:normal" x="241" y="30.4704">
    <tspan x="241" y="30.4704">R</tspan>
    <tspan x="241" y="43.6502">E</tspan>
    <tspan x="241" y="56.8299">S</tspan>
  </text>
  <text font-size="12.8" style="fill: #000000;text-anchor:start;font-family:sans-serif;font-style:normal;font-weight:normal" x="460" y="276.431">
    <tspan x="460" y="276.431">Data can be either float or uint32_t</tspan>
    <tspan x="460" y="292.431">Interpretation is up to the receiving side</tspan>
  </text>
  <text font-size="12.8" style="fill: #000000;text-anchor:end;font-family:sans-serif;font-style:normal;font-weight:normal" x="380" y="276.431">
    <tspan x="380" y="276.431">All multi-byte fields are</tspan>
    <tspan x="380" y="292.431">in network byte-order (big endian)</tspan>
  </text>
</svg>
