<?xml version="1.0" encoding="UTF-8" standalone="no"?>
<!DOCTYPE svg PUBLIC "-//W3C//DTD SVG 1.0//EN" "http://www.w3.org/TR/2001/PR-SVG-20010719/DTD/svg10.dtd">
<svg width="43cm" height="27cm" viewBox="-1 300 842 524" xmlns="http://www.w3.org/2000/svg" xmlns:xlink="http://www.w3.org/1999/xlink">
  <line style="fill: none; fill-opacity:0; stroke-width: 2; stroke-dasharray: 4; stroke: #93a5ff" x1="840" y1="560" x2="0" y2="560"/>
  <g>
    <rect style="fill: #ffffff" x="20" y="320" width="160" height="160"/>
    <rect style="fill: none; fill-opacity:0; stroke-width: 2; stroke: #ff0000" x="20" y="320" width="160" height="160"/>
  </g>
  <g>
    <rect style="fill: #ffffff" x="340" y="640" width="160" height="160"/>
    <rect style="fill: none; fill-opacity:0; stroke-width: 2; stroke: #0000ff" x="340" y="640" width="160" height="160"/>
  </g>
  <g>
    <line style="fill: none; fill-opacity:0; stroke-width: 2; stroke: #000000" x1="180" y1="360" x2="330.264" y2="360"/>
    <polygon style="fill: #000000" points="337.764,360 327.764,365 330.264,360 327.764,355 "/>
    <polygon style="fill: none; fill-opacity:0; stroke-width: 2; stroke: #000000" points="337.764,360 327.764,365 330.264,360 327.764,355 "/>
  </g>
  <g>
    <line style="fill: none; fill-opacity:0; stroke-width: 2; stroke: #000000" x1="460" y1="480" x2="460" y2="630.264"/>
    <polygon style="fill: #000000" points="460,637.764 455,627.764 460,630.264 465,627.764 "/>
    <polygon style="fill: none; fill-opacity:0; stroke-width: 2; stroke: #000000" points="460,637.764 455,627.764 460,630.264 465,627.764 "/>
  </g>
  <g>
    <line style="fill: none; fill-opacity:0; stroke-width: 2; stroke: #000000" x1="340" y1="440" x2="189.736" y2="440"/>
    <polygon style="fill: #000000" points="182.236,440 192.236,435 189.736,440 192.236,445 "/>
    <polygon style="fill: none; fill-opacity:0; stroke-width: 2; stroke: #000000" points="182.236,440 192.236,435 189.736,440 192.236,445 "/>
  </g>
  <g>
    <line style="fill: none; fill-opacity:0; stroke-width: 2; stroke: #000000" x1="380" y1="640" x2="380" y2="489.736"/>
    <polygon style="fill: #000000" points="380,482.236 385,492.236 380,489.736 375,492.236 "/>
    <polygon style="fill: none; fill-opacity:0; stroke-width: 2; stroke: #000000" points="380,482.236 385,492.236 380,489.736 375,492.236 "/>
  </g>
  <text font-size="17.3172" style="fill: #000000;text-anchor:middle;font-family:sans-serif;font-style:normal;font-weight:normal" x="100" y="395.172">
    <tspan x="100" y="395.172">OPAL</tspan>
    <tspan x="100" y="416.818">ACS</tspan>
  </text>
  <g>
    <rect style="fill: #ffffff" x="660" y="640" width="160" height="160"/>
    <rect style="fill: none; fill-opacity:0; stroke-width: 2; stroke: #0000ff" x="660" y="640" width="160" height="160"/>
  </g>
  <g>
    <rect style="fill: #ffffff" x="340" y="320" width="160" height="160"/>
    <rect style="fill: none; fill-opacity:0; stroke-width: 2; stroke: #ff0000" x="340" y="320" width="160" height="160"/>
  </g>
  <text font-size="17.3172" style="fill: #000000;text-anchor:middle;font-family:sans-serif;font-style:normal;font-weight:normal" x="740" y="715.172">
    <tspan x="740" y="715.172">OPAL</tspan>
    <tspan x="740" y="736.818">SINTEF</tspan>
  </text>
  <g>
    <line style="fill: none; fill-opacity:0; stroke-width: 2; stroke: #000000" x1="500" y1="680" x2="650.264" y2="680"/>
    <polygon style="fill: #000000" points="657.764,680 647.764,685 650.264,680 647.764,675 "/>
    <polygon style="fill: none; fill-opacity:0; stroke-width: 2; stroke: #000000" points="657.764,680 647.764,685 650.264,680 647.764,675 "/>
  </g>
  <g>
    <line style="fill: none; fill-opacity:0; stroke-width: 2; stroke: #000000" x1="660" y1="760" x2="509.736" y2="760"/>
    <polygon style="fill: #000000" points="502.236,760 512.236,755 509.736,760 512.236,765 "/>
    <polygon style="fill: none; fill-opacity:0; stroke-width: 2; stroke: #000000" points="502.236,760 512.236,755 509.736,760 512.236,765 "/>
  </g>
  <path style="fill: none; fill-opacity:0; stroke-width: 2; stroke: #000000" d="M 340,380 A 20,20 0 1 0 340,340"/>
  <path style="fill: none; fill-opacity:0; stroke-width: 2; stroke: #000000" d="M 180,420 A 20,20 0 1 0 180,460"/>
  <g>
    <path style="fill: none; fill-opacity:0; stroke-width: 2; stroke: #bfbfbf" d="M 380.62,649.693 A 123.037,123.037 0 0 0 500,760"/>
    <polygon style="fill: #bfbfbf" points="380.055,642.235 385.297,652.111 380.237,649.733 375.3,652.354 "/>
    <polygon style="fill: none; fill-opacity:0; stroke-width: 2; stroke: #bfbfbf" points="380.055,642.235 385.297,652.111 380.237,649.733 375.3,652.354 "/>
  </g>
  <g>
    <path style="fill: none; fill-opacity:0; stroke-width: 2; stroke: #bfbfbf" d="M 459.646,470.295 A 119.501,119.501 0 0 0 340,360"/>
    <polygon style="fill: #bfbfbf" points="460.009,477.764 455.051,467.743 460.041,470.264 465.051,467.785 "/>
    <polygon style="fill: none; fill-opacity:0; stroke-width: 2; stroke: #bfbfbf" points="460.009,477.764 455.051,467.743 460.041,470.264 465.051,467.785 "/>
  </g>
  <g>
    <path style="fill: none; fill-opacity:0; stroke-width: 2; stroke: #bfbfbf" d="M 380,480 A 41.0122,41.0122 0 0 0 349.443,441.34"/>
    <polygon style="fill: #bfbfbf" points="342.235,440.055 352.354,435.3 349.733,440.237 352.111,445.297 "/>
    <polygon style="fill: none; fill-opacity:0; stroke-width: 2; stroke: #bfbfbf" points="342.235,440.055 352.354,435.3 349.733,440.237 352.111,445.297 "/>
  </g>
  <path style="fill: none; fill-opacity:0; stroke-width: 2; stroke: #000000" d="M 440,640 A 20,20 0 1 0 480,640"/>
  <g>
    <path style="fill: #ffffff" d="M 463.451 542.677 L 463.412,542.056 L 463.276,541.436 L 463.023,540.827 L 462.653,540.217 L 462.205,539.597 L 461.679,538.998 L 460.998,538.4 L 460.277,537.834 L 459.44,537.268 L 458.544,536.702 L 457.551,536.179 L 456.442,535.657 L 455.254,535.145 L 454.027,534.656 L 452.684,534.209 L 451.282,533.763 L 449.802,533.339 L 448.284,532.947 L 446.687,532.588 L 445.032,532.24 L 443.319,531.913 L 441.547,531.63 L 439.775,531.369 L 437.926,531.13 L 436.018,530.944 L 434.129,530.759 L 432.221,530.618 L 430.235,530.509 L 428.269,530.433 L 426.283,530.379 L 424.336,530.368 L 424.336,530.368 L 422.35,530.379 L 420.364,530.433 L 418.378,530.509 L 416.431,530.618 L 414.503,530.759 L 412.615,530.944 L 410.726,531.13 L 408.896,531.369 L 407.085,531.63 L 405.352,531.913 L 403.639,532.24 L 401.965,532.588 L 400.368,532.947 L 398.81,533.339 L 397.35,533.763 L 395.968,534.209 L 394.644,534.656 L 393.359,535.145 L 392.21,535.657 L 391.12,536.179 L 390.107,536.702 L 389.173,537.268 L 388.375,537.834 L 387.615,538.4 L 386.973,538.998 L 386.428,539.597 L 385.999,540.217 L 385.649,540.827 L 385.396,541.436 L 385.22,542.056 L 385.182,542.677 L 385.182,542.677 L 385.22,543.297 L 385.396,543.939 L 385.649,544.549 L 385.999,545.169 L 386.428,545.779 L 386.973,546.355 L 387.615,546.954 L 388.375,547.542 L 389.173,548.108 L 390.107,548.652 L 391.12,549.196 L 392.21,549.718 L 393.359,550.208 L 394.644,550.698 L 395.968,551.166 L 397.35,551.601 L 398.81,552.015 L 400.368,552.406 L 401.965,552.798 L 403.639,553.136 L 405.352,553.44 L 407.085,553.745 L 408.896,554.006 L 410.726,554.224 L 412.615,554.431 L 414.503,554.594 L 416.431,554.736 L 418.378,554.844 L 420.364,554.921 L 422.35,554.975 L 424.336,554.986 L 424.336,554.986 L 426.283,554.975 L 428.269,554.921 L 430.235,554.844 L 432.221,554.736 L 434.129,554.594 L 436.018,554.431 L 437.926,554.224 L 439.775,554.006 L 441.547,553.745 L 443.319,553.44 L 445.032,553.136 L 446.687,552.798 L 448.284,552.406 L 449.802,552.015 L 451.282,551.601 L 452.684,551.166 L 454.027,550.698 L 455.254,550.208 L 456.442,549.718 L 457.551,549.196 L 458.544,548.652 L 459.44,548.108 L 460.277,547.542 L 460.998,546.954 L 461.679,546.355 L 462.205,545.779 L 462.653,545.169 L 463.023,544.549 L 463.276,543.939 L 463.412,543.297 L 463.451,542.677z"/>
    <path style="fill: #ffffff" d="M 402.101 549.141 L 402.062,548.521 L 401.945,547.901 L 401.789,547.291 L 401.497,546.671 L 401.147,546.061 L 400.738,545.463 L 400.251,544.864 L 399.667,544.298 L 399.044,543.732 L 398.324,543.167 L 397.564,542.644 L 396.727,542.122 L 395.851,541.621 L 394.878,541.12 L 393.846,540.674 L 392.794,540.217 L 391.646,539.804 L 390.497,539.412 L 389.231,539.042 L 387.966,538.704 L 386.681,538.378 L 385.337,538.095 L 383.935,537.834 L 382.534,537.594 L 381.093,537.409 L 379.633,537.224 L 378.153,537.083 L 376.654,536.974 L 375.174,536.887 L 373.616,536.843 L 372.098,536.832 L 372.098,536.832 L 370.618,536.843 L 369.08,536.887 L 367.581,536.974 L 366.062,537.083 L 364.582,537.224 L 363.122,537.409 L 361.681,537.594 L 360.279,537.834 L 358.897,538.095 L 357.554,538.378 L 356.249,538.704 L 354.984,539.042 L 353.757,539.412 L 352.569,539.804 L 351.44,540.217 L 350.369,540.674 L 349.376,541.12 L 348.403,541.621 L 347.488,542.122 L 346.65,542.644 L 345.911,543.167 L 345.171,543.732 L 344.567,544.298 L 343.983,544.864 L 343.496,545.463 L 343.068,546.061 L 342.737,546.671 L 342.445,547.291 L 342.27,547.901 L 342.153,548.521 L 342.133,549.141 L 342.133,549.141 L 342.153,549.762 L 342.27,550.404 L 342.445,551.013 L 342.737,551.623 L 343.068,552.232 L 343.496,552.82 L 343.983,553.419 L 344.567,554.006 L 345.171,554.572 L 345.911,555.116 L 346.65,555.661 L 347.488,556.183 L 348.403,556.673 L 349.376,557.163 L 350.369,557.631 L 351.44,558.055 L 352.569,558.49 L 353.757,558.871 L 354.984,559.252 L 356.249,559.6 L 357.554,559.905 L 358.897,560.21 L 360.279,560.449 L 361.681,560.689 L 363.122,560.896 L 364.582,561.059 L 366.062,561.211 L 367.581,561.309 L 369.08,561.385 L 370.618,561.44 L 372.098,561.451 L 372.098,561.451 L 373.616,561.44 L 375.174,561.385 L 376.654,561.309 L 378.153,561.211 L 379.633,561.059 L 381.093,560.896 L 382.534,560.689 L 383.935,560.449 L 385.337,560.21 L 386.681,559.905 L 387.966,559.6 L 389.231,559.252 L 390.497,558.871 L 391.646,558.49 L 392.794,558.055 L 393.846,557.631 L 394.878,557.163 L 395.851,556.673 L 396.727,556.183 L 397.564,555.661 L 398.324,555.116 L 399.044,554.572 L 399.667,554.006 L 400.251,553.419 L 400.738,552.82 L 401.147,552.232 L 401.497,551.623 L 401.789,551.013 L 401.945,550.404 L 402.062,549.762 L 402.101,549.141z"/>
    <path style="fill: #ffffff" d="M 364.29 561.701 L 364.251,561.189 L 364.212,560.689 L 364.057,560.177 L 363.862,559.677 L 363.667,559.187 L 363.375,558.697 L 363.025,558.218 L 362.655,557.728 L 362.226,557.282 L 361.74,556.814 L 361.233,556.39 L 360.688,555.954 L 360.085,555.541 L 359.423,555.16 L 358.741,554.779 L 358.021,554.431 L 357.242,554.083 L 356.444,553.756 L 355.646,553.462 L 354.789,553.168 L 353.893,552.918 L 352.978,552.679 L 352.063,552.461 L 351.09,552.276 L 350.136,552.113 L 349.143,551.982 L 348.169,551.851 L 347.137,551.775 L 346.144,551.71 L 345.112,551.666 L 344.08,551.656 L 344.08,551.656 L 343.048,551.666 L 342.017,551.71 L 341.004,551.775 L 340.011,551.851 L 339.038,551.982 L 338.025,552.113 L 337.052,552.276 L 336.117,552.461 L 335.202,552.679 L 334.287,552.918 L 333.391,553.168 L 332.535,553.462 L 331.697,553.756 L 330.938,554.083 L 330.159,554.431 L 329.439,554.779 L 328.757,555.16 L 328.096,555.541 L 327.492,555.954 L 326.927,556.39 L 326.402,556.814 L 325.954,557.282 L 325.525,557.728 L 325.117,558.218 L 324.805,558.697 L 324.513,559.187 L 324.299,559.677 L 324.124,560.177 L 323.968,560.689 L 323.89,561.189 L 323.89,561.701 L 323.89,561.701 L 323.89,562.202 L 323.968,562.724 L 324.124,563.214 L 324.299,563.714 L 324.513,564.226 L 324.805,564.705 L 325.117,565.184 L 325.525,565.652 L 325.954,566.13 L 326.402,566.566 L 326.927,567.012 L 327.492,567.436 L 328.096,567.85 L 328.757,568.242 L 329.439,568.612 L 330.159,568.982 L 330.938,569.33 L 331.697,569.635 L 332.535,569.94 L 333.391,570.223 L 334.287,570.484 L 335.202,570.723 L 336.117,570.93 L 337.052,571.126 L 338.025,571.278 L 339.038,571.431 L 340.011,571.539 L 341.004,571.637 L 342.017,571.681 L 343.048,571.724 L 344.08,571.746 L 344.08,571.746 L 345.112,571.724 L 346.144,571.681 L 347.137,571.637 L 348.169,571.539 L 349.143,571.431 L 350.136,571.278 L 351.09,571.126 L 352.063,570.93 L 352.978,570.723 L 353.893,570.484 L 354.789,570.223 L 355.646,569.94 L 356.444,569.635 L 357.242,569.33 L 358.021,568.982 L 358.741,568.612 L 359.423,568.242 L 360.085,567.85 L 360.688,567.436 L 361.233,567.012 L 361.74,566.566 L 362.226,566.13 L 362.655,565.652 L 363.025,565.184 L 363.375,564.705 L 363.667,564.226 L 363.862,563.714 L 364.057,563.214 L 364.212,562.724 L 364.251,562.202 L 364.29,561.701z"/>
    <path style="fill: #ffffff" d="M 396.922 571.376 L 396.863,570.832 L 396.747,570.277 L 396.571,569.733 L 396.279,569.189 L 395.948,568.655 L 395.52,568.133 L 395.014,567.611 L 394.43,567.088 L 393.787,566.598 L 393.086,566.109 L 392.327,565.641 L 391.47,565.173 L 390.536,564.716 L 389.562,564.291 L 388.55,563.888 L 387.459,563.497 L 386.311,563.137 L 385.104,562.789 L 383.877,562.463 L 382.592,562.147 L 381.249,561.875 L 379.866,561.625 L 378.484,561.385 L 377.063,561.178 L 375.602,561.015 L 374.103,560.852 L 372.623,560.721 L 371.105,560.623 L 369.567,560.558 L 368.009,560.515 L 366.471,560.504 L 366.471,560.504 L 364.952,560.515 L 363.395,560.558 L 361.856,560.623 L 360.338,560.721 L 358.858,560.852 L 357.359,561.015 L 355.899,561.178 L 354.477,561.385 L 353.095,561.625 L 351.713,561.875 L 350.369,562.147 L 349.084,562.463 L 347.858,562.789 L 346.631,563.137 L 345.502,563.497 L 344.411,563.888 L 343.379,564.291 L 342.406,564.716 L 341.491,565.173 L 340.634,565.641 L 339.875,566.109 L 339.154,566.598 L 338.492,567.088 L 337.928,567.611 L 337.441,568.133 L 337.032,568.655 L 336.662,569.189 L 336.409,569.733 L 336.195,570.277 L 336.078,570.832 L 336.059,571.376 L 336.059,571.376 L 336.078,571.942 L 336.195,572.486 L 336.409,573.03 L 336.662,573.575 L 337.032,574.119 L 337.441,574.63 L 337.928,575.153 L 338.492,575.686 L 339.154,576.165 L 339.875,576.655 L 340.634,577.144 L 341.491,577.591 L 342.406,578.037 L 343.379,578.483 L 344.411,578.886 L 345.502,579.267 L 346.631,579.637 L 347.858,579.974 L 349.084,580.311 L 350.369,580.616 L 351.713,580.899 L 353.095,581.16 L 354.477,581.378 L 355.899,581.585 L 357.359,581.77 L 358.858,581.911 L 360.338,582.042 L 361.856,582.151 L 363.395,582.216 L 364.952,582.26 L 366.471,582.26 L 366.471,582.26 L 368.009,582.26 L 369.567,582.216 L 371.105,582.151 L 372.623,582.042 L 374.103,581.911 L 375.602,581.77 L 377.063,581.585 L 378.484,581.378 L 379.866,581.16 L 381.249,580.899 L 382.592,580.616 L 383.877,580.311 L 385.104,579.974 L 386.311,579.637 L 387.459,579.267 L 388.55,578.886 L 389.562,578.483 L 390.536,578.037 L 391.47,577.591 L 392.327,577.144 L 393.086,576.655 L 393.787,576.165 L 394.43,575.686 L 395.014,575.153 L 395.52,574.63 L 395.948,574.119 L 396.279,573.575 L 396.571,573.03 L 396.747,572.486 L 396.863,571.942 L 396.922,571.376z"/>
    <path style="fill: #ffffff" d="M 469.973 576.992 L 469.895,576.339 L 469.74,575.686 L 469.448,575.044 L 469.019,574.402 L 468.513,573.76 L 467.89,573.139 L 467.131,572.519 L 466.293,571.909 L 465.339,571.3 L 464.249,570.723 L 463.081,570.179 L 461.815,569.613 L 460.472,569.091 L 459.012,568.59 L 457.435,568.1 L 455.838,567.632 L 454.125,567.208 L 452.333,566.794 L 450.503,566.402 L 448.556,566.043 L 446.59,565.717 L 444.545,565.401 L 442.462,565.129 L 440.301,564.901 L 438.12,564.683 L 435.901,564.498 L 433.681,564.356 L 431.403,564.226 L 429.125,564.161 L 426.828,564.095 L 424.511,564.095 L 424.511,564.095 L 422.233,564.095 L 419.935,564.161 L 417.657,564.226 L 415.379,564.356 L 413.14,564.498 L 410.94,564.683 L 408.76,564.901 L 406.598,565.129 L 404.515,565.401 L 402.471,565.717 L 400.485,566.043 L 398.557,566.402 L 396.708,566.794 L 394.936,567.208 L 393.223,567.632 L 391.607,568.1 L 390.049,568.59 L 388.589,569.091 L 387.226,569.613 L 385.96,570.179 L 384.792,570.723 L 383.721,571.3 L 382.787,571.909 L 381.93,572.519 L 381.19,573.139 L 380.548,573.76 L 380.041,574.402 L 379.613,575.044 L 379.321,575.686 L 379.146,576.339 L 379.087,576.992 L 379.087,576.992 L 379.146,577.656 L 379.321,578.309 L 379.613,578.951 L 380.041,579.604 L 380.548,580.246 L 381.19,580.856 L 381.93,581.476 L 382.787,582.085 L 383.721,582.695 L 384.792,583.272 L 385.96,583.827 L 387.226,584.371 L 388.589,584.904 L 390.049,585.416 L 391.607,585.895 L 393.223,586.363 L 394.936,586.809 L 396.708,587.222 L 398.557,587.592 L 400.485,587.962 L 402.471,588.3 L 404.515,588.583 L 406.598,588.866 L 408.76,589.116 L 410.94,589.334 L 413.14,589.497 L 415.379,589.638 L 417.657,589.769 L 419.935,589.845 L 422.233,589.911 L 424.511,589.911 L 424.511,589.911 L 426.828,589.911 L 429.125,589.845 L 431.403,589.769 L 433.681,589.638 L 435.901,589.497 L 438.12,589.334 L 440.301,589.116 L 442.462,588.866 L 444.545,588.583 L 446.59,588.3 L 448.556,587.962 L 450.503,587.592 L 452.333,587.222 L 454.125,586.809 L 455.838,586.363 L 457.435,585.895 L 459.012,585.416 L 460.472,584.904 L 461.815,584.371 L 463.081,583.827 L 464.249,583.272 L 465.339,582.695 L 466.293,582.085 L 467.131,581.476 L 467.89,580.856 L 468.513,580.246 L 469.019,579.604 L 469.448,578.951 L 469.74,578.309 L 469.895,577.656 L 469.973,576.992z"/>
    <path style="fill: #ffffff" d="M 495.187 547.226 L 495.167,546.747 L 495.051,546.257 L 494.875,545.757 L 494.583,545.278 L 494.272,544.788 L 493.843,544.32 L 493.376,543.852 L 492.831,543.406 L 492.227,542.96 L 491.527,542.524 L 490.787,542.111 L 489.969,541.697 L 489.093,541.305 L 488.158,540.914 L 487.165,540.554 L 486.133,540.217 L 485.043,539.869 L 483.894,539.564 L 482.707,539.27 L 481.461,538.998 L 480.195,538.748 L 478.891,538.53 L 477.547,538.323 L 476.184,538.138 L 474.763,537.975 L 473.381,537.845 L 471.92,537.747 L 470.46,537.649 L 469,537.583 L 467.54,537.562 L 466.06,537.551 L 466.06,537.551 L 464.58,537.562 L 463.12,537.583 L 461.621,537.649 L 460.199,537.747 L 458.759,537.845 L 457.318,537.975 L 455.955,538.138 L 454.553,538.323 L 453.21,538.53 L 451.925,538.748 L 450.64,538.998 L 449.413,539.27 L 448.206,539.564 L 447.096,539.869 L 445.986,540.217 L 444.915,540.554 L 443.942,540.914 L 443.007,541.305 L 442.131,541.697 L 441.333,542.111 L 440.574,542.524 L 439.912,542.96 L 439.289,543.406 L 438.724,543.852 L 438.257,544.32 L 437.848,544.788 L 437.497,545.278 L 437.244,545.757 L 437.05,546.257 L 436.952,546.747 L 436.913,547.226 L 436.913,547.226 L 436.952,547.705 L 437.05,548.195 L 437.244,548.695 L 437.497,549.174 L 437.848,549.664 L 438.257,550.132 L 438.724,550.6 L 439.289,551.035 L 439.912,551.503 L 440.574,551.917 L 441.333,552.341 L 442.131,552.755 L 443.007,553.147 L 443.942,553.538 L 444.915,553.898 L 445.986,554.246 L 447.096,554.572 L 448.206,554.888 L 449.413,555.182 L 450.64,555.454 L 451.925,555.704 L 453.21,555.922 L 454.553,556.129 L 455.955,556.314 L 457.318,556.477 L 458.759,556.607 L 460.199,556.705 L 461.621,556.803 L 463.12,556.869 L 464.58,556.89 L 466.06,556.901 L 466.06,556.901 L 467.54,556.89 L 469,556.869 L 470.46,556.803 L 471.92,556.705 L 473.381,556.607 L 474.763,556.477 L 476.184,556.314 L 477.547,556.129 L 478.891,555.922 L 480.195,555.704 L 481.461,555.454 L 482.707,555.182 L 483.894,554.888 L 485.043,554.572 L 486.133,554.246 L 487.165,553.898 L 488.158,553.538 L 489.093,553.147 L 489.969,552.755 L 490.787,552.341 L 491.527,551.917 L 492.227,551.503 L 492.831,551.035 L 493.376,550.6 L 493.843,550.132 L 494.272,549.664 L 494.583,549.174 L 494.875,548.695 L 495.051,548.195 L 495.167,547.705 L 495.187,547.226z"/>
    <path style="fill: #ffffff" d="M 503.442 559.666 L 503.423,559.187 L 503.325,558.697 L 503.111,558.196 L 502.858,557.718 L 502.547,557.228 L 502.118,556.76 L 501.651,556.292 L 501.125,555.857 L 500.522,555.399 L 499.821,554.975 L 499.061,554.551 L 498.283,554.148 L 497.406,553.745 L 496.491,553.353 L 495.518,553.005 L 494.447,552.657 L 493.376,552.319 L 492.247,552.015 L 491.059,551.721 L 489.833,551.449 L 488.587,551.198 L 487.263,550.97 L 485.939,550.763 L 484.595,550.6 L 483.213,550.426 L 481.792,550.295 L 480.37,550.175 L 478.949,550.088 L 477.489,550.034 L 476.028,550.001 L 474.568,549.99 L 474.568,549.99 L 473.069,550.001 L 471.609,550.034 L 470.187,550.088 L 468.747,550.175 L 467.306,550.295 L 465.885,550.426 L 464.502,550.6 L 463.159,550.763 L 461.815,550.97 L 460.511,551.198 L 459.265,551.449 L 458.058,551.721 L 456.851,552.015 L 455.721,552.319 L 454.65,552.657 L 453.58,553.005 L 452.606,553.353 L 451.71,553.745 L 450.834,554.148 L 450.017,554.551 L 449.296,554.975 L 448.576,555.399 L 447.972,555.857 L 447.447,556.292 L 446.979,556.76 L 446.57,557.228 L 446.239,557.718 L 445.986,558.196 L 445.772,558.697 L 445.675,559.187 L 445.636,559.666 L 445.636,559.666 L 445.675,560.145 L 445.772,560.634 L 445.986,561.124 L 446.239,561.603 L 446.57,562.104 L 446.979,562.572 L 447.447,563.029 L 447.972,563.475 L 448.576,563.932 L 449.296,564.367 L 450.017,564.781 L 450.834,565.184 L 451.71,565.586 L 452.606,565.978 L 453.58,566.337 L 454.65,566.675 L 455.721,567.012 L 456.851,567.306 L 458.058,567.611 L 459.265,567.883 L 460.511,568.133 L 461.815,568.351 L 463.159,568.547 L 464.502,568.732 L 465.885,568.895 L 467.306,569.025 L 468.747,569.156 L 470.187,569.232 L 471.609,569.297 L 473.069,569.33 L 474.568,569.341 L 474.568,569.341 L 476.028,569.33 L 477.489,569.297 L 478.949,569.232 L 480.37,569.156 L 481.792,569.025 L 483.213,568.895 L 484.595,568.732 L 485.939,568.547 L 487.263,568.351 L 488.587,568.133 L 489.833,567.883 L 491.059,567.611 L 492.247,567.306 L 493.376,567.012 L 494.447,566.675 L 495.518,566.337 L 496.491,565.978 L 497.406,565.586 L 498.283,565.184 L 499.061,564.781 L 499.821,564.367 L 500.522,563.932 L 501.125,563.475 L 501.651,563.029 L 502.118,562.572 L 502.547,562.104 L 502.858,561.603 L 503.111,561.124 L 503.325,560.634 L 503.423,560.145 L 503.442,559.666z"/>
    <path style="fill: #ffffff" d="M 497.815 569.95 L 497.757,569.156 L 497.679,568.34 L 497.484,567.556 L 497.231,566.751 L 496.881,565.956 L 496.491,565.184 L 496.024,564.433 L 495.459,563.682 L 494.895,562.952 L 494.194,562.245 L 493.474,561.538 L 492.656,560.874 L 491.799,560.221 L 490.904,559.6 L 489.93,558.991 L 488.859,558.436 L 487.788,557.892 L 486.679,557.369 L 485.51,556.901 L 484.303,556.466 L 483.018,556.063 L 481.753,555.682 L 480.448,555.345 L 479.085,555.04 L 477.683,554.779 L 476.301,554.572 L 474.86,554.376 L 473.458,554.235 L 472.018,554.148 L 470.577,554.083 L 469.117,554.05 L 469.117,554.05 L 467.656,554.083 L 466.196,554.148 L 464.755,554.235 L 463.334,554.376 L 461.913,554.572 L 460.511,554.779 L 459.148,555.04 L 457.785,555.345 L 456.461,555.682 L 455.176,556.063 L 453.911,556.466 L 452.703,556.901 L 451.516,557.369 L 450.406,557.892 L 449.335,558.436 L 448.303,558.991 L 447.33,559.6 L 446.395,560.221 L 445.538,560.874 L 444.76,561.538 L 444.02,562.245 L 443.319,562.952 L 442.735,563.682 L 442.19,564.433 L 441.742,565.184 L 441.333,565.956 L 441.002,566.751 L 440.749,567.556 L 440.535,568.34 L 440.437,569.156 L 440.398,569.95 L 440.398,569.95 L 440.437,570.756 L 440.535,571.572 L 440.749,572.356 L 441.002,573.15 L 441.333,573.934 L 441.742,574.707 L 442.19,575.479 L 442.735,576.23 L 443.319,576.948 L 444.02,577.667 L 444.76,578.374 L 445.538,579.027 L 446.395,579.68 L 447.33,580.311 L 448.303,580.899 L 449.335,581.476 L 450.406,582.02 L 451.516,582.532 L 452.703,583 L 453.911,583.446 L 455.176,583.849 L 456.461,584.229 L 457.785,584.567 L 459.148,584.872 L 460.511,585.122 L 461.913,585.35 L 463.334,585.525 L 464.755,585.666 L 466.196,585.764 L 467.656,585.829 L 469.117,585.862 L 469.117,585.862 L 470.577,585.829 L 472.018,585.764 L 473.458,585.666 L 474.86,585.525 L 476.301,585.35 L 477.683,585.122 L 479.085,584.872 L 480.448,584.567 L 481.753,584.229 L 483.018,583.849 L 484.303,583.446 L 485.51,583 L 486.679,582.532 L 487.788,582.02 L 488.859,581.476 L 489.93,580.899 L 490.904,580.311 L 491.799,579.68 L 492.656,579.027 L 493.474,578.374 L 494.194,577.667 L 494.895,576.948 L 495.459,576.23 L 496.024,575.479 L 496.491,574.707 L 496.881,573.934 L 497.231,573.15 L 497.484,572.356 L 497.679,571.572 L 497.757,570.756 L 497.815,569.95z"/>
    <path style="fill: #ffffff" d="M 473.011 560.373 L 472.933,559.579 L 472.738,558.773 L 472.329,557.968 L 471.803,557.173 L 471.161,556.39 L 470.343,555.606 L 469.37,554.855 L 468.279,554.093 L 467.053,553.364 L 465.709,552.668 L 464.171,551.971 L 462.555,551.296 L 460.822,550.643 L 458.953,550.012 L 456.967,549.414 L 454.884,548.848 L 452.703,548.303 L 450.406,547.814 L 448.05,547.313 L 445.558,546.878 L 443.007,546.475 L 440.398,546.094 L 437.731,545.757 L 434.966,545.463 L 432.163,545.202 L 429.339,544.973 L 426.458,544.788 L 423.576,544.647 L 420.656,544.56 L 417.677,544.494 L 414.737,544.483 L 414.737,544.483 L 411.797,544.494 L 408.857,544.56 L 405.937,544.647 L 403.016,544.788 L 400.134,544.973 L 397.311,545.202 L 394.527,545.463 L 391.762,545.757 L 389.076,546.094 L 386.486,546.475 L 383.935,546.878 L 381.443,547.313 L 379.068,547.814 L 376.809,548.303 L 374.59,548.848 L 372.507,549.414 L 370.54,550.012 L 368.671,550.643 L 366.899,551.296 L 365.283,551.971 L 363.803,552.668 L 362.421,553.364 L 361.194,554.093 L 360.085,554.855 L 359.131,555.606 L 358.313,556.39 L 357.651,557.173 L 357.125,557.968 L 356.755,558.773 L 356.561,559.579 L 356.463,560.373 L 356.463,560.373 L 356.561,561.178 L 356.755,561.984 L 357.125,562.789 L 357.651,563.573 L 358.313,564.367 L 359.131,565.129 L 360.085,565.891 L 361.194,566.653 L 362.421,567.382 L 363.803,568.1 L 365.283,568.786 L 366.899,569.461 L 368.671,570.114 L 370.54,570.723 L 372.507,571.333 L 374.59,571.909 L 376.809,572.454 L 379.068,572.943 L 381.443,573.444 L 383.935,573.879 L 386.486,574.271 L 389.076,574.663 L 391.762,574.989 L 394.527,575.283 L 397.311,575.555 L 400.134,575.762 L 403.016,575.958 L 405.937,576.1 L 408.857,576.198 L 411.797,576.263 L 414.737,576.274 L 414.737,576.274 L 417.677,576.263 L 420.656,576.198 L 423.576,576.1 L 426.458,575.958 L 429.339,575.762 L 432.163,575.555 L 434.966,575.283 L 437.731,574.989 L 440.398,574.663 L 443.007,574.271 L 445.558,573.879 L 448.05,573.444 L 450.406,572.943 L 452.703,572.454 L 454.884,571.909 L 456.967,571.333 L 458.953,570.723 L 460.822,570.114 L 462.555,569.461 L 464.171,568.786 L 465.709,568.1 L 467.053,567.382 L 468.279,566.653 L 469.37,565.891 L 470.343,565.129 L 471.161,564.367 L 471.803,563.573 L 472.329,562.789 L 472.738,561.984 L 472.933,561.178 L 473.011,560.373z"/>
    <path style="fill: #ffffff" d="M 424.745 542.579 L 463.334,539.825 L 462.828,539.216 L 462.263,538.628 L 461.582,538.04 L 460.803,537.453 L 459.927,536.876 L 458.953,536.332 L 457.921,535.798 L 456.792,535.276 L 455.585,534.775 L 454.28,534.297 L 452.918,533.829 L 451.477,533.415 L 449.978,533.001 L 448.401,532.599 L 446.746,532.25 L 445.052,531.913 L 443.319,531.587 L 441.528,531.315 L 439.678,531.064 L 437.828,530.836 L 435.901,530.64 L 433.973,530.487 L 432.007,530.346 L 430.06,530.248 L 428.074,530.194 L 426.049,530.15 L 424.063,530.15 L 422.038,530.161 L 420.072,530.226 L 418.105,530.313 L 416.119,530.433 L 414.172,530.607 L 412.284,530.77 L 410.356,530.988 L 408.526,531.238 L 406.715,531.51 L 404.982,531.804 L 403.269,532.131 L 401.595,532.479 L 399.998,532.871 L 398.499,533.274 L 397.039,533.698 L 395.617,534.155 L 394.313,534.634 L 393.067,535.124 L 391.899,535.646 L 390.847,536.179 L 389.874,536.724 L 388.939,537.279 L 388.141,537.845 L 387.421,538.443 L 386.817,539.042 L 386.311,539.651 L 385.882,540.272 L 424.745,542.579z"/>
    <path style="fill: none; fill-opacity:0; stroke-width: 0.02; stroke: #6c8f93" d="M 463.315 539.804 L 462.828,539.194 L 462.263,538.595 L 461.562,537.997 L 460.764,537.431 L 459.888,536.865 L 458.934,536.321 L 457.882,535.788 L 456.734,535.254 L 455.527,534.775 L 454.261,534.297 L 452.859,533.818 L 451.438,533.393 L 449.919,532.969 L 448.342,532.599 L 446.726,532.218 L 445.032,531.902 L 443.299,531.587 L 441.508,531.304 L 439.659,531.042 L 437.809,530.825 L 435.901,530.64 L 433.954,530.487 L 432.007,530.346 L 430.021,530.248 L 428.015,530.194 L 426.049,530.15 L 424.024,530.15 L 422.038,530.161 L 420.091,530.226 L 418.066,530.313 L 416.119,530.433 L 414.172,530.585 L 412.284,530.77 L 410.376,530.988 L 408.526,531.238 L 406.735,531.51 L 405.002,531.793 L 403.289,532.12 L 401.614,532.479 L 400.037,532.871 L 398.518,533.274 L 397.078,533.687 L 395.656,534.144 L 394.332,534.601 L 393.086,535.113 L 391.957,535.635 L 390.867,536.147 L 389.874,536.691 L 388.998,537.268 L 388.16,537.834 L 387.459,538.41 L 386.817,539.009 L 386.311,539.619 L 385.902,540.228"/>
    <path style="fill: #ffffff" d="M 372.331 549.022 L 391.762,539.499 L 390.594,539.118 L 389.329,538.748 L 388.063,538.4 L 386.739,538.095 L 385.357,537.812 L 383.955,537.551 L 382.534,537.322 L 381.073,537.137 L 379.613,536.952 L 378.114,536.822 L 376.595,536.724 L 375.077,536.636 L 373.538,536.604 L 372.02,536.593 L 370.501,536.604 L 368.963,536.669 L 367.464,536.745 L 365.945,536.876 L 364.465,537.017 L 363.005,537.213 L 361.545,537.42 L 360.143,537.649 L 358.761,537.91 L 357.417,538.204 L 356.093,538.53 L 354.847,538.9 L 353.601,539.27 L 352.433,539.673 L 351.323,540.097 L 350.233,540.554 L 349.22,541.022 L 348.247,541.501 L 347.371,542.035 L 346.534,542.546 L 345.794,543.09 L 345.073,543.667 L 344.45,544.233 L 343.905,544.821 L 343.418,545.408 L 343.01,546.018 L 342.679,546.627 L 342.445,547.27 L 342.25,547.89 L 342.133,548.51 L 342.133,549.141 L 342.153,549.762 L 342.309,550.404 L 342.503,551.024 L 372.331,549.022z"/>
    <path style="fill: none; fill-opacity:0; stroke-width: 0.02; stroke: #6c8f93" d="M 391.684 539.466 L 390.477,539.074 L 389.231,538.715 L 387.946,538.378 L 386.603,538.062 L 385.22,537.779 L 383.838,537.54 L 382.417,537.3 L 380.957,537.104 L 379.496,536.952 L 377.997,536.811 L 376.478,536.702 L 374.96,536.636 L 373.422,536.604 L 371.903,536.593 L 370.365,536.615 L 368.866,536.68 L 367.328,536.756 L 365.828,536.876 L 364.349,537.028 L 362.888,537.224 L 361.448,537.42 L 360.046,537.681 L 358.683,537.932 L 357.339,538.236 L 356.015,538.574 L 354.75,538.922 L 353.523,539.292 L 352.355,539.684 L 351.265,540.13 L 350.174,540.576 L 349.162,541.044 L 348.227,541.534 L 347.332,542.046 L 346.514,542.579 L 345.735,543.134 L 345.054,543.678 L 344.411,544.255 L 343.905,544.843 L 343.418,545.452 L 342.99,546.051 L 342.679,546.671 L 342.445,547.291 L 342.25,547.912 L 342.133,548.521 L 342.133,549.174 L 342.192,549.794 L 342.309,550.415 L 342.523,551.035"/>
    <path style="fill: #ffffff" d="M 366.899 571.267 L 335.63,570.93 L 335.63,571.485 L 335.689,572.051 L 335.825,572.628 L 336.059,573.172 L 336.37,573.727 L 336.74,574.271 L 337.207,574.815 L 337.753,575.349 L 338.356,575.871 L 339.038,576.383 L 339.816,576.883 L 340.615,577.362 L 341.53,577.83 L 342.445,578.276 L 343.477,578.712 L 344.567,579.125 L 345.657,579.506 L 346.845,579.887 L 348.091,580.246 L 349.376,580.562 L 350.72,580.866 L 352.063,581.16 L 353.465,581.4 L 354.906,581.639 L 356.385,581.846 L 357.885,582.02 L 359.384,582.162 L 360.941,582.292 L 362.48,582.368 L 364.037,582.455 L 365.634,582.488 L 367.211,582.488 L 368.788,582.466 L 370.326,582.423 L 371.884,582.358 L 373.461,582.249 L 374.999,582.118 L 376.478,581.944 L 377.978,581.77 L 379.438,581.552 L 380.859,581.313 L 382.242,581.041 L 383.585,580.758 L 384.909,580.453 L 386.194,580.116 L 387.401,579.746 L 366.899,571.267z"/>
    <path style="fill: none; fill-opacity:0; stroke-width: 0.02; stroke: #6c8f93" d="M 335.63 570.93 L 335.591,571.485 L 335.689,572.051 L 335.825,572.595 L 336.059,573.172 L 336.351,573.716 L 336.779,574.271 L 337.207,574.815 L 337.753,575.349 L 338.356,575.86 L 339.038,576.372 L 339.778,576.872 L 340.576,577.351 L 341.471,577.808 L 342.445,578.276 L 343.418,578.679 L 344.47,579.103 L 345.619,579.495 L 346.787,579.876 L 348.033,580.224 L 349.318,580.551 L 350.622,580.856 L 351.985,581.128 L 353.387,581.4 L 354.847,581.617 L 356.308,581.824 L 357.768,582.009 L 359.286,582.162 L 360.825,582.281 L 362.363,582.368 L 363.94,582.434 L 365.497,582.488 L 367.094,582.488 L 368.632,582.488 L 370.209,582.423 L 371.767,582.358 L 373.305,582.26 L 374.823,582.118 L 376.342,581.977 L 377.861,581.781 L 379.302,581.574 L 380.723,581.334 L 382.105,581.073 L 383.449,580.79 L 384.792,580.486 L 386.058,580.148 L 387.245,579.8"/>
    <path style="fill: #ffffff" d="M 466.488 546.997 L 494.058,550.143 L 494.486,549.664 L 494.875,549.196 L 495.167,548.717 L 495.401,548.238 L 495.537,547.748 L 495.615,547.237 L 495.615,546.758 L 495.537,546.268 L 495.401,545.789 L 495.167,545.3 L 494.875,544.821 L 494.486,544.342 L 494.077,543.874 L 493.551,543.406 L 492.967,542.949 L 492.325,542.514 L 491.604,542.078 L 490.806,541.665 L 489.949,541.262 L 489.073,540.881 L 488.1,540.5 L 487.087,540.141 L 486.017,539.804 L 484.868,539.488 L 483.719,539.194 L 482.512,538.922 L 481.246,538.65 L 479.961,538.4 L 478.618,538.193 L 477.275,537.997 L 475.853,537.834 L 474.471,537.692 L 473.011,537.562 L 471.57,537.475 L 470.11,537.387 L 468.63,537.355 L 467.17,537.311 L 465.709,537.322 L 464.23,537.355 L 462.75,537.409 L 461.29,537.475 L 459.849,537.572 L 458.408,537.692 L 456.987,537.845 L 466.488,546.997z"/>
    <path style="fill: none; fill-opacity:0; stroke-width: 0.02; stroke: #6c8f93" d="M 491.332 551.917 L 493.999,550.165 L 494.447,549.686 L 494.817,549.218 L 495.167,548.739 L 495.382,548.249 L 495.537,547.77 L 495.615,547.291 L 495.635,546.791 L 495.537,546.29 L 495.421,545.8 L 495.167,545.311 L 494.895,544.843 L 494.525,544.364 L 494.097,543.896 L 493.59,543.428 L 492.987,542.981 L 492.344,542.535 L 491.643,542.111 L 490.865,541.697 L 490.027,541.295 L 489.093,540.892 L 488.158,540.533 L 487.146,540.163 L 486.055,539.825 L 484.946,539.499 L 483.778,539.194 L 482.551,538.922 L 481.305,538.661 L 480.039,538.432 L 478.715,538.204 L 477.352,538.019 L 475.951,537.834 L 474.568,537.692 L 473.127,537.562 L 471.687,537.475 L 470.207,537.409 L 468.747,537.355 L 467.267,537.311 L 465.768,537.311 L 464.308,537.355 L 462.828,537.409 L 461.368,537.475 L 459.927,537.562 L 458.505,537.692 L 457.084,537.834"/>
    <path style="fill: #ffffff" d="M 470.382 559.796 L 501.378,563.758 L 502.001,563.235 L 502.547,562.724 L 502.994,562.191 L 503.345,561.646 L 503.637,561.102 L 503.793,560.547 L 503.851,559.992 L 503.832,559.448 L 503.734,558.882 L 503.559,558.327 L 503.247,557.783 L 502.878,557.25 L 502.43,556.727 L 501.865,556.194 L 501.223,555.682 L 500.483,555.182 L 499.684,554.692 L 498.789,554.213 L 497.815,553.756 L 470.382,559.796z"/>
    <path style="fill: none; fill-opacity:0; stroke-width: 0.02; stroke: #6c8f93" d="M 497.309 565.575 L 501.378,563.801 L 501.982,563.279 L 502.547,562.735 L 502.975,562.202 L 503.345,561.646 L 503.637,561.102 L 503.812,560.558 L 503.89,559.992 L 503.89,559.448 L 503.734,558.871 L 503.559,558.327 L 503.286,557.772 L 502.878,557.228 L 502.391,556.695 L 501.865,556.161 L 501.203,555.65 L 500.444,555.138 L 499.587,554.648 L 498.711,554.17 L 497.737,553.702 L 491.332,551.917"/>
    <path style="fill: #ffffff" d="M 469.097 570.31 L 459.304,585.416 L 460.745,585.655 L 462.185,585.862 L 463.665,586.036 L 465.184,586.167 L 466.683,586.265 L 468.163,586.297 L 469.662,586.308 L 471.18,586.265 L 472.66,586.199 L 474.159,586.069 L 475.62,585.905 L 477.119,585.72 L 478.54,585.481 L 479.961,585.187 L 481.324,584.872 L 482.707,584.512 L 483.992,584.121 L 485.296,583.685 L 486.542,583.217 L 487.73,582.728 L 488.859,582.194 L 489.949,581.639 L 491.001,581.041 L 491.994,580.431 L 492.889,579.778 L 493.785,579.125 L 494.564,578.418 L 495.304,577.71 L 495.946,576.981 L 496.55,576.23 L 497.095,575.457 L 497.504,574.696 L 497.893,573.89 L 498.205,573.085 L 498.438,572.29 L 498.575,571.474 L 498.653,570.658 L 498.653,569.842 L 498.555,569.025 L 498.419,568.22 L 498.166,567.426 L 497.854,566.609 L 497.484,565.837 L 469.097,570.31z"/>
    <path style="fill: none; fill-opacity:0; stroke-width: 0.02; stroke: #6c8f93" d="M 459.401 585.427 L 460.842,585.666 L 462.302,585.895 L 463.762,586.058 L 465.262,586.178 L 466.741,586.265 L 468.26,586.308 L 469.759,586.33 L 471.239,586.265 L 472.757,586.199 L 474.257,586.069 L 475.717,585.905 L 477.158,585.699 L 478.618,585.448 L 480.059,585.176 L 481.422,584.85 L 482.746,584.502 L 484.089,584.099 L 485.355,583.674 L 486.601,583.206 L 487.788,582.695 L 488.937,582.162 L 490.027,581.607 L 491.04,581.03 L 492.033,580.388 L 492.967,579.746 L 493.824,579.092 L 494.583,578.374 L 495.323,577.667 L 495.985,576.948 L 496.589,576.198 L 497.114,575.414 L 497.562,574.63 L 497.893,573.847 L 498.205,573.063 L 498.438,572.247 L 498.575,571.441 L 498.653,570.625 L 498.653,569.798 L 498.555,568.993 L 498.38,568.176 L 498.166,567.36 L 497.835,566.566 L 497.465,565.793"/>
    <path style="fill: #ffffff" d="M 345.171 561.701 L 343.672,551.449 L 342.581,551.503 L 341.53,551.568 L 340.459,551.688 L 339.408,551.797 L 338.356,551.971 L 337.344,552.134 L 336.351,552.341 L 335.377,552.581 L 334.423,552.82 L 333.489,553.092 L 332.613,553.408 L 331.756,553.712 L 330.938,554.072 L 330.14,554.431 L 329.381,554.801 L 328.68,555.193 L 328.018,555.606 L 327.414,556.042 L 326.83,556.477 L 326.285,556.945 L 325.837,557.424 L 325.409,557.903 L 325,558.381 L 324.688,558.882 L 324.435,559.394 L 324.202,559.894 L 324.065,560.417 L 323.948,560.95 L 323.89,561.461 L 323.89,561.984 L 323.948,562.517 L 324.065,563.029 L 324.202,563.551 L 324.435,564.052 L 324.727,564.563 L 325.039,565.064 L 325.428,565.543 L 325.856,566.043 L 326.343,566.5 L 326.869,566.958 L 327.472,567.415 L 328.076,567.828 L 328.757,568.242 L 329.478,568.644 L 330.218,569.025 L 330.997,569.363 L 331.853,569.7 L 332.71,570.038 L 333.586,570.321 L 334.521,570.593 L 335.455,570.854 L 345.171,561.701z"/>
    <path style="fill: none; fill-opacity:0; stroke-width: 0.02; stroke: #6c8f93" d="M 343.71 551.449 L 342.64,551.503 L 341.588,551.568 L 340.517,551.666 L 339.485,551.797 L 338.492,551.938 L 337.461,552.113 L 336.468,552.319 L 335.514,552.537 L 334.598,552.787 L 333.683,553.059 L 332.768,553.342 L 331.931,553.647 L 331.113,553.974 L 330.335,554.322 L 329.595,554.703 L 328.874,555.073 L 328.193,555.476 L 327.589,555.911 L 326.986,556.335 L 326.499,556.771 L 326.012,557.228 L 325.545,557.696 L 325.156,558.175 L 324.825,558.654 L 324.513,559.154 L 324.299,559.666 L 324.085,560.166 L 323.968,560.678 L 323.89,561.189 L 323.89,561.712 L 323.89,562.212 L 324.007,562.735 L 324.124,563.257 L 324.299,563.747 L 324.552,564.248 L 324.825,564.748 L 325.156,565.238 L 325.545,565.717 L 326.012,566.185 L 326.499,566.653 L 327.044,567.088 L 327.609,567.513 L 328.232,567.948 L 328.874,568.34 L 329.595,568.721 L 330.354,569.091 L 331.133,569.428 L 331.97,569.765 L 332.827,570.07 L 333.683,570.353 L 334.598,570.625 L 335.572,570.886"/>
    <path style="fill: #ffffff" d="M 424.102 578.2 L 379.749,579.375 L 380.041,579.974 L 380.411,580.562 L 380.918,581.16 L 381.521,581.737 L 382.242,582.314 L 383.079,582.869 L 383.994,583.413 L 385.026,583.946 L 386.155,584.469 L 387.401,584.98 L 388.706,585.448 L 390.127,585.927 L 391.607,586.373 L 393.184,586.809 L 394.858,587.211 L 396.571,587.592 L 398.382,587.941 L 400.232,588.278 L 402.159,588.583 L 404.126,588.866 L 406.17,589.127 L 408.253,589.366 L 410.356,589.562 L 412.498,589.736 L 414.698,589.878 L 416.879,589.987 L 419.118,590.074 L 421.318,590.117 L 423.596,590.15 L 425.815,590.139 L 428.074,590.106 L 430.293,590.019 L 432.494,589.932 L 434.694,589.802 L 436.855,589.638 L 438.977,589.464 L 441.06,589.236 L 443.124,588.996 L 445.13,588.724 L 447.096,588.441 L 448.965,588.104 L 450.795,587.767 L 452.567,587.386 L 454.261,586.983 L 455.858,586.569 L 457.415,586.134 L 458.856,585.666 L 460.219,585.209 L 461.465,584.708 L 462.653,584.197 L 463.743,583.653 L 464.716,583.13 L 465.593,582.564 L 466.332,582.009 L 424.102,578.2z"/>
    <path style="fill: none; fill-opacity:0; stroke-width: 0.02; stroke: #6c8f93" d="M 379.749 579.397 L 380.041,579.985 L 380.431,580.584 L 380.918,581.171 L 381.56,581.748 L 382.242,582.325 L 383.079,582.869 L 384.013,583.413 L 385.026,583.957 L 386.194,584.469 L 387.401,584.98 L 388.706,585.448 L 390.127,585.927 L 391.607,586.373 L 393.184,586.809 L 394.858,587.211 L 396.591,587.592 L 398.343,587.941 L 400.232,588.278 L 402.12,588.583 L 404.106,588.866 L 406.112,589.127 L 408.195,589.366 L 410.317,589.562 L 412.459,589.715 L 414.64,589.878 L 416.82,589.976 L 419.04,590.074 L 421.298,590.106 L 423.518,590.15 L 425.757,590.139 L 427.996,590.106 L 430.216,590.019 L 432.416,589.943 L 434.596,589.802 L 436.777,589.638 L 438.919,589.464 L 440.982,589.258 L 443.046,588.996 L 445.052,588.746 L 446.979,588.441 L 448.887,588.115 L 450.717,587.777 L 452.47,587.397 L 454.164,587.016 L 455.78,586.58 L 457.318,586.167 L 458.778,585.688 L 460.121,585.22 L 461.426,584.73 L 462.555,584.229 L 463.646,583.685 L 464.619,583.152 L 465.495,582.597 L 466.293,582.042"/>
  </g>
  <text font-size="17.3172" style="fill: #000000;text-anchor:middle;font-family:sans-serif;font-style:normal;font-weight:normal" x="420" y="395.172">
    <tspan x="420" y="395.172">S2SS</tspan>
    <tspan x="420" y="416.818">ACS</tspan>
  </text>
  <text font-size="17.3172" style="fill: #000000;text-anchor:middle;font-family:sans-serif;font-style:normal;font-weight:normal" x="420" y="715.172">
    <tspan x="420" y="715.172">S2SS</tspan>
    <tspan x="420" y="736.818">SINTEF</tspan>
  </text>
  <path style="fill: none; fill-opacity:0; stroke-width: 2; stroke: #000000" d="M 400,480 A 20,20 0 1 0 360,480"/>
  <text font-size="12.8" style="fill: #000000;text-anchor:middle;font-family:sans-serif;font-style:normal;font-weight:normal" x="420.452" y="564.967">
    <tspan x="420.452" y="564.967">Internet</tspan>
  </text>
  <text font-size="12.8" style="fill: #000000;text-anchor:start;font-family:sans-serif;font-style:normal;font-weight:normal" x="20" y="551.881">
    <tspan x="20" y="551.881">Germany</tspan>
  </text>
  <text font-size="12.8" style="fill: #000000;text-anchor:start;font-family:sans-serif;font-style:normal;font-weight:normal" x="20" y="580">
    <tspan x="20" y="580">Norway</tspan>
  </text>
  <text font-size="12.8" style="fill: #000000;text-anchor:middle;font-family:sans-serif;font-style:normal;font-weight:normal" x="420" y="311.881">
    <tspan x="420" y="311.881">137.226.160.91</tspan>
  </text>
  <text font-size="12.8" style="fill: #000000;text-anchor:start;font-family:sans-serif;font-style:normal;font-weight:normal" x="190" y="460">
    <tspan x="190" y="460">10200</tspan>
  </text>
  <text font-size="12.8" style="fill: #000000;text-anchor:end;font-family:sans-serif;font-style:normal;font-weight:normal" x="650" y="670">
    <tspan x="650" y="670">10200</tspan>
  </text>
  <text font-size="12.8" style="fill: #000000;text-anchor:end;font-family:sans-serif;font-style:normal;font-weight:normal" x="330" y="380">
    <tspan x="330" y="380">10200</tspan>
  </text>
  <text font-size="12.8" style="fill: #000000;text-anchor:start;font-family:sans-serif;font-style:normal;font-weight:normal" x="510" y="780">
    <tspan x="510" y="780">10200</tspan>
  </text>
  <text font-size="12.8" style="fill: #000000;text-anchor:end;font-family:sans-serif;font-style:normal;font-weight:normal" x="370" y="500">
    <tspan x="370" y="500">10201</tspan>
  </text>
  <text font-size="12.8" style="fill: #000000;text-anchor:start;font-family:sans-serif;font-style:normal;font-weight:normal" x="470" y="630">
    <tspan x="470" y="630">10201</tspan>
  </text>
  <text font-size="12.8" style="fill: #000000;text-anchor:middle;font-family:sans-serif;font-style:normal;font-weight:normal" x="420" y="820">
    <tspan x="420" y="820">??? (TODO)</tspan>
  </text>
  <text font-size="12.8" style="fill: #000000;text-anchor:middle;font-family:sans-serif;font-style:normal;font-weight:normal" x="100" y="311.881">
    <tspan x="100" y="311.881">??? (TODO)</tspan>
  </text>
  <path style="fill: none; fill-opacity:0; stroke-width: 2; stroke: #000000" d="M 660,700 A 20,20 0 1 0 660,660"/>
  <path style="fill: none; fill-opacity:0; stroke-width: 2; stroke: #000000" d="M 500,740 A 20,20 0 1 0 500,780"/>
  <g>
    <path style="fill: none; fill-opacity:0; stroke-width: 2; stroke: #bfbfbf" d="M 460,640 A 41.0122,41.0122 0 0 0 490.557,678.66"/>
    <polygon style="fill: #bfbfbf" points="497.765,679.945 487.646,684.7 490.267,679.763 487.889,674.703 "/>
    <polygon style="fill: none; fill-opacity:0; stroke-width: 2; stroke: #bfbfbf" points="497.765,679.945 487.646,684.7 490.267,679.763 487.889,674.703 "/>
  </g>
</svg>
