<?xml version="1.0" encoding="UTF-8" standalone="no"?>
<!DOCTYPE svg PUBLIC "-//W3C//DTD SVG 1.0//EN" "http://www.w3.org/TR/2001/PR-SVG-20010719/DTD/svg10.dtd">
<svg width="34cm" height="23cm" viewBox="339 19 673 441" xmlns="http://www.w3.org/2000/svg" xmlns:xlink="http://www.w3.org/1999/xlink">
  <g>
    <rect style="fill: #ffffff" x="380" y="20" width="120" height="38"/>
    <rect style="fill: none; fill-opacity:0; stroke-width: 2; stroke: #000000" x="380" y="20" width="120" height="38"/>
    <text font-size="12.8" style="fill: #000000;text-anchor:middle;font-family:sans-serif;font-style:normal;font-weight:normal" x="440" y="42.8813">
      <tspan x="440" y="42.8813">DESTROYED</tspan>
    </text>
  </g>
  <g>
    <rect style="fill: #ffffff" x="380" y="180" width="120" height="38"/>
    <rect style="fill: none; fill-opacity:0; stroke-width: 2; stroke: #000000" x="380" y="180" width="120" height="38"/>
    <text font-size="12.8" style="fill: #000000;text-anchor:middle;font-family:sans-serif;font-style:normal;font-weight:normal" x="440" y="202.881">
      <tspan x="440" y="202.881">PARSED</tspan>
    </text>
  </g>
  <g>
    <rect style="fill: #ffffff" x="380" y="260" width="120" height="38"/>
    <rect style="fill: none; fill-opacity:0; stroke-width: 2; stroke: #000000" x="380" y="260" width="120" height="38"/>
    <text font-size="12.8" style="fill: #000000;text-anchor:middle;font-family:sans-serif;font-style:normal;font-weight:normal" x="440" y="282.881">
      <tspan x="440" y="282.881">CHECKED</tspan>
    </text>
  </g>
  <g>
    <rect style="fill: #ffffff" x="380" y="340" width="120" height="38"/>
    <rect style="fill: none; fill-opacity:0; stroke-width: 2; stroke: #000000" x="380" y="340" width="120" height="38"/>
    <text font-size="12.8" style="fill: #000000;text-anchor:middle;font-family:sans-serif;font-style:normal;font-weight:normal" x="440" y="362.881">
      <tspan x="440" y="362.881">STARTED</tspan>
    </text>
  </g>
  <g>
    <rect style="fill: #ffffff" x="380" y="420" width="120" height="38"/>
    <rect style="fill: none; fill-opacity:0; stroke-width: 2; stroke: #000000" x="380" y="420" width="120" height="38"/>
    <text font-size="12.8" style="fill: #000000;text-anchor:middle;font-family:sans-serif;font-style:normal;font-weight:normal" x="440" y="442.881">
      <tspan x="440" y="442.881">STOPPED</tspan>
    </text>
  </g>
  <g>
    <rect style="fill: #ffffff" x="380" y="100" width="120" height="38"/>
    <rect style="fill: none; fill-opacity:0; stroke-width: 2; stroke: #000000" x="380" y="100" width="120" height="38"/>
    <text font-size="12.8" style="fill: #000000;text-anchor:middle;font-family:sans-serif;font-style:normal;font-weight:normal" x="440" y="122.881">
      <tspan x="440" y="122.881">INITIALIZED</tspan>
    </text>
  </g>
  <g>
    <line style="fill: none; fill-opacity:0; stroke-width: 2; stroke: #000000" x1="440" y1="138" x2="440" y2="170.264"/>
    <polygon style="fill: #000000" points="440,177.764 435,167.764 440,170.264 445,167.764 "/>
    <polygon style="fill: none; fill-opacity:0; stroke-width: 2; stroke: #000000" points="440,177.764 435,167.764 440,170.264 445,167.764 "/>
  </g>
  <g>
    <line style="fill: none; fill-opacity:0; stroke-width: 2; stroke: #000000" x1="440" y1="218" x2="440" y2="250.264"/>
    <polygon style="fill: #000000" points="440,257.764 435,247.764 440,250.264 445,247.764 "/>
    <polygon style="fill: none; fill-opacity:0; stroke-width: 2; stroke: #000000" points="440,257.764 435,247.764 440,250.264 445,247.764 "/>
  </g>
  <g>
    <line style="fill: none; fill-opacity:0; stroke-width: 2; stroke: #000000" x1="440" y1="298" x2="440" y2="330.264"/>
    <polygon style="fill: #000000" points="440,337.764 435,327.764 440,330.264 445,327.764 "/>
    <polygon style="fill: none; fill-opacity:0; stroke-width: 2; stroke: #000000" points="440,337.764 435,327.764 440,330.264 445,327.764 "/>
  </g>
  <g>
    <line style="fill: none; fill-opacity:0; stroke-width: 2; stroke: #000000" x1="410" y1="378" x2="410" y2="410.264"/>
    <polygon style="fill: #000000" points="410,417.764 405,407.764 410,410.264 415,407.764 "/>
    <polygon style="fill: none; fill-opacity:0; stroke-width: 2; stroke: #000000" points="410,417.764 405,407.764 410,410.264 415,407.764 "/>
  </g>
  <g>
    <line style="fill: none; fill-opacity:0; stroke-width: 2; stroke: #000000" x1="470" y1="420" x2="470" y2="387.736"/>
    <polygon style="fill: #000000" points="470,380.236 475,390.236 470,387.736 465,390.236 "/>
    <polygon style="fill: none; fill-opacity:0; stroke-width: 2; stroke: #000000" points="470,380.236 475,390.236 470,387.736 465,390.236 "/>
  </g>
  <g>
    <polyline style="fill: none; fill-opacity:0; stroke-width: 2; stroke: #000000" points="380,439 340,439 340,39 370.264,39 "/>
    <polygon style="fill: #000000" points="377.764,39 367.764,44 370.264,39 367.764,34 "/>
    <polygon style="fill: none; fill-opacity:0; stroke-width: 2; stroke: #000000" points="377.764,39 367.764,44 370.264,39 367.764,34 "/>
  </g>
  <g>
    <polyline style="fill: none; fill-opacity:0; stroke-width: 2; stroke: #000000" points="380,279 340,279 340,39 370.264,39 "/>
    <polygon style="fill: #000000" points="377.764,39 367.764,44 370.264,39 367.764,34 "/>
    <polygon style="fill: none; fill-opacity:0; stroke-width: 2; stroke: #000000" points="377.764,39 367.764,44 370.264,39 367.764,34 "/>
  </g>
  <g>
    <polyline style="fill: none; fill-opacity:0; stroke-width: 2; stroke: #000000" points="500,269.5 540,269.5 540,199 509.736,199 "/>
    <polygon style="fill: #000000" points="502.236,199 512.236,194 509.736,199 512.236,204 "/>
    <polygon style="fill: none; fill-opacity:0; stroke-width: 2; stroke: #000000" points="502.236,199 512.236,194 509.736,199 512.236,204 "/>
  </g>
  <g>
    <polyline style="fill: none; fill-opacity:0; stroke-width: 2; stroke: #000000" points="380,199 340,199 340,39 370.264,39 "/>
    <polygon style="fill: #000000" points="377.764,39 367.764,44 370.264,39 367.764,34 "/>
    <polygon style="fill: none; fill-opacity:0; stroke-width: 2; stroke: #000000" points="377.764,39 367.764,44 370.264,39 367.764,34 "/>
  </g>
  <g>
    <line style="fill: none; fill-opacity:0; stroke-width: 2; stroke: #000000" x1="410" y1="58" x2="410" y2="90.2639"/>
    <polygon style="fill: #000000" points="410,97.7639 405,87.7639 410,90.2639 415,87.7639 "/>
    <polygon style="fill: none; fill-opacity:0; stroke-width: 2; stroke: #000000" points="410,97.7639 405,87.7639 410,90.2639 415,87.7639 "/>
  </g>
  <g>
    <line style="fill: none; fill-opacity:0; stroke-width: 2; stroke: #000000" x1="470" y1="100" x2="470" y2="67.7361"/>
    <polygon style="fill: #000000" points="470,60.2361 475,70.2361 470,67.7361 465,70.2361 "/>
    <polygon style="fill: none; fill-opacity:0; stroke-width: 2; stroke: #000000" points="470,60.2361 475,70.2361 470,67.7361 465,70.2361 "/>
  </g>
  <g>
    <rect style="fill: none; fill-opacity:0; stroke-width: 2; stroke: #000000" x="384" y="24" width="112" height="30"/>
    <text font-size="5.64444" style="fill: #000000;text-anchor:middle;font-family:sans-serif;font-style:normal;font-weight:normal" x="440" y="40.7115">
      <tspan x="440" y="40.7115"></tspan>
    </text>
  </g>
  <g>
    <polyline style="fill: none; fill-opacity:0; stroke-width: 2; stroke: #000000" points="500,119 560,119 560,288.5 509.736,288.5 "/>
    <polygon style="fill: #000000" points="502.236,288.5 512.236,283.5 509.736,288.5 512.236,293.5 "/>
    <polygon style="fill: none; fill-opacity:0; stroke-width: 2; stroke: #000000" points="502.236,288.5 512.236,283.5 509.736,288.5 512.236,293.5 "/>
  </g>
  <g>
    <polyline style="fill: none; fill-opacity:0; stroke-width: 2; stroke: #000000" points="500,439 540,439 540,199 509.736,199 "/>
    <polygon style="fill: #000000" points="502.236,199 512.236,194 509.736,199 512.236,204 "/>
    <polygon style="fill: none; fill-opacity:0; stroke-width: 2; stroke: #000000" points="502.236,199 512.236,194 509.736,199 512.236,204 "/>
  </g>
  <text font-size="14.6756" style="fill: #000000;text-anchor:start;font-family:sans-serif;font-style:normal;font-weight:normal" x="600" y="35.9083">
    <tspan x="600" y="35.9083">Object was created or destroyed.</tspan>
    <tspan x="600" y="54.2528">It's state is unknown.</tspan>
  </text>
  <text font-size="14.6756" style="fill: #000000;text-anchor:start;font-family:sans-serif;font-style:normal;font-weight:normal" x="600" y="115.908">
    <tspan x="600" y="115.908">Object has been initialized with default</tspan>
    <tspan x="600" y="134.253">values or values passed to _init().</tspan>
  </text>
  <text font-size="14.6756" style="fill: #000000;text-anchor:start;font-family:sans-serif;font-style:normal;font-weight:normal" x="600" y="205.081">
    <tspan x="600" y="205.081">Configuration of object was read with _parse().</tspan>
  </text>
  <text font-size="14.6756" style="fill: #000000;text-anchor:start;font-family:sans-serif;font-style:normal;font-weight:normal" x="600" y="285.081">
    <tspan x="600" y="285.081">Validity of configuation has been checked with _check()</tspan>
  </text>
  <text font-size="14.6756" style="fill: #000000;text-anchor:start;font-family:sans-serif;font-style:normal;font-weight:normal" x="600" y="355.908">
    <tspan x="600" y="355.908">Object is now in use and can not be destroyed / altered.</tspan>
    <tspan x="600" y="374.253">Started with _start()</tspan>
  </text>
  <text font-size="14.6756" style="fill: #000000;text-anchor:start;font-family:sans-serif;font-style:normal;font-weight:normal" x="600" y="435.908">
    <tspan x="600" y="435.908">Object is now not in use anymore. Can be reconfigured</tspan>
    <tspan x="600" y="454.253">with _parse() or destroyed with _destroy()</tspan>
  </text>
</svg>
