<?xml version="1.0" encoding="UTF-8" standalone="no"?>
<!DOCTYPE svg PUBLIC "-//W3C//DTD SVG 1.0//EN" "http://www.w3.org/TR/2001/PR-SVG-20010719/DTD/svg10.dtd">
<svg width="15cm" height="7cm" viewBox="-141 229 282 135" xmlns="http://www.w3.org/2000/svg" xmlns:xlink="http://www.w3.org/1999/xlink">
  <text font-size="12.4178" style="fill: #000000;text-anchor:middle;font-family:sans-serif;font-style:normal;font-weight:normal" x="-100" y="330">
    <tspan x="-100" y="330">villas-pipe</tspan>
    <tspan x="-100" y="345.522">lab3.conf</tspan>
    <tspan x="-100" y="361.044">udp_node1</tspan>
  </text>
  <g>
    <line style="fill: none; fill-opacity:0; stroke-width: 2; stroke: #000000" x1="-60" y1="290" x2="50.2639" y2="290"/>
    <polygon style="fill: #000000" points="57.7639,290 47.7639,295 50.2639,290 47.7639,285 "/>
    <polygon style="fill: none; fill-opacity:0; stroke-width: 2; stroke: #000000" points="57.7639,290 47.7639,295 50.2639,290 47.7639,285 "/>
  </g>
  <text font-size="12.8" style="fill: #000000;text-anchor:middle;font-family:sans-serif;font-style:normal;font-weight:normal" x="0" y="304.431">
    <tspan x="0" y="304.431">STDIO</tspan>
  </text>
  <g>
    <rect style="fill: #ffffff" x="-140" y="230" width="80" height="80"/>
    <rect style="fill: none; fill-opacity:0; stroke-width: 2; stroke: #000000" x="-140" y="230" width="80" height="80"/>
  </g>
  <image x="-130" y="240" width="60" height="60" xlink:href="images/logos/villas_node.svg"/>
  <g>
    <rect style="fill: #ffffff" x="60" y="230" width="80" height="80"/>
    <rect style="fill: none; fill-opacity:0; stroke-width: 2; stroke: #000000" x="60" y="230" width="80" height="80"/>
  </g>
  <image x="74.5032" y="243.998" width="50.0389" height="50.0388" xlink:href="images/icons/file.svg"/>
  <text font-size="12.8016" style="fill: #000000;text-anchor:middle;font-family:sans-serif;font-style:normal;font-weight:normal" x="100" y="330">
    <tspan x="100" y="330">file.dat</tspan>
  </text>
</svg>
