<?xml version="1.0" encoding="UTF-8" standalone="no"?>
<!DOCTYPE svg PUBLIC "-//W3C//DTD SVG 1.0//EN" "http://www.w3.org/TR/2001/PR-SVG-20010719/DTD/svg10.dtd">
<svg width="27cm" height="8cm" viewBox="-241 279 532 155" xmlns="http://www.w3.org/2000/svg" xmlns:xlink="http://www.w3.org/1999/xlink">
  <text font-size="12.4178" style="fill: #000000;text-anchor:middle;font-family:sans-serif;font-style:normal;font-weight:normal" x="100" y="400">
    <tspan x="100" y="400">villas-pipe</tspan>
    <tspan x="100" y="415.522">lab3.conf</tspan>
    <tspan x="100" y="431.044">udp_node1</tspan>
  </text>
  <g>
    <line style="fill: none; fill-opacity:0; stroke-width: 2; stroke: #000000" x1="140" y1="360" x2="200.264" y2="360"/>
    <polygon style="fill: #000000" points="207.764,360 197.764,365 200.264,360 197.764,355 "/>
    <polygon style="fill: none; fill-opacity:0; stroke-width: 2; stroke: #000000" points="207.764,360 197.764,365 200.264,360 197.764,355 "/>
  </g>
  <text font-size="12.8" style="fill: #000000;text-anchor:middle;font-family:sans-serif;font-style:normal;font-weight:normal" x="170" y="374.431">
    <tspan x="170" y="374.431">UDP</tspan>
  </text>
  <g>
    <rect style="fill: #ffffff" x="60" y="300" width="80" height="80"/>
    <rect style="fill: none; fill-opacity:0; stroke-width: 2; stroke: #000000" x="60" y="300" width="80" height="80"/>
  </g>
  <image x="70" y="310" width="60" height="60" xlink:href="images/logos/villas_node.svg"/>
  <g>
    <g>
      <rect style="fill: #ffffff" x="-90" y="300" width="80" height="80"/>
      <rect style="fill: none; fill-opacity:0; stroke-width: 2; stroke: #ffffff" x="-90" y="300" width="80" height="80"/>
    </g>
    <rect style="fill: none; fill-opacity:0; stroke-width: 2; stroke: #000000" x="-90" y="300" width="80" height="80"/>
  </g>
  <image x="-80" y="310" width="60" height="60" xlink:href="figures/dia/../../images/logos/villas_node.svg"/>
  <text font-size="12.8" style="fill: #000000;text-anchor:middle;font-family:sans-serif;font-style:normal;font-weight:normal" x="-50" y="400">
    <tspan x="-50" y="400">villas-signal</tspan>
    <tspan x="-50" y="416">mixed -v 4 -r 5000</tspan>
  </text>
  <text font-size="12.8" style="fill: #000000;text-anchor:middle;font-family:sans-serif;font-style:normal;font-weight:normal" x="26.5" y="379.5">
    <tspan x="26.5" y="379.5">STDIO</tspan>
  </text>
  <g>
    <line style="fill: none; fill-opacity:0; stroke-width: 2; stroke: #000000" x1="-10" y1="360" x2="50.2639" y2="360"/>
    <polygon style="fill: #000000" points="57.7639,360 47.7639,365 50.2639,360 47.7639,355 "/>
    <polygon style="fill: none; fill-opacity:0; stroke-width: 2; stroke: #000000" points="57.7639,360 47.7639,365 50.2639,360 47.7639,355 "/>
  </g>
  <g>
    <g>
      <rect style="fill: #ffffff" x="-240" y="300" width="80" height="80"/>
      <rect style="fill: none; fill-opacity:0; stroke-width: 0.02; stroke: #ffffff" x="-240" y="300" width="80" height="80"/>
    </g>
    <rect style="fill: none; fill-opacity:0; stroke-width: 2; stroke: #000000" x="-240" y="300" width="80" height="80"/>
  </g>
  <text font-size="12.8" style="fill: #000000;text-anchor:end;font-family:sans-serif;font-style:normal;font-weight:normal" x="-170" y="320">
    <tspan x="-170" y="320">Keyboard</tspan>
  </text>
  <text font-size="12.8" style="fill: #000000;text-anchor:end;font-family:sans-serif;font-style:normal;font-weight:normal" x="-170" y="364.002">
    <tspan x="-170" y="364.002">Screen</tspan>
  </text>
  <text font-size="12.8" style="fill: #000000;text-anchor:middle;font-family:sans-serif;font-style:normal;font-weight:normal" x="-200" y="400">
    <tspan x="-200" y="400">Terminal</tspan>
  </text>
  <g>
    <line style="fill: none; fill-opacity:0; stroke-width: 2; stroke: #000000" x1="210" y1="320" x2="149.736" y2="320"/>
    <polygon style="fill: #000000" points="142.236,320 152.236,315 149.736,320 152.236,325 "/>
    <polygon style="fill: none; fill-opacity:0; stroke-width: 2; stroke: #000000" points="142.236,320 152.236,315 149.736,320 152.236,325 "/>
  </g>
  <text font-size="12.8" style="fill: #000000;text-anchor:middle;font-family:sans-serif;font-style:normal;font-weight:normal" x="180" y="334.431">
    <tspan x="180" y="334.431">UDP</tspan>
  </text>
  <g>
    <g>
      <rect style="fill: #ffffff" x="210" y="300" width="80" height="80"/>
      <rect style="fill: none; fill-opacity:0; stroke-width: 2; stroke: #000000" x="210" y="300" width="80" height="80"/>
    </g>
    <image x="215" y="320" width="70" height="36.6796" xlink:href="&lt;broken&gt;"/>
    <text font-size="12.8016" style="fill: #000000;text-anchor:middle;font-family:sans-serif;font-style:normal;font-weight:normal" x="250" y="400">
      <tspan x="250" y="400">GTNET-SKT</tspan>
      <tspan x="250" y="416.002">card</tspan>
    </text>
  </g>
  <g>
    <polyline style="fill: none; fill-opacity:0; stroke-width: 2; stroke: #000000" points="60,320 10,320 10,280 -110,280 -110,360 -150.264,360 "/>
    <polygon style="fill: #000000" points="-157.764,360 -147.764,355 -150.264,360 -147.764,365 "/>
    <polygon style="fill: none; fill-opacity:0; stroke-width: 2; stroke: #000000" points="-157.764,360 -147.764,355 -150.264,360 -147.764,365 "/>
  </g>
  <text font-size="12.8" style="fill: #000000;text-anchor:middle;font-family:sans-serif;font-style:normal;font-weight:normal" x="-48.726" y="293.91">
    <tspan x="-48.726" y="293.91">STDIO</tspan>
  </text>
</svg>
