<?xml version="1.0" encoding="UTF-8" standalone="no"?>
<!DOCTYPE svg PUBLIC "-//W3C//DTD SVG 1.0//EN" "http://www.w3.org/TR/2001/PR-SVG-20010719/DTD/svg10.dtd">
<svg width="24cm" height="7cm" viewBox="-161 99 472 137" xmlns="http://www.w3.org/2000/svg" xmlns:xlink="http://www.w3.org/1999/xlink">
  <text font-size="12.8" style="fill: #000000;text-anchor:middle;font-family:sans-serif;font-style:normal;font-weight:normal" x="40" y="200">
    <tspan x="40" y="200">villas-pipe</tspan>
    <tspan x="40" y="216">lab3.conf</tspan>
    <tspan x="40" y="232">udp_node1</tspan>
  </text>
  <g>
    <line style="fill: none; fill-opacity:0; stroke-width: 2; stroke: #000000" x1="120" y1="120" x2="89.7361" y2="120"/>
    <polygon style="fill: #000000" points="82.2361,120 92.2361,115 89.7361,120 92.2361,125 "/>
    <polygon style="fill: none; fill-opacity:0; stroke-width: 2; stroke: #000000" points="82.2361,120 92.2361,115 89.7361,120 92.2361,125 "/>
  </g>
  <g>
    <line style="fill: none; fill-opacity:0; stroke-width: 2; stroke: #000000" x1="80" y1="160" x2="220.264" y2="160"/>
    <polygon style="fill: #000000" points="227.764,160 217.764,165 220.264,160 217.764,155 "/>
    <polygon style="fill: none; fill-opacity:0; stroke-width: 2; stroke: #000000" points="227.764,160 217.764,165 220.264,160 217.764,155 "/>
  </g>
  <text font-size="12.8" style="fill: #000000;text-anchor:middle;font-family:sans-serif;font-style:normal;font-weight:normal" x="150" y="174.431">
    <tspan x="150" y="174.431">UDP outgoing</tspan>
  </text>
  <text font-size="12.8" style="fill: #000000;text-anchor:middle;font-family:sans-serif;font-style:normal;font-weight:normal" x="170" y="124.431">
    <tspan x="170" y="124.431">UDP incoming</tspan>
  </text>
  <g>
    <g>
      <rect style="fill: #ffffff" x="0" y="100" width="80" height="80"/>
      <rect style="fill: none; fill-opacity:0; stroke-width: 2; stroke: #000000" x="0" y="100" width="80" height="80"/>
    </g>
    <image x="10" y="110" width="60" height="60" xlink:href="images/logos/villas_node.svg"/>
  </g>
  <text font-size="12.8" style="fill: #000000;text-anchor:middle;font-family:sans-serif;font-style:normal;font-weight:normal" x="270" y="200">
    <tspan x="270" y="200">Wireshark</tspan>
  </text>
  <g>
    <g>
      <rect style="fill: #ffffff" x="230" y="100" width="80" height="80"/>
      <rect style="fill: none; fill-opacity:0; stroke-width: 2; stroke: #000000" x="230" y="100" width="80" height="80"/>
    </g>
    <image x="240" y="110" width="60" height="60" xlink:href="&lt;broken&gt;"/>
  </g>
  <g>
    <line style="fill: none; fill-opacity:0; stroke-width: 2; stroke: #000000" x1="0" y1="120" x2="-70.2639" y2="120"/>
    <polygon style="fill: #000000" points="-77.7639,120 -67.7639,115 -70.2639,120 -67.7639,125 "/>
    <polygon style="fill: none; fill-opacity:0; stroke-width: 2; stroke: #000000" points="-77.7639,120 -67.7639,115 -70.2639,120 -67.7639,125 "/>
  </g>
  <g>
    <line style="fill: none; fill-opacity:0; stroke-width: 2; stroke: #000000" x1="-80" y1="160" x2="-9.73607" y2="160"/>
    <polygon style="fill: #000000" points="-2.23607,160 -12.2361,165 -9.73607,160 -12.2361,155 "/>
    <polygon style="fill: none; fill-opacity:0; stroke-width: 2; stroke: #000000" points="-2.23607,160 -12.2361,165 -9.73607,160 -12.2361,155 "/>
  </g>
  <text font-size="12.8" style="fill: #000000;text-anchor:middle;font-family:sans-serif;font-style:normal;font-weight:normal" x="-40" y="134.431">
    <tspan x="-40" y="134.431">STDIO</tspan>
  </text>
  <text font-size="12.8" style="fill: #000000;text-anchor:middle;font-family:sans-serif;font-style:normal;font-weight:normal" x="-40" y="174.431">
    <tspan x="-40" y="174.431">STDIO</tspan>
  </text>
  <g>
    <rect style="fill: #ffffff" x="-160" y="100" width="80" height="80"/>
    <rect style="fill: none; fill-opacity:0; stroke-width: 2; stroke: #000000" x="-160" y="100" width="80" height="80"/>
  </g>
  <text font-size="12.8" style="fill: #000000;text-anchor:end;font-family:sans-serif;font-style:normal;font-weight:normal" x="-85" y="164.431">
    <tspan x="-85" y="164.431">Keyboard</tspan>
  </text>
  <text font-size="12.8" style="fill: #000000;text-anchor:end;font-family:sans-serif;font-style:normal;font-weight:normal" x="-85" y="124.431">
    <tspan x="-85" y="124.431">Screen</tspan>
  </text>
  <text font-size="12.8016" style="fill: #000000;text-anchor:middle;font-family:sans-serif;font-style:normal;font-weight:normal" x="-120" y="200">
    <tspan x="-120" y="200">Terminal</tspan>
  </text>
</svg>
