<?xml version="1.0" encoding="UTF-8" standalone="no"?>
<svg
   xmlns:dc="http://purl.org/dc/elements/1.1/"
   xmlns:cc="http://creativecommons.org/ns#"
   xmlns:rdf="http://www.w3.org/1999/02/22-rdf-syntax-ns#"
   xmlns:svg="http://www.w3.org/2000/svg"
   xmlns="http://www.w3.org/2000/svg"
   version="1.1"
   id="svg2"
   viewBox="0 0 478.79353 127.2537"
   height="35.913822mm"
   width="135.12617mm">
  <defs
     id="defs4" />
  <metadata
     id="metadata7">
    <rdf:RDF>
      <cc:Work
         rdf:about="">
        <dc:format>image/svg+xml</dc:format>
        <dc:type
           rdf:resource="http://purl.org/dc/dcmitype/StillImage" />
        <dc:title></dc:title>
      </cc:Work>
    </rdf:RDF>
  </metadata>
  <g
     transform="translate(-99.289996,-199.82304)"
     id="layer1">
    <g
       id="text4136"
       style="font-style:normal;font-weight:normal;font-size:118.3369751px;line-height:1000%;font-family:sans-serif;letter-spacing:0px;word-spacing:0px;fill:#000000;fill-opacity:1;stroke:none;stroke-width:1px;stroke-linecap:butt;stroke-linejoin:miter;stroke-opacity:1"
       transform="scale(0.97285672,1.0279006)">
      <path
         id="path4392"
         style="font-style:normal;font-variant:normal;font-weight:bold;font-stretch:normal;font-family:Americana;-inkscape-font-specification:'Americana Bold';fill:#000000"
         d="m 183.80562,230.87771 c -5.79851,-4.26014 -19.64394,-7.10022 -26.38914,-7.10022 -20.11729,0 -35.02775,13.60875 -35.02775,32.54267 0,18.93391 14.91046,32.54266 35.02775,32.54266 12.78039,0 20.8273,-5.79851 27.2175,-16.68551 l -1.89339,-1.89339 c -4.37847,8.75693 -13.72709,15.62048 -23.78573,15.62048 -10.887,0 -22.83904,-8.16525 -22.83904,-29.58424 0.11834,-14.43712 5.68018,-30.29427 21.18232,-30.29427 12.30705,0 18.69724,7.33689 21.65567,15.85715 0.23667,0.71003 0.35501,1.42005 0.71002,1.42005 0.35501,0 0.82836,-1.30171 1.42004,-3.1951 l 2.72175,-9.23028 z" />
      <path
         id="path4394"
         style="font-style:normal;font-variant:normal;font-weight:bold;font-stretch:normal;font-family:Americana;-inkscape-font-specification:'Americana Bold';fill:#000000"
         d="m 206.85175,256.32016 c 0,-13.96377 3.66845,-30.29427 21.30066,-30.29427 17.75054,0 21.41899,16.3305 21.41899,30.29427 0,13.96376 -3.66845,30.29426 -21.41899,30.29426 -17.63221,0 -21.30066,-16.3305 -21.30066,-30.29426 z m -13.72709,0 c 0,18.93391 14.91046,32.54266 35.02775,32.54266 20.23562,0 35.14608,-13.60875 35.14608,-32.54266 0,-18.93392 -14.91046,-32.54267 -35.14608,-32.54267 -20.11729,0 -35.02775,13.60875 -35.02775,32.54267 z" />
      <path
         id="path4396"
         style="font-style:normal;font-variant:normal;font-weight:bold;font-stretch:normal;font-family:Americana;-inkscape-font-specification:'Americana Bold';fill:#000000"
         d="m 287.20441,225.07919 c -4.37847,1.53838 -9.34862,2.72175 -14.91046,3.78679 -0.82836,0.11833 -1.77506,0.23667 -1.77506,0.94669 0,0.35501 1.06504,0.47335 1.8934,0.59169 3.90512,0.82836 3.90512,5.68017 3.90512,8.99361 l 0,28.75588 c 0,8.99361 -0.11834,16.68552 -3.66845,17.98722 -0.47335,0.23668 -0.82836,0.47335 -0.82836,0.9467 0,0.35501 0.47335,0.35501 1.30171,0.35501 0.94669,0 2.84009,-0.35501 9.23028,-0.35501 6.50854,0 9.94031,0.35501 10.76867,0.35501 1.06503,0 1.65671,0 1.65671,-0.35501 0,-0.35501 -0.23667,-0.82836 -0.71002,-0.9467 -4.73348,-1.06503 -5.56183,-6.50853 -5.56183,-13.96376 l 0,-16.68551 c 0,-11.24202 3.5501,-28.75589 17.86888,-28.75589 10.887,0 14.67378,9.34862 14.67378,18.81558 l 0,26.62582 c 0,7.45523 -1.06503,12.78039 -5.79851,14.20044 -0.47335,0.11833 -0.71002,0.47334 -0.71002,0.71002 0,0.23667 0.59168,0.35501 0.9467,0.35501 1.3017,0 5.20682,-0.35501 11.59702,-0.35501 6.50853,0 10.41365,0.35501 11.24201,0.35501 0.47335,0 1.30171,-0.11834 1.30171,-0.47335 0,-0.47335 -0.47335,-0.94669 -1.42005,-1.06503 -4.26013,-0.71002 -4.97015,-4.37847 -4.97015,-10.29532 l 0,-20.11728 c 0,-11.24202 3.55011,-28.75589 17.86889,-28.75589 10.887,0 14.67378,9.34862 14.67378,18.81558 l 0,23.90407 c 0,10.17698 -0.59168,15.14713 -5.91685,16.68551 -0.47335,0.23668 -0.82836,0.35501 -0.82836,0.71002 0,0.23668 0.23668,0.59169 0.9467,0.59169 0.59168,0 5.4435,-0.35501 11.8337,-0.35501 6.50853,0 9.9403,0.35501 10.65032,0.35501 0.71003,0 1.65672,-0.11834 1.65672,-0.35501 0,-0.47335 -0.82836,-0.71002 -1.53838,-0.9467 -3.66845,-1.18337 -4.61514,-3.31343 -4.61514,-10.41365 l 0,-25.08744 c 0,-22.01068 -11.24201,-26.86249 -22.01068,-26.86249 -11.47869,0 -19.88061,5.20682 -23.19405,16.44884 l -0.23667,0 c -1.89339,-10.53199 -10.29532,-16.44884 -21.30066,-16.44884 -11.47868,0 -19.88061,5.20682 -23.78573,16.44884 l -0.23667,0 0,-15.14714 z" />
      <path
         id="path4398"
         style="font-style:normal;font-variant:normal;font-weight:bold;font-stretch:normal;font-family:Americana;-inkscape-font-specification:'Americana Bold';fill:#000000"
         d="m 404.12689,245.78816 c 1.30171,-10.17698 7.10022,-19.76227 17.86888,-19.76227 12.30705,0 17.86889,8.16525 17.86889,19.76227 l -35.73777,0 z m 50.64822,2.24841 c -1.65671,-16.44884 -17.27719,-24.25908 -30.17592,-24.25908 -20.11729,0 -35.02775,13.60875 -35.02775,32.54267 0,18.93391 14.91046,32.54266 35.02775,32.54266 16.09382,0 27.92752,-9.82197 31.7143,-26.15247 l -2.48507,0 c -4.02346,13.84543 -14.0821,23.19405 -27.69085,23.19405 -11.47869,0 -22.83904,-8.16525 -22.83904,-30.17593 0,-2.48508 0.11834,-4.97015 0.35501,-7.6919 l 51.12157,0 z" />
      <path
         id="path4400"
         style="font-style:normal;font-variant:normal;font-weight:bold;font-stretch:normal;font-family:Americana;-inkscape-font-specification:'Americana Bold';fill:#000000"
         d="m 478.07086,256.32016 c 0,-24.85077 12.89873,-29.58425 20.70897,-29.58425 7.6919,0 20.59063,4.73348 20.59063,29.58425 0,22.01067 -12.89873,29.58424 -20.59063,29.58424 -7.81024,0 -20.70897,-4.73348 -20.70897,-29.58424 z m 52.89663,-55.0267 c -5.68018,1.53838 -10.65033,2.72175 -16.21217,3.78678 -0.82836,0.11834 -2.13006,0.23668 -2.13006,0.71003 0,0.35501 0.71002,0.47334 1.53838,0.71002 4.61514,0.94669 4.61514,4.85181 4.61514,9.11195 l 0,18.22389 -0.23668,0 c -4.73347,-6.3902 -13.37207,-10.05864 -23.66739,-10.05864 -17.2772,0 -30.53094,15.73881 -30.53094,32.54267 0,19.88061 13.96376,32.54266 30.53094,32.54266 11.95203,0 19.40726,-5.56183 24.02241,-13.60875 l 0.23667,0 c 0.59168,2.95843 1.30171,7.57357 3.43177,11.8337 l 13.96376,0 c 1.42005,0 2.01173,-0.11834 2.01173,-0.47335 0,-0.23667 -0.35501,-0.47335 -0.82836,-0.59168 -4.26013,-1.18337 -5.91684,-5.68018 -6.27186,-10.29532 -0.47334,-6.3902 -0.47334,-12.89873 -0.47334,-19.40726 l 0,-55.0267 z" />
      <path
         id="path4402"
         style="font-style:normal;font-variant:normal;font-weight:bold;font-stretch:normal;font-family:Americana;-inkscape-font-specification:'Americana Bold';fill:#000000"
         d="m 549.54824,272.17731 c 0,7.45523 -0.82836,12.78039 -6.27186,13.84543 -0.71003,0.11833 -1.18337,0.35501 -1.18337,1.06503 0,0.35501 0.59168,0.35501 1.65671,0.35501 1.18337,0 5.44351,-0.35501 11.8337,-0.35501 6.3902,0 10.65033,0.35501 11.8337,0.35501 1.06503,0 1.65672,0 1.65672,-0.35501 0,-0.71002 -0.47335,-0.9467 -1.18337,-1.06503 -5.4435,-1.06504 -6.15353,-6.3902 -6.15353,-13.84543 l 0,-47.09812 c -5.68017,1.53838 -10.65032,2.72175 -16.21216,3.78679 -0.82836,0.11833 -2.13007,0.23667 -2.13007,0.47334 0,0.35502 1.30171,0.35502 2.01173,0.71003 1.89339,1.06503 4.1418,1.77505 4.1418,7.6919 l 0,34.43606 z m 5.08849,-54.79002 c 4.02345,0 7.10021,-3.1951 7.10021,-6.98188 0,-3.78678 -3.07676,-7.10022 -7.10021,-7.10022 -3.78679,0 -6.98189,3.31344 -6.98189,7.10022 0,3.78678 3.1951,6.98188 6.98189,6.98188 z" />
    </g>
    <g
       id="text4277"
       style="font-style:normal;font-weight:normal;font-size:38.92787552px;line-height:1000%;font-family:sans-serif;letter-spacing:0px;word-spacing:0px;fill:#000000;fill-opacity:1;stroke:none;stroke-width:1px;stroke-linecap:butt;stroke-linejoin:miter;stroke-opacity:1">
      <path
         id="path4311"
         style="font-style:normal;font-variant:normal;font-weight:bold;font-stretch:normal;font-size:19.46393776px;font-family:Americana;-inkscape-font-specification:'Americana Bold';fill:#000000"
         d="m 109.60762,305.58683 c -0.93427,0.25303 -1.75176,0.44767 -2.66656,0.62284 -0.13625,0.0195 -0.29196,0.0389 -0.29196,0.13625 0,0.0779 0.17518,0.13625 0.29196,0.15571 0.4866,0.0973 0.66177,0.4866 0.66177,1.44033 l 0,9.30376 c 0,1.22623 -0.0389,1.88801 -1.10944,2.33568 -0.0779,0.0389 -0.11678,0.0779 -0.11678,0.11678 0,0.0584 0.0778,0.0584 0.19463,0.0584 0.13625,0 0.9732,-0.0584 2.02425,-0.0584 1.4598,0 1.96586,0.0584 2.06318,0.0584 0.0779,0 0.17518,-0.0195 0.17518,-0.0584 0,-0.0389 -0.0389,-0.0778 -0.11679,-0.11678 -1.05105,-0.36982 -1.10944,-1.10945 -1.10944,-2.33568 l 0,-11.65889 z" />
      <path
         id="path4313"
         style="font-style:normal;font-variant:normal;font-weight:bold;font-stretch:normal;font-size:19.46393776px;font-family:Americana;-inkscape-font-specification:'Americana Bold';fill:#000000"
         d="m 113.00104,317.24572 c 0,1.22623 -0.13625,2.10211 -1.03159,2.27729 -0.11679,0.0195 -0.19464,0.0584 -0.19464,0.17517 0,0.0584 0.0973,0.0584 0.27249,0.0584 0.19464,0 0.89534,-0.0584 1.9464,-0.0584 1.05105,0 1.75175,0.0584 1.94639,0.0584 0.17518,0 0.27249,0 0.27249,-0.0584 0,-0.11678 -0.0778,-0.15571 -0.19463,-0.17517 -0.89535,-0.17518 -1.01213,-1.05106 -1.01213,-2.27729 l 0,-7.74664 c -0.93427,0.25303 -1.75175,0.44767 -2.66656,0.62284 -0.13625,0.0195 -0.35035,0.0389 -0.35035,0.0779 0,0.0584 0.2141,0.0584 0.33089,0.11678 0.31142,0.17518 0.68124,0.29196 0.68124,1.26516 l 0,5.664 z m 0.83694,-9.0118 c 0.66178,0 1.16784,-0.52552 1.16784,-1.14837 0,-0.62285 -0.50606,-1.16784 -1.16784,-1.16784 -0.62284,0 -1.14837,0.54499 -1.14837,1.16784 0,0.62285 0.52553,1.14837 1.14837,1.14837 z" />
      <path
         id="path4315"
         style="font-style:normal;font-variant:normal;font-weight:bold;font-stretch:normal;font-size:19.46393776px;font-family:Americana;-inkscape-font-specification:'Americana Bold';fill:#000000"
         d="m 119.95544,309.49908 c -0.72017,0.25303 -1.51819,0.38928 -2.45246,0.56445 -0.23356,0.0389 -0.36981,0.0389 -0.36981,0.0973 0,0.0389 0.13625,0.0973 0.35035,0.19464 0.54499,0.23357 0.68124,0.89534 0.68124,2.06318 l 0,4.82705 c 0,1.22623 -0.0779,2.14104 -1.05106,2.29675 -0.13624,0.0195 -0.2141,0.0584 -0.2141,0.11678 0,0.0779 0.0584,0.0973 0.17518,0.0973 0.13624,0 1.03158,-0.0584 2.08264,-0.0584 1.05105,0 1.84907,0.0584 1.98532,0.0584 0.11678,0 0.17517,-0.0195 0.17517,-0.0973 0,-0.0584 -0.0778,-0.0973 -0.2141,-0.11678 -0.87588,-0.15571 -0.93427,-1.07052 -0.93427,-2.29675 l 0,-2.3746 c 0,-2.72495 0.7591,-5.09955 3.0753,-5.09955 2.06318,0 2.8612,1.90747 2.8612,3.69815 l 0,3.776 c 0,1.7323 -0.35035,2.25782 -1.05105,2.33568 -0.13625,0.0195 -0.17517,0.0779 -0.17517,0.11678 0,0.0584 0.0973,0.0584 0.2141,0.0584 0.25303,0 0.95373,-0.0584 2.00478,-0.0584 1.07052,0 1.57658,0.0584 1.75176,0.0584 0.19464,0 0.29196,0 0.29196,-0.0584 0,-0.0389 -0.11679,-0.0973 -0.25303,-0.13625 -0.56446,-0.19464 -0.81749,-0.46713 -0.77856,-2.31621 l 0,-3.75653 c 0,-3.09477 -2.00479,-4.20422 -4.14582,-4.20422 -2.56924,0 -3.52297,1.36248 -3.97064,3.01691 l -0.0389,0 0,-2.8028 z" />
      <path
         id="path4317"
         style="font-style:normal;font-variant:normal;font-weight:bold;font-stretch:normal;font-size:19.46393776px;font-family:Americana;-inkscape-font-specification:'Americana Bold';fill:#000000"
         d="m 140.53734,309.49908 c -0.9732,0.23357 -1.75176,0.36981 -2.51085,0.4866 -0.0973,0.0195 -0.31142,0.0584 -0.31142,0.11678 0,0.0195 0.0779,0.0389 0.25303,0.13625 0.35035,0.17517 0.56445,0.4282 0.56445,1.6155 l 0,3.91226 c 0,1.81014 -0.97319,3.73707 -2.99744,3.73707 -2.06318,0 -2.8612,-1.90746 -2.8612,-3.69815 l 0,-6.30631 c -0.93427,0.25303 -1.75176,0.44767 -2.62763,0.56445 -0.17518,0.0195 -0.29196,0.0195 -0.29196,0.0779 0,0.0584 0.13624,0.11678 0.29196,0.15571 0.54499,0.19464 0.62284,0.42821 0.62284,1.55711 l 0,3.93172 c 0,3.13369 1.36248,4.20421 4.14582,4.20421 2.00479,0 3.15316,-0.79802 3.79547,-2.53031 l 0.0389,0 c 0.0389,0.9148 0.2141,1.59604 0.50606,2.23835 l 2.31621,0 c 0.13624,0 0.25303,-0.0195 0.25303,-0.0778 0,-0.0195 -0.0389,-0.0389 -0.11679,-0.0584 -0.83695,-0.2141 -1.07051,-0.72016 -1.07051,-2.33567 l 0,-7.72718 z" />
      <path
         id="path4319"
         style="font-style:normal;font-variant:normal;font-weight:bold;font-stretch:normal;font-size:19.46393776px;font-family:Americana;-inkscape-font-specification:'Americana Bold';fill:#000000"
         d="m 147.06627,311.95153 c -0.50606,-0.68123 -1.05105,-1.36247 -1.05105,-1.73229 0,-0.54499 0.56445,-0.54499 0.56445,-0.64231 0,-0.0779 -0.0973,-0.0779 -0.25303,-0.0779 -0.58392,0 -0.81748,0.0779 -1.71282,0.0779 -0.93427,0 -1.16784,-0.0779 -1.75176,-0.0779 -0.23357,0 -0.31142,0 -0.31142,0.0779 0,0.0584 0.31142,0.0973 0.44767,0.21411 0.29196,0.23356 1.14837,1.20676 2.00478,2.33567 l 1.9464,2.70549 -1.90747,2.16049 c -0.9148,1.05106 -1.53765,1.75176 -2.60816,2.45246 -0.2725,0.17518 -0.46714,0.15571 -0.46714,0.23357 0,0.0584 0.0779,0.0779 0.17518,0.0779 0.11678,0 0.77855,-0.0584 1.57657,-0.0584 0.7591,0 1.22623,0.0584 1.32355,0.0584 0.13625,0 0.25303,0 0.25303,-0.0584 0,-0.0389 -0.0973,-0.0584 -0.25303,-0.11678 -0.23356,-0.0389 -0.38928,-0.31143 -0.38928,-0.56446 0,-0.44767 0.44767,-1.32354 1.10945,-2.06317 l 1.34301,-1.73229 1.4598,2.00478 c 0.58391,0.79802 1.10944,1.55712 1.10944,1.82961 0,0.23357 -0.11678,0.40874 -0.33089,0.50606 -0.13624,0.0389 -0.33088,0.0584 -0.33088,0.11679 0,0.0584 0.0778,0.0779 0.17517,0.0779 0.11679,0 0.60338,-0.0584 2.08264,-0.0584 1.59605,0 1.888,0.0584 1.98532,0.0584 0.0973,0 0.21411,-0.0195 0.19464,-0.0584 -0.0195,-0.0584 -0.17517,-0.0973 -0.40874,-0.23357 -0.75909,-0.46713 -2.02425,-2.14103 -2.51085,-2.82227 l -2.02425,-2.74441 2.14104,-2.33567 c 0.50606,-0.545 1.20676,-1.05106 1.73229,-1.49873 0.40874,-0.35035 0.7007,-0.38928 0.7007,-0.4866 0,-0.0779 -0.0779,-0.0779 -0.19464,-0.0779 -0.46713,0 -0.64231,0.0779 -1.34301,0.0779 -0.73963,0 -0.91481,-0.0779 -1.38194,-0.0779 -0.11679,0 -0.25303,0.0389 -0.25303,0.0973 0,0.0973 0.2141,0.11678 0.31142,0.25303 0.15571,0.15571 0.25303,0.35035 0.25303,0.60338 0,0.50606 -0.75909,1.34301 -1.20676,1.90747 l -0.99266,1.20676 -1.20677,-1.61551 z" />
      <path
         id="path4321"
         style="font-style:normal;font-variant:normal;font-weight:bold;font-stretch:normal;font-size:19.46393776px;font-family:Americana;-inkscape-font-specification:'Americana Bold';fill:#000000"
         d="m 170.5781,310.45281 c -0.95373,-0.7007 -3.23101,-1.16784 -4.34046,-1.16784 -3.30887,0 -5.76132,2.23836 -5.76132,5.35259 0,3.11423 2.45245,5.35258 5.76132,5.35258 2.10211,0 3.42566,-0.95373 4.47671,-2.74442 l -0.31142,-0.31142 c -0.72017,1.44033 -2.25782,2.56924 -3.91226,2.56924 -1.79068,0 -3.75654,-1.34301 -3.75654,-4.86598 0.0195,-2.3746 0.93427,-4.98277 3.48405,-4.98277 2.02425,0 3.0753,1.20676 3.5619,2.60817 0.0389,0.11678 0.0584,0.23356 0.11678,0.23356 0.0584,0 0.13625,-0.2141 0.23357,-0.52552 l 0.44767,-1.51819 z" />
      <path
         id="path4323"
         style="font-style:normal;font-variant:normal;font-weight:bold;font-stretch:normal;font-size:19.46393776px;font-family:Americana;-inkscape-font-specification:'Americana Bold';fill:#000000"
         d="m 174.3687,314.63756 c 0,-2.29675 0.60338,-4.98277 3.50351,-4.98277 2.91959,0 3.52297,2.68602 3.52297,4.98277 0,2.29674 -0.60338,4.98277 -3.52297,4.98277 -2.90013,0 -3.50351,-2.68603 -3.50351,-4.98277 z m -2.25782,0 c 0,3.11423 2.45246,5.35258 5.76133,5.35258 3.32833,0 5.78079,-2.23835 5.78079,-5.35258 0,-3.11423 -2.45246,-5.35259 -5.78079,-5.35259 -3.30887,0 -5.76133,2.23836 -5.76133,5.35259 z" />
      <path
         id="path4325"
         style="font-style:normal;font-variant:normal;font-weight:bold;font-stretch:normal;font-size:19.46393776px;font-family:Americana;-inkscape-font-specification:'Americana Bold';fill:#000000"
         d="m 187.58502,309.49908 c -0.72017,0.25303 -1.51819,0.38928 -2.45246,0.56445 -0.23357,0.0389 -0.36981,0.0389 -0.36981,0.0973 0,0.0389 0.13624,0.0973 0.35035,0.19464 0.54499,0.23357 0.68124,0.89534 0.68124,2.06318 l 0,4.82705 c 0,1.22623 -0.0779,2.14104 -1.05106,2.29675 -0.13624,0.0195 -0.2141,0.0584 -0.2141,0.11678 0,0.0779 0.0584,0.0973 0.17517,0.0973 0.13625,0 1.03159,-0.0584 2.08265,-0.0584 1.05105,0 1.84907,0.0584 1.98532,0.0584 0.11678,0 0.17517,-0.0195 0.17517,-0.0973 0,-0.0584 -0.0778,-0.0973 -0.2141,-0.11678 -0.87588,-0.15571 -0.93427,-1.07052 -0.93427,-2.29675 l 0,-2.3746 c 0,-2.72495 0.75909,-5.09955 3.0753,-5.09955 2.06318,0 2.8612,1.90747 2.8612,3.69815 l 0,3.776 c 0,1.7323 -0.35035,2.25782 -1.05105,2.33568 -0.13625,0.0195 -0.17518,0.0779 -0.17518,0.11678 0,0.0584 0.0973,0.0584 0.21411,0.0584 0.25303,0 0.95373,-0.0584 2.00478,-0.0584 1.07052,0 1.57658,0.0584 1.75176,0.0584 0.19464,0 0.29196,0 0.29196,-0.0584 0,-0.0389 -0.11679,-0.0973 -0.25303,-0.13625 -0.56446,-0.19464 -0.81749,-0.46713 -0.77856,-2.31621 l 0,-3.75653 c 0,-3.09477 -2.00479,-4.20422 -4.14582,-4.20422 -2.56924,0 -3.52297,1.36248 -3.97064,3.01691 l -0.0389,0 0,-2.8028 z" />
      <path
         id="path4327"
         style="font-style:normal;font-variant:normal;font-weight:bold;font-stretch:normal;font-size:19.46393776px;font-family:Americana;-inkscape-font-specification:'Americana Bold';fill:#000000"
         d="m 199.01886,310.68638 0,7.59093 c 0,0.73963 0.2725,1.16784 0.81749,1.42087 l 2.35514,0 c 0.17517,0 0.31142,-0.0195 0.31142,-0.0778 0,-0.0584 -0.0779,-0.0779 -0.23357,-0.13625 -0.62284,-0.21411 -1.24569,-0.68124 -1.24569,-3.26994 l 0,-5.52776 2.02425,0 0.13625,-0.62285 -2.1605,0 0,-2.51085 c 0,-0.13624 0,-0.27249 -0.0973,-0.27249 -0.0779,0 -0.15571,0.0584 -0.2141,0.19464 -0.72017,1.47926 -1.65444,2.3746 -2.76388,2.76388 -0.23357,0.0973 -0.38928,0.17517 -0.38928,0.27249 0,0.0973 0.0779,0.17518 0.19464,0.17518 l 1.26515,0 z" />
      <path
         id="path4329"
         style="font-style:normal;font-variant:normal;font-weight:bold;font-stretch:normal;font-size:19.46393776px;font-family:Americana;-inkscape-font-specification:'Americana Bold';fill:#000000"
         d="m 207.03771,309.49908 c -0.81749,0.29196 -1.63497,0.4866 -2.53031,0.64231 -0.13625,0.0389 -0.38928,0.0195 -0.40875,0.0973 0,0.0389 0.0973,0.0973 0.29196,0.15571 0.68124,0.15571 0.7591,0.85641 0.7591,2.19942 l 0,4.65188 c 0,1.63498 -0.13625,2.02425 -1.05106,2.35514 -0.13624,0.0195 -0.2141,0.0584 -0.2141,0.0973 0,0.0389 0.0779,0.0584 0.17518,0.0584 0.11678,0 1.03158,-0.0584 2.08264,-0.0584 1.07051,0 2.02425,0.0584 2.16049,0.0584 0.0973,0 0.15572,0 0.15572,-0.0584 0,-0.0389 -0.0584,-0.0778 -0.19464,-0.11678 -1.01213,-0.19464 -1.10945,-1.10945 -1.10945,-2.33568 l 0,-3.58136 c 0,-1.26516 0.73963,-2.68602 1.84908,-2.68602 0.40874,0 0.87587,0.0584 1.20676,0.31142 l 0.81749,-2.00479 c -1.82962,-0.0779 -3.19209,1.10945 -3.95118,2.72496 l -0.0389,0 0,-2.51085 z" />
      <path
         id="path4331"
         style="font-style:normal;font-variant:normal;font-weight:bold;font-stretch:normal;font-size:19.46393776px;font-family:Americana;-inkscape-font-specification:'Americana Bold';fill:#000000"
         d="m 214.01887,314.63756 c 0,-2.29675 0.60338,-4.98277 3.50351,-4.98277 2.91959,0 3.52297,2.68602 3.52297,4.98277 0,2.29674 -0.60338,4.98277 -3.52297,4.98277 -2.90013,0 -3.50351,-2.68603 -3.50351,-4.98277 z m -2.25782,0 c 0,3.11423 2.45246,5.35258 5.76133,5.35258 3.32833,0 5.78079,-2.23835 5.78079,-5.35258 0,-3.11423 -2.45246,-5.35259 -5.78079,-5.35259 -3.30887,0 -5.76133,2.23836 -5.76133,5.35259 z" />
      <path
         id="path4333"
         style="font-style:normal;font-variant:normal;font-weight:bold;font-stretch:normal;font-size:19.46393776px;font-family:Americana;-inkscape-font-specification:'Americana Bold';fill:#000000"
         d="m 227.72179,305.58683 c -0.93427,0.25303 -1.75176,0.44767 -2.66656,0.62284 -0.13625,0.0195 -0.29196,0.0389 -0.29196,0.13625 0,0.0779 0.17517,0.13625 0.29196,0.15571 0.48659,0.0973 0.66177,0.4866 0.66177,1.44033 l 0,9.30376 c 0,1.22623 -0.0389,1.88801 -1.10944,2.33568 -0.0779,0.0389 -0.11679,0.0779 -0.11679,0.11678 0,0.0584 0.0779,0.0584 0.19464,0.0584 0.13625,0 0.9732,-0.0584 2.02425,-0.0584 1.4598,0 1.96586,0.0584 2.06318,0.0584 0.0778,0 0.17517,-0.0195 0.17517,-0.0584 0,-0.0389 -0.0389,-0.0778 -0.11678,-0.11678 -1.05105,-0.36982 -1.10944,-1.10945 -1.10944,-2.33568 l 0,-11.65889 z" />
      <path
         id="path4335"
         style="font-style:normal;font-variant:normal;font-weight:bold;font-stretch:normal;font-size:19.46393776px;font-family:Americana;-inkscape-font-specification:'Americana Bold';fill:#000000"
         d="m 244.04351,315.22148 c 0,1.86853 -0.7007,4.28206 -2.99745,4.28206 -1.38194,0 -2.41353,-1.03159 -2.41353,-2.45245 0,-2.56924 2.1605,-3.19209 4.26261,-3.19209 l 1.14837,0 0,1.36248 z m 2.00478,-2.68603 c 0,-2.45245 -2.33567,-3.25048 -4.55456,-3.25048 -1.73229,0 -2.99744,0.13625 -4.59349,0.9732 l 0.50607,1.75176 c 0.0389,0.11678 0.0584,0.2141 0.0973,0.2141 0.0389,0 0.0779,-0.15571 0.15571,-0.33089 0.7007,-1.71282 1.75175,-2.23835 3.54243,-2.23835 1.96586,0 2.84174,1.32355 2.84174,3.19209 l 0,0.64231 -1.10945,0 c -2.04371,0 -6.55934,0.29195 -6.55934,3.25047 0,2.31621 2.08264,3.25048 4.10689,3.25048 1.71283,0 2.84173,-0.7007 3.60083,-2.27728 l 0.0389,0 c 0.0389,0.68124 0.19463,1.36248 0.46713,1.98532 l 2.1021,0 c 0.13625,0 0.25304,-0.0195 0.25304,-0.0778 0,-0.0584 -0.0779,-0.0584 -0.19464,-0.11679 -0.60339,-0.27249 -0.70071,-0.85641 -0.70071,-1.49872 l 0,-5.46937 z" />
      <path
         id="path4337"
         style="font-style:normal;font-variant:normal;font-weight:bold;font-stretch:normal;font-size:19.46393776px;font-family:Americana;-inkscape-font-specification:'Americana Bold';fill:#000000"
         d="m 250.84282,309.49908 c -0.72016,0.25303 -1.51818,0.38928 -2.45245,0.56445 -0.23357,0.0389 -0.36982,0.0389 -0.36982,0.0973 0,0.0389 0.13625,0.0973 0.35035,0.19464 0.54499,0.23357 0.68124,0.89534 0.68124,2.06318 l 0,4.82705 c 0,1.22623 -0.0779,2.14104 -1.05105,2.29675 -0.13625,0.0195 -0.21411,0.0584 -0.21411,0.11678 0,0.0779 0.0584,0.0973 0.17518,0.0973 0.13625,0 1.03159,-0.0584 2.08264,-0.0584 1.05105,0 1.84908,0.0584 1.98532,0.0584 0.11679,0 0.17518,-0.0195 0.17518,-0.0973 0,-0.0584 -0.0779,-0.0973 -0.21411,-0.11678 -0.87587,-0.15571 -0.93426,-1.07052 -0.93426,-2.29675 l 0,-2.3746 c 0,-2.72495 0.75909,-5.09955 3.0753,-5.09955 2.06318,0 2.8612,1.90747 2.8612,3.69815 l 0,3.776 c 0,1.7323 -0.35035,2.25782 -1.05106,2.33568 -0.13624,0.0195 -0.17517,0.0779 -0.17517,0.11678 0,0.0584 0.0973,0.0584 0.2141,0.0584 0.25303,0 0.95373,-0.0584 2.00479,-0.0584 1.07051,0 1.57658,0.0584 1.75175,0.0584 0.19464,0 0.29196,0 0.29196,-0.0584 0,-0.0389 -0.11678,-0.0973 -0.25303,-0.13625 -0.56445,-0.19464 -0.81749,-0.46713 -0.77856,-2.31621 l 0,-3.75653 c 0,-3.09477 -2.00478,-4.20422 -4.14582,-4.20422 -2.56924,0 -3.52297,1.36248 -3.97064,3.01691 l -0.0389,0 0,-2.8028 z" />
      <path
         id="path4339"
         style="font-style:normal;font-variant:normal;font-weight:bold;font-stretch:normal;font-size:19.46393776px;font-family:Americana;-inkscape-font-specification:'Americana Bold';fill:#000000"
         d="m 263.15254,314.63756 c 0,-4.08743 2.12157,-4.86599 3.40619,-4.86599 1.26515,0 3.38672,0.77856 3.38672,4.86599 0,3.62029 -2.12157,4.86598 -3.38672,4.86598 -1.28462,0 -3.40619,-0.77856 -3.40619,-4.86598 z m 8.70038,-9.05073 c -0.93427,0.25303 -1.75176,0.44767 -2.66656,0.62284 -0.13625,0.0195 -0.35035,0.0389 -0.35035,0.11679 0,0.0584 0.11678,0.0779 0.25303,0.11678 0.75909,0.15571 0.75909,0.79802 0.75909,1.49872 l 0,2.99745 -0.0389,0 c -0.77856,-1.05105 -2.19943,-1.65444 -3.89279,-1.65444 -2.84174,0 -5.0217,2.58871 -5.0217,5.35259 0,3.26994 2.29675,5.35258 5.0217,5.35258 1.96586,0 3.19208,-0.9148 3.95118,-2.23835 l 0.0389,0 c 0.0973,0.4866 0.2141,1.24569 0.56445,1.94639 l 2.29674,0 c 0.23357,0 0.33089,-0.0195 0.33089,-0.0778 0,-0.0389 -0.0584,-0.0779 -0.13625,-0.0973 -0.7007,-0.19464 -0.97319,-0.93427 -1.03159,-1.69337 -0.0779,-1.05105 -0.0779,-2.12157 -0.0779,-3.19208 l 0,-9.05073 z" />
      <path
         id="path4341"
         style="font-style:normal;font-variant:normal;font-weight:bold;font-stretch:normal;font-size:19.46393776px;font-family:Americana;-inkscape-font-specification:'Americana Bold';fill:#000000"
         d="m 282.73783,309.49908 c -0.72017,0.25303 -1.53765,0.44767 -2.45246,0.62284 -0.13625,0.0195 -0.29196,0.0389 -0.29196,0.15572 0,0.0584 0.17518,0.0778 0.31142,0.0973 0.64231,0.13625 0.64231,0.93427 0.64231,1.47926 l 0,4.72974 c 0,1.47926 -0.0195,2.74442 -0.60338,2.95852 -0.0778,0.0389 -0.13625,0.0779 -0.13625,0.15571 0,0.0584 0.0779,0.0584 0.21411,0.0584 0.15571,0 0.46713,-0.0584 1.51819,-0.0584 1.07051,0 1.63497,0.0584 1.77121,0.0584 0.17518,0 0.2725,0 0.2725,-0.0584 0,-0.0584 -0.0389,-0.13625 -0.11678,-0.15571 -0.77856,-0.17518 -0.91481,-1.07052 -0.91481,-2.29675 l 0,-2.74441 c 0,-1.84907 0.58392,-4.72974 2.93905,-4.72974 1.79069,0 2.41353,1.53765 2.41353,3.09477 l 0,4.37938 c 0,1.22623 -0.17517,2.10211 -0.95373,2.33568 -0.0779,0.0195 -0.11678,0.0779 -0.11678,0.11678 0,0.0389 0.0973,0.0584 0.15571,0.0584 0.2141,0 0.85641,-0.0584 1.90746,-0.0584 1.07052,0 1.71283,0.0584 1.84908,0.0584 0.0779,0 0.2141,-0.0195 0.2141,-0.0779 0,-0.0779 -0.0778,-0.15571 -0.23357,-0.17518 -0.7007,-0.11678 -0.81748,-0.72016 -0.81748,-1.69336 l 0,-3.30887 c 0,-1.84907 0.58392,-4.72974 2.93905,-4.72974 1.79069,0 2.41353,1.53765 2.41353,3.09477 l 0,3.93171 c 0,1.6739 -0.0973,2.49139 -0.9732,2.74442 -0.0778,0.0389 -0.13624,0.0584 -0.13624,0.11678 0,0.0389 0.0389,0.0973 0.15571,0.0973 0.0973,0 0.89534,-0.0584 1.94639,-0.0584 1.07052,0 1.63497,0.0584 1.75176,0.0584 0.11678,0 0.27249,-0.0195 0.27249,-0.0584 0,-0.0778 -0.13625,-0.11678 -0.25303,-0.15571 -0.60338,-0.19464 -0.75909,-0.54499 -0.75909,-1.71283 l 0,-4.12635 c 0,-3.62029 -1.84908,-4.41832 -3.6203,-4.41832 -1.888,0 -3.26994,0.85642 -3.81493,2.70549 l -0.0389,0 c -0.31142,-1.73229 -1.69336,-2.70549 -3.5035,-2.70549 -1.88801,0 -3.26995,0.85642 -3.91226,2.70549 l -0.0389,0 0,-2.49138 z" />
      <path
         id="path4343"
         style="font-style:normal;font-variant:normal;font-weight:bold;font-stretch:normal;font-size:19.46393776px;font-family:Americana;-inkscape-font-specification:'Americana Bold';fill:#000000"
         d="m 301.96911,312.90527 c 0.2141,-1.6739 1.16783,-3.25048 2.93905,-3.25048 2.02425,0 2.93906,1.34301 2.93906,3.25048 l -5.87811,0 z m 8.33056,0.36981 c -0.27249,-2.70549 -2.84173,-3.99011 -4.9633,-3.99011 -3.30887,0 -5.76133,2.23836 -5.76133,5.35259 0,3.11423 2.45246,5.35258 5.76133,5.35258 2.64709,0 4.59349,-1.61551 5.21633,-4.30153 l -0.40874,0 c -0.66177,2.27728 -2.31621,3.81493 -4.55456,3.81493 -1.888,0 -3.75654,-1.34301 -3.75654,-4.9633 0,-0.40875 0.0195,-0.81749 0.0584,-1.26516 l 8.40842,0 z" />
      <path
         id="path4345"
         style="font-style:normal;font-variant:normal;font-weight:bold;font-stretch:normal;font-size:19.46393776px;font-family:Americana;-inkscape-font-specification:'Americana Bold';fill:#000000"
         d="m 319.5423,315.22148 c 0,1.86853 -0.7007,4.28206 -2.99744,4.28206 -1.38194,0 -2.41353,-1.03159 -2.41353,-2.45245 0,-2.56924 2.1605,-3.19209 4.2626,-3.19209 l 1.14837,0 0,1.36248 z m 2.00479,-2.68603 c 0,-2.45245 -2.33567,-3.25048 -4.55456,-3.25048 -1.73229,0 -2.99745,0.13625 -4.59349,0.9732 l 0.50606,1.75176 c 0.0389,0.11678 0.0584,0.2141 0.0973,0.2141 0.0389,0 0.0779,-0.15571 0.15571,-0.33089 0.7007,-1.71282 1.75176,-2.23835 3.54244,-2.23835 1.96586,0 2.84173,1.32355 2.84173,3.19209 l 0,0.64231 -1.10944,0 c -2.04371,0 -6.55935,0.29195 -6.55935,3.25047 0,2.31621 2.08264,3.25048 4.10689,3.25048 1.71283,0 2.84174,-0.7007 3.60083,-2.27728 l 0.0389,0 c 0.0389,0.68124 0.19464,1.36248 0.46713,1.98532 l 2.10211,0 c 0.13625,0 0.25303,-0.0195 0.25303,-0.0778 0,-0.0584 -0.0779,-0.0584 -0.19464,-0.11679 -0.60338,-0.27249 -0.7007,-0.85641 -0.7007,-1.49872 l 0,-5.46937 z" />
      <path
         id="path4347"
         style="font-style:normal;font-variant:normal;font-weight:bold;font-stretch:normal;font-size:19.46393776px;font-family:Americana;-inkscape-font-specification:'Americana Bold';fill:#000000"
         d="m 332.84256,310.0246 c -1.05106,-0.4282 -2.49139,-0.73963 -3.6203,-0.73963 -2.12156,0 -5.11901,0.58392 -5.11901,3.26995 0,2.16049 2.27728,2.70548 4.00957,2.86119 2.27728,0.19464 3.44512,0.38928 3.44512,1.86854 0,1.79069 -1.86854,2.33568 -3.36726,2.33568 -1.34302,0 -3.69815,-0.68124 -4.00958,-2.21889 -0.0195,-0.0973 -0.0389,-0.17518 -0.11678,-0.17518 -0.0584,0 -0.11678,0.13625 -0.17517,0.36982 l -0.40875,1.6155 c 1.4598,0.54499 3.03638,0.77856 4.59349,0.77856 2.19943,0 5.43044,-0.66177 5.43044,-3.44512 0,-1.86853 -1.24569,-2.5887 -3.97064,-2.76388 -1.79068,-0.11678 -3.48405,-0.4282 -3.48405,-1.79068 0,-1.6739 1.34301,-2.33567 2.84174,-2.33567 1.59604,0 2.95852,0.81748 3.15316,1.90747 0.0195,0.11678 0.0779,0.15571 0.13624,0.15571 0.0779,0 0.11679,-0.0973 0.17518,-0.23357 l 0.4866,-1.4598 z" />
      <path
         id="path4349"
         style="font-style:normal;font-variant:normal;font-weight:bold;font-stretch:normal;font-size:19.46393776px;font-family:Americana;-inkscape-font-specification:'Americana Bold';fill:#000000"
         d="m 345.4409,309.49908 c -0.97319,0.23357 -1.75175,0.36981 -2.51085,0.4866 -0.0973,0.0195 -0.31142,0.0584 -0.31142,0.11678 0,0.0195 0.0779,0.0389 0.25303,0.13625 0.35035,0.17517 0.56446,0.4282 0.56446,1.6155 l 0,3.91226 c 0,1.81014 -0.9732,3.73707 -2.99745,3.73707 -2.06318,0 -2.8612,-1.90746 -2.8612,-3.69815 l 0,-6.30631 c -0.93427,0.25303 -1.75175,0.44767 -2.62763,0.56445 -0.17518,0.0195 -0.29196,0.0195 -0.29196,0.0779 0,0.0584 0.13625,0.11678 0.29196,0.15571 0.54499,0.19464 0.62285,0.42821 0.62285,1.55711 l 0,3.93172 c 0,3.13369 1.36247,4.20421 4.14581,4.20421 2.00479,0 3.15316,-0.79802 3.79547,-2.53031 l 0.0389,0 c 0.0389,0.9148 0.2141,1.59604 0.50606,2.23835 l 2.31621,0 c 0.13625,0 0.25303,-0.0195 0.25303,-0.0778 0,-0.0195 -0.0389,-0.0389 -0.11678,-0.0584 -0.83695,-0.2141 -1.07052,-0.72016 -1.07052,-2.33567 l 0,-7.72718 z" />
      <path
         id="path4351"
         style="font-style:normal;font-variant:normal;font-weight:bold;font-stretch:normal;font-size:19.46393776px;font-family:Americana;-inkscape-font-specification:'Americana Bold';fill:#000000"
         d="m 350.43218,309.49908 c -0.81749,0.29196 -1.63497,0.4866 -2.53031,0.64231 -0.13625,0.0389 -0.38928,0.0195 -0.40875,0.0973 0,0.0389 0.0973,0.0973 0.29196,0.15571 0.68124,0.15571 0.7591,0.85641 0.7591,2.19942 l 0,4.65188 c 0,1.63498 -0.13625,2.02425 -1.05106,2.35514 -0.13624,0.0195 -0.2141,0.0584 -0.2141,0.0973 0,0.0389 0.0779,0.0584 0.17518,0.0584 0.11678,0 1.03158,-0.0584 2.08264,-0.0584 1.07051,0 2.02425,0.0584 2.16049,0.0584 0.0973,0 0.15572,0 0.15572,-0.0584 0,-0.0389 -0.0584,-0.0778 -0.19464,-0.11678 -1.01213,-0.19464 -1.10945,-1.10945 -1.10945,-2.33568 l 0,-3.58136 c 0,-1.26516 0.73963,-2.68602 1.84908,-2.68602 0.40874,0 0.87587,0.0584 1.20676,0.31142 l 0.81749,-2.00479 c -1.82961,-0.0779 -3.19209,1.10945 -3.95118,2.72496 l -0.0389,0 0,-2.51085 z" />
      <path
         id="path4353"
         style="font-style:normal;font-variant:normal;font-weight:bold;font-stretch:normal;font-size:19.46393776px;font-family:Americana;-inkscape-font-specification:'Americana Bold';fill:#000000"
         d="m 357.66639,309.49908 c -0.72017,0.25303 -1.53766,0.44767 -2.45246,0.62284 -0.13625,0.0195 -0.29196,0.0389 -0.29196,0.15572 0,0.0584 0.17518,0.0778 0.31142,0.0973 0.64231,0.13625 0.64231,0.93427 0.64231,1.47926 l 0,4.72974 c 0,1.47926 -0.0195,2.74442 -0.60338,2.95852 -0.0779,0.0389 -0.13625,0.0779 -0.13625,0.15571 0,0.0584 0.0779,0.0584 0.21411,0.0584 0.15571,0 0.46713,-0.0584 1.51818,-0.0584 1.07052,0 1.63497,0.0584 1.77122,0.0584 0.17518,0 0.2725,0 0.2725,-0.0584 0,-0.0584 -0.0389,-0.13625 -0.11679,-0.15571 -0.77855,-0.17518 -0.9148,-1.07052 -0.9148,-2.29675 l 0,-2.74441 c 0,-1.84907 0.58392,-4.72974 2.93905,-4.72974 1.79069,0 2.41353,1.53765 2.41353,3.09477 l 0,4.37938 c 0,1.22623 -0.17517,2.10211 -0.95373,2.33568 -0.0779,0.0195 -0.11679,0.0779 -0.11679,0.11678 0,0.0389 0.0973,0.0584 0.15572,0.0584 0.2141,0 0.85641,-0.0584 1.90746,-0.0584 1.07052,0 1.71283,0.0584 1.84908,0.0584 0.0779,0 0.2141,-0.0195 0.2141,-0.0779 0,-0.0779 -0.0779,-0.15571 -0.23357,-0.17518 -0.7007,-0.11678 -0.81748,-0.72016 -0.81748,-1.69336 l 0,-3.30887 c 0,-1.84907 0.58391,-4.72974 2.93905,-4.72974 1.79068,0 2.41353,1.53765 2.41353,3.09477 l 0,3.93171 c 0,1.6739 -0.0973,2.49139 -0.9732,2.74442 -0.0778,0.0389 -0.13624,0.0584 -0.13624,0.11678 0,0.0389 0.0389,0.0973 0.15571,0.0973 0.0973,0 0.89534,-0.0584 1.94639,-0.0584 1.07052,0 1.63497,0.0584 1.75175,0.0584 0.11679,0 0.2725,-0.0195 0.2725,-0.0584 0,-0.0778 -0.13625,-0.11678 -0.25303,-0.15571 -0.60338,-0.19464 -0.75909,-0.54499 -0.75909,-1.71283 l 0,-4.12635 c 0,-3.62029 -1.84908,-4.41832 -3.6203,-4.41832 -1.888,0 -3.26994,0.85642 -3.81493,2.70549 l -0.0389,0 c -0.31142,-1.73229 -1.69336,-2.70549 -3.50351,-2.70549 -1.888,0 -3.26994,0.85642 -3.91225,2.70549 l -0.0389,0 0,-2.49138 z" />
      <path
         id="path4355"
         style="font-style:normal;font-variant:normal;font-weight:bold;font-stretch:normal;font-size:19.46393776px;font-family:Americana;-inkscape-font-specification:'Americana Bold';fill:#000000"
         d="m 376.89766,312.90527 c 0.21411,-1.6739 1.16784,-3.25048 2.93906,-3.25048 2.02425,0 2.93905,1.34301 2.93905,3.25048 l -5.87811,0 z m 8.33057,0.36981 c -0.2725,-2.70549 -2.84174,-3.99011 -4.9633,-3.99011 -3.30887,0 -5.76133,2.23836 -5.76133,5.35259 0,3.11423 2.45246,5.35258 5.76133,5.35258 2.64709,0 4.59348,-1.61551 5.21633,-4.30153 l -0.40874,0 c -0.66178,2.27728 -2.31621,3.81493 -4.55456,3.81493 -1.88801,0 -3.75654,-1.34301 -3.75654,-4.9633 0,-0.40875 0.0195,-0.81749 0.0584,-1.26516 l 8.40842,0 z" />
      <path
         id="path4357"
         style="font-style:normal;font-variant:normal;font-weight:bold;font-stretch:normal;font-size:19.46393776px;font-family:Americana;-inkscape-font-specification:'Americana Bold';fill:#000000"
         d="m 389.37133,309.49908 c -0.72017,0.25303 -1.51819,0.38928 -2.45246,0.56445 -0.23357,0.0389 -0.36982,0.0389 -0.36982,0.0973 0,0.0389 0.13625,0.0973 0.35036,0.19464 0.54499,0.23357 0.68123,0.89534 0.68123,2.06318 l 0,4.82705 c 0,1.22623 -0.0779,2.14104 -1.05105,2.29675 -0.13625,0.0195 -0.2141,0.0584 -0.2141,0.11678 0,0.0779 0.0584,0.0973 0.17517,0.0973 0.13625,0 1.03159,-0.0584 2.08264,-0.0584 1.05106,0 1.84908,0.0584 1.98533,0.0584 0.11678,0 0.17517,-0.0195 0.17517,-0.0973 0,-0.0584 -0.0778,-0.0973 -0.2141,-0.11678 -0.87588,-0.15571 -0.93427,-1.07052 -0.93427,-2.29675 l 0,-2.3746 c 0,-2.72495 0.75909,-5.09955 3.0753,-5.09955 2.06318,0 2.8612,1.90747 2.8612,3.69815 l 0,3.776 c 0,1.7323 -0.35035,2.25782 -1.05105,2.33568 -0.13625,0.0195 -0.17518,0.0779 -0.17518,0.11678 0,0.0584 0.0973,0.0584 0.21411,0.0584 0.25303,0 0.95373,-0.0584 2.00478,-0.0584 1.07052,0 1.57658,0.0584 1.75176,0.0584 0.19463,0 0.29195,0 0.29195,-0.0584 0,-0.0389 -0.11678,-0.0973 -0.25303,-0.13625 -0.56445,-0.19464 -0.81748,-0.46713 -0.77855,-2.31621 l 0,-3.75653 c 0,-3.09477 -2.00479,-4.20422 -4.14582,-4.20422 -2.56924,0 -3.52298,1.36248 -3.97065,3.01691 l -0.0389,0 0,-2.8028 z" />
      <path
         id="path4359"
         style="font-style:normal;font-variant:normal;font-weight:bold;font-stretch:normal;font-size:19.46393776px;font-family:Americana;-inkscape-font-specification:'Americana Bold';fill:#000000"
         d="m 400.80515,310.68638 0,7.59093 c 0,0.73963 0.2725,1.16784 0.81749,1.42087 l 2.35513,0 c 0.17518,0 0.31142,-0.0195 0.31142,-0.0778 0,-0.0584 -0.0779,-0.0779 -0.23356,-0.13625 -0.62285,-0.21411 -1.24569,-0.68124 -1.24569,-3.26994 l 0,-5.52776 2.02425,0 0.13624,-0.62285 -2.16049,0 0,-2.51085 c 0,-0.13624 0,-0.27249 -0.0973,-0.27249 -0.0779,0 -0.15572,0.0584 -0.21411,0.19464 -0.72016,1.47926 -1.65443,2.3746 -2.76388,2.76388 -0.23356,0.0973 -0.38928,0.17517 -0.38928,0.27249 0,0.0973 0.0779,0.17518 0.19464,0.17518 l 1.26516,0 z" />
      <path
         id="path4361"
         style="font-style:normal;font-variant:normal;font-weight:bold;font-stretch:normal;font-size:19.46393776px;font-family:Americana;-inkscape-font-specification:'Americana Bold';fill:#000000"
         d="m 414.49225,314.63756 c 0,-4.08743 2.12156,-4.86599 3.40618,-4.86599 1.26516,0 3.38673,0.77856 3.38673,4.86599 0,3.62029 -2.12157,4.86598 -3.38673,4.86598 -1.28462,0 -3.40618,-0.77856 -3.40618,-4.86598 z m 8.70038,-9.05073 c -0.93427,0.25303 -1.75176,0.44767 -2.66656,0.62284 -0.13625,0.0195 -0.35035,0.0389 -0.35035,0.11679 0,0.0584 0.11678,0.0779 0.25303,0.11678 0.75909,0.15571 0.75909,0.79802 0.75909,1.49872 l 0,2.99745 -0.0389,0 c -0.77856,-1.05105 -2.19942,-1.65444 -3.89279,-1.65444 -2.84173,0 -5.02169,2.58871 -5.02169,5.35259 0,3.26994 2.29674,5.35258 5.02169,5.35258 1.96586,0 3.19209,-0.9148 3.95118,-2.23835 l 0.0389,0 c 0.0973,0.4866 0.21411,1.24569 0.56446,1.94639 l 2.29674,0 c 0.23357,0 0.33089,-0.0195 0.33089,-0.0778 0,-0.0389 -0.0584,-0.0779 -0.13625,-0.0973 -0.7007,-0.19464 -0.9732,-0.93427 -1.03159,-1.69337 -0.0779,-1.05105 -0.0779,-2.12157 -0.0779,-3.19208 l 0,-9.05073 z" />
      <path
         id="path4363"
         style="font-style:normal;font-variant:normal;font-weight:bold;font-stretch:normal;font-size:19.46393776px;font-family:Americana;-inkscape-font-specification:'Americana Bold';fill:#000000"
         d="m 427.57232,312.90527 c 0.2141,-1.6739 1.16783,-3.25048 2.93905,-3.25048 2.02425,0 2.93906,1.34301 2.93906,3.25048 l -5.87811,0 z m 8.33056,0.36981 c -0.27249,-2.70549 -2.84173,-3.99011 -4.9633,-3.99011 -3.30887,0 -5.76133,2.23836 -5.76133,5.35259 0,3.11423 2.45246,5.35258 5.76133,5.35258 2.64709,0 4.59349,-1.61551 5.21633,-4.30153 l -0.40874,0 c -0.66177,2.27728 -2.31621,3.81493 -4.55456,3.81493 -1.888,0 -3.75654,-1.34301 -3.75654,-4.9633 0,-0.40875 0.0195,-0.81749 0.0584,-1.26516 l 8.40842,0 z" />
      <path
         id="path4365"
         style="font-style:normal;font-variant:normal;font-weight:bold;font-stretch:normal;font-size:19.46393776px;font-family:Americana;-inkscape-font-specification:'Americana Bold';fill:#000000"
         d="m 440.76614,311.79582 c -0.17517,-0.36981 -0.48659,-0.93427 -0.48659,-1.32355 0,-0.4282 0.23356,-0.66177 0.54499,-0.73962 0.0973,-0.0389 0.17517,-0.0973 0.17517,-0.15572 0,-0.0584 -0.15571,-0.0779 -0.25303,-0.0779 -0.15571,0 -0.85641,0.0779 -1.75175,0.0779 -0.93427,0 -1.42087,-0.0779 -1.7323,-0.0779 -0.13624,0 -0.25303,0 -0.25303,0.0779 0,0.0584 0.0779,0.0973 0.23357,0.19464 0.81749,0.54499 1.44033,1.81015 2.17996,3.28941 l 3.40619,6.6372 c 0.11678,0.19464 0.13625,0.29196 0.19464,0.29196 l 0.0389,0 c 0.0584,0 0.17517,-0.15571 0.23357,-0.27249 l 3.79546,-7.26005 c 0.66178,-1.1873 1.34302,-2.21889 1.98533,-2.66656 0.11678,-0.0779 0.17517,-0.15571 0.17517,-0.23357 0,-0.0584 -0.11678,-0.0584 -0.25303,-0.0584 -0.50606,0 -0.68124,0.0779 -1.44033,0.0779 -0.79802,0 -0.9732,-0.0779 -1.47926,-0.0779 -0.11678,0 -0.19464,0.0195 -0.19464,0.0779 0,0.0584 0.0779,0.0973 0.17517,0.11679 0.46714,0.15571 0.89535,0.38928 0.89535,1.05105 0,0.56445 -0.31143,1.28462 -0.66178,2.04371 l -2.49138,4.84652 -3.03638,-5.83918 z" />
      <path
         id="path4367"
         style="font-style:normal;font-variant:normal;font-weight:bold;font-stretch:normal;font-size:19.46393776px;font-family:Americana;-inkscape-font-specification:'Americana Bold';fill:#000000"
         d="m 451.14895,317.24572 c 0,1.22623 -0.13625,2.10211 -1.03159,2.27729 -0.11679,0.0195 -0.19464,0.0584 -0.19464,0.17517 0,0.0584 0.0973,0.0584 0.27249,0.0584 0.19464,0 0.89534,-0.0584 1.9464,-0.0584 1.05105,0 1.75175,0.0584 1.94639,0.0584 0.17518,0 0.2725,0 0.2725,-0.0584 0,-0.11678 -0.0779,-0.15571 -0.19464,-0.17517 -0.89535,-0.17518 -1.01213,-1.05106 -1.01213,-2.27729 l 0,-7.74664 c -0.93427,0.25303 -1.75175,0.44767 -2.66656,0.62284 -0.13625,0.0195 -0.35035,0.0389 -0.35035,0.0779 0,0.0584 0.2141,0.0584 0.33089,0.11678 0.31142,0.17518 0.68124,0.29196 0.68124,1.26516 l 0,5.664 z m 0.83694,-9.0118 c 0.66178,0 1.16784,-0.52552 1.16784,-1.14837 0,-0.62285 -0.50606,-1.16784 -1.16784,-1.16784 -0.62284,0 -1.14837,0.54499 -1.14837,1.16784 0,0.62285 0.52553,1.14837 1.14837,1.14837 z" />
      <path
         id="path4369"
         style="font-style:normal;font-variant:normal;font-weight:bold;font-stretch:normal;font-size:19.46393776px;font-family:Americana;-inkscape-font-specification:'Americana Bold';fill:#000000"
         d="m 465.61643,310.45281 c -0.95373,-0.7007 -3.23101,-1.16784 -4.34046,-1.16784 -3.30887,0 -5.76132,2.23836 -5.76132,5.35259 0,3.11423 2.45245,5.35258 5.76132,5.35258 2.10211,0 3.42566,-0.95373 4.47671,-2.74442 l -0.31142,-0.31142 c -0.72017,1.44033 -2.25782,2.56924 -3.91226,2.56924 -1.79068,0 -3.75654,-1.34301 -3.75654,-4.86598 0.0195,-2.3746 0.93427,-4.98277 3.48405,-4.98277 2.02425,0 3.0753,1.20676 3.5619,2.60817 0.0389,0.11678 0.0584,0.23356 0.11678,0.23356 0.0584,0 0.13625,-0.2141 0.23357,-0.52552 l 0.44767,-1.51819 z" />
      <path
         id="path4371"
         style="font-style:normal;font-variant:normal;font-weight:bold;font-stretch:normal;font-size:19.46393776px;font-family:Americana;-inkscape-font-specification:'Americana Bold';fill:#000000"
         d="m 469.46541,312.90527 c 0.21411,-1.6739 1.16784,-3.25048 2.93906,-3.25048 2.02425,0 2.93905,1.34301 2.93905,3.25048 l -5.87811,0 z m 8.33057,0.36981 c -0.2725,-2.70549 -2.84174,-3.99011 -4.96331,-3.99011 -3.30886,0 -5.76132,2.23836 -5.76132,5.35259 0,3.11423 2.45246,5.35258 5.76132,5.35258 2.6471,0 4.59349,-1.61551 5.21634,-4.30153 l -0.40874,0 c -0.66178,2.27728 -2.31621,3.81493 -4.55456,3.81493 -1.88801,0 -3.75654,-1.34301 -3.75654,-4.9633 0,-0.40875 0.0195,-0.81749 0.0584,-1.26516 l 8.40842,0 z" />
      <path
         id="path4373"
         style="font-style:normal;font-variant:normal;font-weight:bold;font-stretch:normal;font-size:19.46393776px;font-family:Americana;-inkscape-font-specification:'Americana Bold';fill:#000000"
         d="m 486.73143,317.24572 c 0,1.22623 -0.13624,2.10211 -1.03158,2.27729 -0.11679,0.0195 -0.19464,0.0584 -0.19464,0.17517 0,0.0584 0.0973,0.0584 0.27249,0.0584 0.19464,0 0.89534,-0.0584 1.9464,-0.0584 1.05105,0 1.75175,0.0584 1.94639,0.0584 0.17517,0 0.27249,0 0.27249,-0.0584 0,-0.11678 -0.0778,-0.15571 -0.19464,-0.17517 -0.89534,-0.17518 -1.01212,-1.05106 -1.01212,-2.27729 l 0,-7.74664 c -0.93427,0.25303 -1.75175,0.44767 -2.66656,0.62284 -0.13625,0.0195 -0.35035,0.0389 -0.35035,0.0779 0,0.0584 0.2141,0.0584 0.33089,0.11678 0.31142,0.17518 0.68123,0.29196 0.68123,1.26516 l 0,5.664 z m 0.83695,-9.0118 c 0.66178,0 1.16784,-0.52552 1.16784,-1.14837 0,-0.62285 -0.50606,-1.16784 -1.16784,-1.16784 -0.62284,0 -1.14837,0.54499 -1.14837,1.16784 0,0.62285 0.52553,1.14837 1.14837,1.14837 z" />
      <path
         id="path4375"
         style="font-style:normal;font-variant:normal;font-weight:bold;font-stretch:normal;font-size:19.46393776px;font-family:Americana;-inkscape-font-specification:'Americana Bold';fill:#000000"
         d="m 493.68584,309.49908 c -0.72017,0.25303 -1.51819,0.38928 -2.45246,0.56445 -0.23356,0.0389 -0.36981,0.0389 -0.36981,0.0973 0,0.0389 0.13625,0.0973 0.35035,0.19464 0.54499,0.23357 0.68124,0.89534 0.68124,2.06318 l 0,4.82705 c 0,1.22623 -0.0779,2.14104 -1.05105,2.29675 -0.13625,0.0195 -0.21411,0.0584 -0.21411,0.11678 0,0.0779 0.0584,0.0973 0.17518,0.0973 0.13624,0 1.03159,-0.0584 2.08264,-0.0584 1.05105,0 1.84907,0.0584 1.98532,0.0584 0.11678,0 0.17518,-0.0195 0.17518,-0.0973 0,-0.0584 -0.0779,-0.0973 -0.21411,-0.11678 -0.87587,-0.15571 -0.93427,-1.07052 -0.93427,-2.29675 l 0,-2.3746 c 0,-2.72495 0.7591,-5.09955 3.07531,-5.09955 2.06317,0 2.86119,1.90747 2.86119,3.69815 l 0,3.776 c 0,1.7323 -0.35035,2.25782 -1.05105,2.33568 -0.13625,0.0195 -0.17517,0.0779 -0.17517,0.11678 0,0.0584 0.0973,0.0584 0.2141,0.0584 0.25303,0 0.95373,-0.0584 2.00479,-0.0584 1.07051,0 1.57657,0.0584 1.75175,0.0584 0.19464,0 0.29196,0 0.29196,-0.0584 0,-0.0389 -0.11678,-0.0973 -0.25303,-0.13625 -0.56446,-0.19464 -0.81749,-0.46713 -0.77856,-2.31621 l 0,-3.75653 c 0,-3.09477 -2.00479,-4.20422 -4.14582,-4.20422 -2.56924,0 -3.52297,1.36248 -3.97064,3.01691 l -0.0389,0 0,-2.8028 z" />
      <path
         id="path4377"
         style="font-style:normal;font-variant:normal;font-weight:bold;font-stretch:normal;font-size:19.46393776px;font-family:Americana;-inkscape-font-specification:'Americana Bold';fill:#000000"
         d="m 505.11969,310.68638 0,7.59093 c 0,0.73963 0.2725,1.16784 0.81749,1.42087 l 2.35514,0 c 0.17517,0 0.31142,-0.0195 0.31142,-0.0778 0,-0.0584 -0.0779,-0.0779 -0.23357,-0.13625 -0.62284,-0.21411 -1.24569,-0.68124 -1.24569,-3.26994 l 0,-5.52776 2.02425,0 0.13625,-0.62285 -2.1605,0 0,-2.51085 c 0,-0.13624 0,-0.27249 -0.0973,-0.27249 -0.0779,0 -0.15571,0.0584 -0.2141,0.19464 -0.72017,1.47926 -1.65444,2.3746 -2.76388,2.76388 -0.23357,0.0973 -0.38928,0.17517 -0.38928,0.27249 0,0.0973 0.0779,0.17518 0.19464,0.17518 l 1.26515,0 z" />
      <path
         id="path4379"
         style="font-style:normal;font-variant:normal;font-weight:bold;font-stretch:normal;font-size:19.46393776px;font-family:Americana;-inkscape-font-specification:'Americana Bold';fill:#000000"
         d="m 512.61303,312.90527 c 0.2141,-1.6739 1.16783,-3.25048 2.93905,-3.25048 2.02425,0 2.93906,1.34301 2.93906,3.25048 l -5.87811,0 z m 8.33056,0.36981 c -0.27249,-2.70549 -2.84173,-3.99011 -4.9633,-3.99011 -3.30887,0 -5.76133,2.23836 -5.76133,5.35259 0,3.11423 2.45246,5.35258 5.76133,5.35258 2.64709,0 4.59349,-1.61551 5.21633,-4.30153 l -0.40874,0 c -0.66177,2.27728 -2.31621,3.81493 -4.55456,3.81493 -1.888,0 -3.75654,-1.34301 -3.75654,-4.9633 0,-0.40875 0.0195,-0.81749 0.0584,-1.26516 l 8.40842,0 z" />
      <path
         id="path4381"
         style="font-style:normal;font-variant:normal;font-weight:bold;font-stretch:normal;font-size:19.46393776px;font-family:Americana;-inkscape-font-specification:'Americana Bold';fill:#000000"
         d="m 525.41754,309.49908 c -0.81748,0.29196 -1.63497,0.4866 -2.53031,0.64231 -0.13624,0.0389 -0.38928,0.0195 -0.40874,0.0973 0,0.0389 0.0973,0.0973 0.29196,0.15571 0.68124,0.15571 0.75909,0.85641 0.75909,2.19942 l 0,4.65188 c 0,1.63498 -0.13624,2.02425 -1.05105,2.35514 -0.13625,0.0195 -0.2141,0.0584 -0.2141,0.0973 0,0.0389 0.0778,0.0584 0.17517,0.0584 0.11679,0 1.03159,-0.0584 2.08264,-0.0584 1.07052,0 2.02425,0.0584 2.1605,0.0584 0.0973,0 0.15571,0 0.15571,-0.0584 0,-0.0389 -0.0584,-0.0778 -0.19464,-0.11678 -1.01212,-0.19464 -1.10944,-1.10945 -1.10944,-2.33568 l 0,-3.58136 c 0,-1.26516 0.73963,-2.68602 1.84907,-2.68602 0.40875,0 0.87588,0.0584 1.20677,0.31142 l 0.81748,-2.00479 c -1.82961,-0.0779 -3.19208,1.10945 -3.95118,2.72496 l -0.0389,0 0,-2.51085 z" />
      <path
         id="path4383"
         style="font-style:normal;font-variant:normal;font-weight:bold;font-stretch:normal;font-size:19.46393776px;font-family:Americana;-inkscape-font-specification:'Americana Bold';fill:#000000"
         d="m 535.3767,310.06353 -1.90746,0 0,-2.29674 c 0,-0.95374 0.19464,-1.47926 0.97319,-1.47926 0.44767,0 0.85642,0.35035 1.20677,0.93427 0.0584,0.0779 0.15571,0.15571 0.23357,0.15571 0.0973,0 0.13624,-0.19464 0.19463,-0.36982 l 0.545,-1.42086 c -2.99745,0 -5.15795,0.9148 -5.15795,3.85386 l 0,0.62284 -1.44033,0 -0.25303,0.62285 1.69336,0 0,6.55934 c 0,1.22623 -0.0584,1.92693 -0.93427,2.27729 -0.0973,0.0389 -0.27249,0.0584 -0.27249,0.11678 0,0.0389 0.11678,0.0584 0.27249,0.0584 l 3.87333,0 c 0.19464,0 0.27249,-0.0195 0.27249,-0.0584 0,-0.0389 -0.11678,-0.0779 -0.19464,-0.0779 -0.99266,-0.52552 -1.01212,-1.08998 -1.01212,-2.31621 l 0,-6.55934 1.73229,0 0.17517,-0.62285 z" />
      <path
         id="path4385"
         style="font-style:normal;font-variant:normal;font-weight:bold;font-stretch:normal;font-size:19.46393776px;font-family:Americana;-inkscape-font-specification:'Americana Bold';fill:#000000"
         d="m 544.25194,315.22148 c 0,1.86853 -0.7007,4.28206 -2.99744,4.28206 -1.38194,0 -2.41353,-1.03159 -2.41353,-2.45245 0,-2.56924 2.1605,-3.19209 4.2626,-3.19209 l 1.14837,0 0,1.36248 z m 2.00479,-2.68603 c 0,-2.45245 -2.33567,-3.25048 -4.55456,-3.25048 -1.73229,0 -2.99745,0.13625 -4.59349,0.9732 l 0.50606,1.75176 c 0.0389,0.11678 0.0584,0.2141 0.0973,0.2141 0.0389,0 0.0779,-0.15571 0.15571,-0.33089 0.7007,-1.71282 1.75176,-2.23835 3.54244,-2.23835 1.96586,0 2.84173,1.32355 2.84173,3.19209 l 0,0.64231 -1.10944,0 c -2.04371,0 -6.55935,0.29195 -6.55935,3.25047 0,2.31621 2.08264,3.25048 4.10689,3.25048 1.71283,0 2.84174,-0.7007 3.60083,-2.27728 l 0.0389,0 c 0.0389,0.68124 0.19464,1.36248 0.46713,1.98532 l 2.10211,0 c 0.13625,0 0.25303,-0.0195 0.25303,-0.0778 0,-0.0584 -0.0779,-0.0584 -0.19464,-0.11679 -0.60338,-0.27249 -0.7007,-0.85641 -0.7007,-1.49872 l 0,-5.46937 z" />
      <path
         id="path4387"
         style="font-style:normal;font-variant:normal;font-weight:bold;font-stretch:normal;font-size:19.46393776px;font-family:Americana;-inkscape-font-specification:'Americana Bold';fill:#000000"
         d="m 558.56434,310.45281 c -0.95374,-0.7007 -3.23102,-1.16784 -4.34046,-1.16784 -3.30887,0 -5.76133,2.23836 -5.76133,5.35259 0,3.11423 2.45246,5.35258 5.76133,5.35258 2.1021,0 3.42565,-0.95373 4.47671,-2.74442 l -0.31143,-0.31142 c -0.72016,1.44033 -2.25781,2.56924 -3.91225,2.56924 -1.79068,0 -3.75654,-1.34301 -3.75654,-4.86598 0.0195,-2.3746 0.93427,-4.98277 3.48405,-4.98277 2.02424,0 3.0753,1.20676 3.5619,2.60817 0.0389,0.11678 0.0584,0.23356 0.11678,0.23356 0.0584,0 0.13625,-0.2141 0.23357,-0.52552 l 0.44767,-1.51819 z" />
      <path
         id="path4389"
         style="font-style:normal;font-variant:normal;font-weight:bold;font-stretch:normal;font-size:19.46393776px;font-family:Americana;-inkscape-font-specification:'Americana Bold';fill:#000000"
         d="m 562.41332,312.90527 c 0.2141,-1.6739 1.16784,-3.25048 2.93905,-3.25048 2.02425,0 2.93906,1.34301 2.93906,3.25048 l -5.87811,0 z m 8.33057,0.36981 c -0.2725,-2.70549 -2.84174,-3.99011 -4.96331,-3.99011 -3.30887,0 -5.76132,2.23836 -5.76132,5.35259 0,3.11423 2.45245,5.35258 5.76132,5.35258 2.6471,0 4.59349,-1.61551 5.21634,-4.30153 l -0.40875,0 c -0.66177,2.27728 -2.3162,3.81493 -4.55456,3.81493 -1.888,0 -3.75654,-1.34301 -3.75654,-4.9633 0,-0.40875 0.0195,-0.81749 0.0584,-1.26516 l 8.40843,0 z" />
    </g>
  </g>
</svg>
