<?xml version="1.0" encoding="UTF-8" standalone="no"?>
<!-- Created with Inkscape (http://www.inkscape.org/) -->

<svg
   version="1.1"
   id="svg1"
   width="701.40002"
   height="130.14667"
   viewBox="0 0 701.40002 130.14667"
   sodipodi:docname="Logo_OPAL-RT_Horizontal_Color.svg"
   inkscape:version="1.3.2 (091e20e, 2023-11-25, custom)"
   xmlns:inkscape="http://www.inkscape.org/namespaces/inkscape"
   xmlns:sodipodi="http://sodipodi.sourceforge.net/DTD/sodipodi-0.dtd"
   xmlns="http://www.w3.org/2000/svg"
   xmlns:svg="http://www.w3.org/2000/svg">
  <defs
     id="defs1" />
  <sodipodi:namedview
     id="namedview1"
     pagecolor="#ffffff"
     bordercolor="#000000"
     borderopacity="0.25"
     inkscape:showpageshadow="2"
     inkscape:pageopacity="0.0"
     inkscape:pagecheckerboard="0"
     inkscape:deskcolor="#d1d1d1"
     inkscape:zoom="1.1633875"
     inkscape:cx="149.56324"
     inkscape:cy="10.744486"
     inkscape:window-width="2560"
     inkscape:window-height="1494"
     inkscape:window-x="-11"
     inkscape:window-y="-11"
     inkscape:window-maximized="1"
     inkscape:current-layer="g1">
    <inkscape:page
       x="0"
       y="0"
       inkscape:label="1"
       id="page1"
       width="701.40002"
       height="130.14667"
       margin="0"
       bleed="0" />
  </sodipodi:namedview>
  <g
     id="g1"
     inkscape:groupmode="layer"
     inkscape:label="1">
    <g
       id="g2">
      <path
         id="path2"
         d="M 120.09213,82.254938 0,103.42534 v 8.94013 L 124.72346,90.375871 c -1.44533,-2.766667 -2.97813,-5.481867 -4.63133,-8.120933"
         style="fill:#2e5593;fill-opacity:1;fill-rule:nonzero;stroke:none;stroke-width:0.133333" />
      <path
         id="path3"
         d="M 126.862,94.637871 0,117.00708 v 13.13959 h 137.248 c -1.588,-12.56511 -5.1616,-24.4792 -10.386,-35.508799"
         style="fill:#2e5593;fill-opacity:1;fill-rule:nonzero;stroke:none;stroke-width:0.133333" />
      <path
         id="path4"
         d="M 0,20.895606 V 98.787337 L 117.35733,78.094538 C 92.705731,42.131072 48.813065,19.278939 0,20.895606"
         style="fill:#2e5593;fill-opacity:1;fill-rule:nonzero;stroke:none;stroke-width:0.133333" />
      <path
         id="path5"
         d="M 0,8.0658698e-4 V 9.1644064 C 53.408399,9.2529397 99.853598,36.608139 123.89946,76.940938 l 12.0552,-2.124933 c -0.496,-0.895867 -0.98133,-1.796934 -1.5,-2.672934 l 33.40267,-0.638133 -28.49867,9.758933 c -0.36666,-0.742266 -0.752,-1.471333 -1.136,-2.212533 l -11.9372,2.110933 c 1.46614,2.684933 2.84427,5.421867 4.11187,8.212 l 11.788,-2.074933 c -0.368,-0.838667 -0.71333,-1.6876 -1.09733,-2.512 l 32.588,-0.628667 -28.76934,9.857733 c -0.304,-0.804666 -0.624,-1.5948 -0.93866,-2.3932 l -11.69454,2.062534 c 4.69454,11.470262 7.69587,23.712492 8.71054,36.460932 h 38.04266 V 2.7325366e-4 L 0,8.0658698e-4"
         style="fill:#2e5593;fill-opacity:1;fill-rule:nonzero;stroke:none;stroke-width:0.133333" />
    </g>
    <g
       id="g3">
      <path
         id="path6"
         d="m 226.40799,26.804939 v 34.656799 h 42.00667 V 26.804939 Z m -12.74666,3.159467 c 0,-4.975067 0.936,-8.375067 2.80133,-10.207867 1.864,-1.817733 5.46,-2.745866 10.776,-2.745866 h 40.288 c 5.324,0 8.912,0.928133 10.776,2.745866 1.86667,1.8328 2.80267,5.2328 2.80267,10.207867 v 28.838532 c 0,5.019734 -0.936,8.421334 -2.80267,10.238 -1.864,1.8088 -5.452,2.719333 -10.776,2.719333 h -40.288 c -5.316,0 -8.912,-0.910533 -10.776,-2.719333 -1.86533,-1.816666 -2.80133,-5.218266 -2.80133,-10.238 V 29.964406"
         style="fill:#231f20;fill-opacity:1;fill-rule:nonzero;stroke:none;stroke-width:0.133333" />
      <path
         id="path7"
         d="m 343.65599,26.482139 h -28.64533 v 14.509867 h 28.64533 c 2.216,0 3.716,-0.3172 4.53067,-0.947467 0.81333,-0.64 1.21333,-1.792667 1.21333,-3.3932 v -5.861467 c 0,-1.593199 -0.4,-2.701066 -1.21333,-3.336933 -0.81467,-0.648 -2.31467,-0.9708 -4.53067,-0.9708 m -41.168,45.278132 V 17.010673 h 46.81067 c 4.356,0 7.50533,0.834933 9.45333,2.506266 1.95733,1.693734 2.932,4.393334 2.932,8.1136 v 12.238 c 0,3.6896 -0.97467,6.361466 -2.932,8.0308 -1.948,1.680133 -5.09733,2.5276 -9.45333,2.5276 h -34.288 v 21.333332 h -12.52267"
         style="fill:#231f20;fill-opacity:1;fill-rule:nonzero;stroke:none;stroke-width:0.133333" />
      <path
         id="path8"
         d="m 391.62132,49.909739 h 23.97067 l -11.79467,-22.2792 z m -24.50533,21.850532 30.976,-54.749598 h 12.27867 l 31.38533,54.749598 h -14.29067 l -6.57733,-11.965199 h -34.704 l -6.376,11.965199 h -12.692"
         style="fill:#231f20;fill-opacity:1;fill-rule:nonzero;stroke:none;stroke-width:0.133333" />
      <path
         id="path9"
         d="M 461.62932,71.760271 V 17.010673 h 12.73333 v 44.451065 h 41.08 v 10.298533 h -53.81333"
         style="fill:#231f20;fill-opacity:1;fill-rule:nonzero;stroke:none;stroke-width:0.133333" />
      <path
         id="path10"
         d="m 524.90532,38.035206 v 10.931199 h 16.89467 V 38.035206 h -16.89467"
         style="fill:#231f20;fill-opacity:1;fill-rule:nonzero;stroke:none;stroke-width:0.133333" />
      <path
         id="path11"
         d="m 603.88532,26.482139 h -28.64 v 15.223333 h 28.64 c 2.22533,0 3.724,-0.3172 4.54133,-0.947333 0.80933,-0.632267 1.22267,-1.7656 1.22267,-3.388 v -6.580267 c 0,-1.593199 -0.41334,-2.701066 -1.22267,-3.336933 -0.81733,-0.648 -2.316,-0.9708 -4.54133,-0.9708 M 562.71599,71.760271 V 17.010673 h 46.82133 c 4.35066,0 7.51066,0.834933 9.46133,2.506266 1.94133,1.699467 2.91867,4.400534 2.91867,8.1136 v 12.8432 c 0,3.698933 -0.97734,6.3776 -2.91867,8.082266 -1.95067,1.690134 -5.11067,2.5376 -9.46133,2.5376 h -7.15467 l 25.28933,20.666666 H 609.37465 L 587.31999,51.093605 h -12.07467 v 20.666666 h -12.52933"
         style="fill:#231f20;fill-opacity:1;fill-rule:nonzero;stroke:none;stroke-width:0.133333" />
      <path
         id="path12"
         d="M 676.19065,26.795073 V 71.760271 H 663.43598 V 26.795073 h -25.12266 v -9.7844 h 63.08666 v 9.7844 h -25.20933"
         style="fill:#231f20;fill-opacity:1;fill-rule:nonzero;stroke:none;stroke-width:0.133333" />
    </g>
    <g
       id="g4">
      <path
         id="path13"
         d="M 232.71066,92.278404 V 114.7352 h -6.356 V 92.278404 h -12.55333 v -4.8724 h 31.51466 v 4.8724 h -12.60533"
         style="fill:#231f20;fill-opacity:1;fill-rule:nonzero;stroke:none;stroke-width:0.133333" />
      <path
         id="path14"
         d="M 253.10133,114.7352 V 87.406004 h 27.96666 v 4.66 h -21.60933 v 6.091067 h 12.60533 v 4.661469 h -12.60533 v 6.78026 h 21.87333 v 5.1364 h -28.23066"
         style="fill:#231f20;fill-opacity:1;fill-rule:nonzero;stroke:none;stroke-width:0.133333" />
      <path
         id="path15"
         d="M 316.02533,92.278404 H 298.86399 V 109.5988 h 17.16134 v -5.8808 l 6.356,1.32454 v 3.23066 c 0,2.5428 -0.476,4.25627 -1.42934,5.138 -0.95466,0.88387 -2.73733,1.324 -5.34933,1.324 h -16.31467 c -2.61333,0 -4.396,-0.44013 -5.34933,-1.324 -0.95333,-0.88173 -1.43067,-2.5952 -1.43067,-5.138 V 93.868004 c 0,-2.542666 0.47734,-4.256266 1.43067,-5.138 0.95333,-0.8844 2.736,-1.324 5.34933,-1.324 h 16.31467 c 2.612,0 4.39467,0.4396 5.34933,1.324 0.95334,0.881734 1.42934,2.595334 1.42934,5.138 v 2.5948 l -6.356,1.0052 v -5.1896"
         style="fill:#231f20;fill-opacity:1;fill-rule:nonzero;stroke:none;stroke-width:0.133333" />
      <path
         id="path16"
         d="M 335.51732,114.7352 V 87.406004 h 6.356 v 10.592267 h 19.86267 V 87.406004 h 6.408 V 114.7352 h -6.408 v -11.75786 h -19.86267 v 11.75786 h -6.356"
         style="fill:#231f20;fill-opacity:1;fill-rule:nonzero;stroke:none;stroke-width:0.133333" />
      <path
         id="path17"
         d="M 382.07466,114.7352 V 87.406004 h 4.34266 l 19.228,16.101066 c 1.37734,1.1656 2.41734,2.15413 3.12534,2.96667 -0.17867,-2.5432 -0.26667,-4.11347 -0.26667,-4.71507 V 87.406004 h 5.71867 V 114.7352 h -4.34267 l -20.072,-16.895863 c -0.84933,-0.705733 -1.608,-1.447866 -2.27733,-2.224933 0.17333,1.766667 0.264,3.213467 0.264,4.3448 V 114.7352 h -5.72"
         style="fill:#231f20;fill-opacity:1;fill-rule:nonzero;stroke:none;stroke-width:0.133333" />
      <path
         id="path18"
         d="m 433.92666,109.5988 h 20.97733 V 92.278404 h -20.97733 z m -6.35467,-15.730796 c 0,-2.542666 0.476,-4.256266 1.43067,-5.138 0.95333,-0.8844 2.736,-1.324 5.35066,-1.324 h 20.12667 c 2.612,0 4.39467,0.4396 5.348,1.324 0.95333,0.881734 1.43067,2.595334 1.43067,5.138 V 108.2732 c 0,2.5428 -0.47734,4.25627 -1.43067,5.138 -0.95333,0.88387 -2.736,1.324 -5.348,1.324 h -20.12667 c -2.61466,0 -4.39733,-0.44013 -5.35066,-1.324 -0.95467,-0.88173 -1.43067,-2.5952 -1.43067,-5.138 V 93.868004"
         style="fill:#231f20;fill-opacity:1;fill-rule:nonzero;stroke:none;stroke-width:0.133333" />
      <path
         id="path19"
         d="M 474.65999,114.7352 V 87.406004 h 6.356 V 109.5988 h 20.496 v 5.1364 h -26.852"
         style="fill:#231f20;fill-opacity:1;fill-rule:nonzero;stroke:none;stroke-width:0.133333" />
      <path
         id="path20"
         d="m 516.60799,109.5988 h 20.976 V 92.278404 h -20.976 z m -6.356,-15.730796 c 0,-2.542666 0.47866,-4.256266 1.432,-5.138 0.952,-0.8844 2.73466,-1.324 5.34933,-1.324 h 20.128 c 2.612,0 4.39467,0.4396 5.348,1.324 0.95333,0.881734 1.43067,2.595334 1.43067,5.138 V 108.2732 c 0,2.5428 -0.47734,4.25627 -1.43067,5.138 -0.95333,0.88387 -2.736,1.324 -5.348,1.324 h -20.128 c -2.61467,0 -4.39733,-0.44013 -5.34933,-1.324 -0.95334,-0.88173 -1.432,-2.5952 -1.432,-5.138 V 93.868004"
         style="fill:#231f20;fill-opacity:1;fill-rule:nonzero;stroke:none;stroke-width:0.133333" />
      <path
         id="path21"
         d="M 582.97465,92.278404 H 563.11199 V 109.5988 h 19.86266 v -6.09173 h -10.38 v -4.662533 h 16.57734 v 9.428663 c 0,2.5428 -0.476,4.25627 -1.428,5.138 -0.95334,0.88387 -2.73867,1.324 -5.35067,1.324 h -18.856 c -2.61467,0 -4.39733,-0.44013 -5.34933,-1.324 -0.95334,-0.88173 -1.432,-2.5952 -1.432,-5.138 V 93.868004 c 0,-2.542666 0.47866,-4.256266 1.432,-5.138 0.952,-0.8844 2.73466,-1.324 5.34933,-1.324 h 18.856 c 2.54267,0 4.308,0.432267 5.296,1.296934 0.988,0.8672 1.48267,2.4984 1.48267,4.899466 v 0.6344 l -6.19734,1.114534 v -3.072934"
         style="fill:#231f20;fill-opacity:1;fill-rule:nonzero;stroke:none;stroke-width:0.133333" />
      <path
         id="path22"
         d="M 602.62665,114.7352 V 87.406004 h 6.356 V 114.7352 h -6.356"
         style="fill:#231f20;fill-opacity:1;fill-rule:nonzero;stroke:none;stroke-width:0.133333" />
      <path
         id="path23"
         d="M 622.96532,114.7352 V 87.406004 h 27.96533 v 4.66 h -21.61067 v 6.091067 h 12.60534 v 4.661469 h -12.60534 v 6.78026 h 21.876 v 5.1364 h -28.23066"
         style="fill:#231f20;fill-opacity:1;fill-rule:nonzero;stroke:none;stroke-width:0.133333" />
      <path
         id="path24"
         d="m 686.62932,92.171604 h -17.956 v 5.879733 h 17.092 c 2.61866,0 4.416,0.441734 5.388,1.322934 0.97466,0.884399 1.46,2.597869 1.46,5.137999 v 3.76093 c 0,2.5428 -0.48534,4.25627 -1.456,5.138 -0.97067,0.88387 -2.76267,1.324 -5.376,1.324 h -16.896 c -2.61467,0 -4.408,-0.44013 -5.37734,-1.324 -0.972,-0.88173 -1.456,-2.5952 -1.456,-5.138 v -0.7396 l 5.61467,-1.16666 v 3.23186 h 19.33333 v -6.25 h -17.05733 c -2.612,0 -4.39467,-0.44173 -5.348,-1.32453 -0.95467,-0.8812 -1.43067,-2.595333 -1.43067,-5.137999 v -3.018267 c 0,-2.542666 0.476,-4.256266 1.43067,-5.138 0.95333,-0.8844 2.736,-1.324 5.348,-1.324 h 15.52 c 2.50667,0 4.264,0.422934 5.27067,1.269334 1.00666,0.847866 1.51066,2.4192 1.51066,4.715066 v 0.581734 l -5.61466,1.324 v -3.124534"
         style="fill:#231f20;fill-opacity:1;fill-rule:nonzero;stroke:none;stroke-width:0.133333" />
    </g>
  </g>
</svg>
