<svg version="1.1" xmlns="http://www.w3.org/2000/svg" xmlns:xlink="http://www.w3.org/1999/xlink" width="425.84814453125" height="429"><defs/><g><text fill="#eeeeee" stroke="none" font-family="Arial" font-size="24px" font-style="normal" font-weight="normal" text-decoration="none" x="0" y="0">UNREGISTERED</text><text fill="#eeeeee" stroke="none" font-family="Arial" font-size="24px" font-style="normal" font-weight="normal" text-decoration="none" x="0" y="30">UNREGISTERED</text><text fill="#eeeeee" stroke="none" font-family="Arial" font-size="24px" font-style="normal" font-weight="normal" text-decoration="none" x="0" y="60">UNREGISTERED</text><text fill="#eeeeee" stroke="none" font-family="Arial" font-size="24px" font-style="normal" font-weight="normal" text-decoration="none" x="0" y="90">UNREGISTERED</text><text fill="#eeeeee" stroke="none" font-family="Arial" font-size="24px" font-style="normal" font-weight="normal" text-decoration="none" x="0" y="120">UNREGISTERED</text><text fill="#eeeeee" stroke="none" font-family="Arial" font-size="24px" font-style="normal" font-weight="normal" text-decoration="none" x="0" y="150">UNREGISTERED</text><text fill="#eeeeee" stroke="none" font-family="Arial" font-size="24px" font-style="normal" font-weight="normal" text-decoration="none" x="0" y="180">UNREGISTERED</text><text fill="#eeeeee" stroke="none" font-family="Arial" font-size="24px" font-style="normal" font-weight="normal" text-decoration="none" x="0" y="210">UNREGISTERED</text><text fill="#eeeeee" stroke="none" font-family="Arial" font-size="24px" font-style="normal" font-weight="normal" text-decoration="none" x="0" y="240">UNREGISTERED</text><text fill="#eeeeee" stroke="none" font-family="Arial" font-size="24px" font-style="normal" font-weight="normal" text-decoration="none" x="0" y="270">UNREGISTERED</text><text fill="#eeeeee" stroke="none" font-family="Arial" font-size="24px" font-style="normal" font-weight="normal" text-decoration="none" x="0" y="300">UNREGISTERED</text><text fill="#eeeeee" stroke="none" font-family="Arial" font-size="24px" font-style="normal" font-weight="normal" text-decoration="none" x="0" y="330">UNREGISTERED</text><text fill="#eeeeee" stroke="none" font-family="Arial" font-size="24px" font-style="normal" font-weight="normal" text-decoration="none" x="0" y="360">UNREGISTERED</text><text fill="#eeeeee" stroke="none" font-family="Arial" font-size="24px" font-style="normal" font-weight="normal" text-decoration="none" x="0" y="390">UNREGISTERED</text><text fill="#eeeeee" stroke="none" font-family="Arial" font-size="24px" font-style="normal" font-weight="normal" text-decoration="none" x="0" y="420">UNREGISTERED</text><text fill="#eeeeee" stroke="none" font-family="Arial" font-size="24px" font-style="normal" font-weight="normal" text-decoration="none" x="200" y="0">UNREGISTERED</text><text fill="#eeeeee" stroke="none" font-family="Arial" font-size="24px" font-style="normal" font-weight="normal" text-decoration="none" x="200" y="30">UNREGISTERED</text><text fill="#eeeeee" stroke="none" font-family="Arial" font-size="24px" font-style="normal" font-weight="normal" text-decoration="none" x="200" y="60">UNREGISTERED</text><text fill="#eeeeee" stroke="none" font-family="Arial" font-size="24px" font-style="normal" font-weight="normal" text-decoration="none" x="200" y="90">UNREGISTERED</text><text fill="#eeeeee" stroke="none" font-family="Arial" font-size="24px" font-style="normal" font-weight="normal" text-decoration="none" x="200" y="120">UNREGISTERED</text><text fill="#eeeeee" stroke="none" font-family="Arial" font-size="24px" font-style="normal" font-weight="normal" text-decoration="none" x="200" y="150">UNREGISTERED</text><text fill="#eeeeee" stroke="none" font-family="Arial" font-size="24px" font-style="normal" font-weight="normal" text-decoration="none" x="200" y="180">UNREGISTERED</text><text fill="#eeeeee" stroke="none" font-family="Arial" font-size="24px" font-style="normal" font-weight="normal" text-decoration="none" x="200" y="210">UNREGISTERED</text><text fill="#eeeeee" stroke="none" font-family="Arial" font-size="24px" font-style="normal" font-weight="normal" text-decoration="none" x="200" y="240">UNREGISTERED</text><text fill="#eeeeee" stroke="none" font-family="Arial" font-size="24px" font-style="normal" font-weight="normal" text-decoration="none" x="200" y="270">UNREGISTERED</text><text fill="#eeeeee" stroke="none" font-family="Arial" font-size="24px" font-style="normal" font-weight="normal" text-decoration="none" x="200" y="300">UNREGISTERED</text><text fill="#eeeeee" stroke="none" font-family="Arial" font-size="24px" font-style="normal" font-weight="normal" text-decoration="none" x="200" y="330">UNREGISTERED</text><text fill="#eeeeee" stroke="none" font-family="Arial" font-size="24px" font-style="normal" font-weight="normal" text-decoration="none" x="200" y="360">UNREGISTERED</text><text fill="#eeeeee" stroke="none" font-family="Arial" font-size="24px" font-style="normal" font-weight="normal" text-decoration="none" x="200" y="390">UNREGISTERED</text><text fill="#eeeeee" stroke="none" font-family="Arial" font-size="24px" font-style="normal" font-weight="normal" text-decoration="none" x="200" y="420">UNREGISTERED</text><text fill="#eeeeee" stroke="none" font-family="Arial" font-size="24px" font-style="normal" font-weight="normal" text-decoration="none" x="400" y="0">UNREGISTERED</text><text fill="#eeeeee" stroke="none" font-family="Arial" font-size="24px" font-style="normal" font-weight="normal" text-decoration="none" x="400" y="30">UNREGISTERED</text><text fill="#eeeeee" stroke="none" font-family="Arial" font-size="24px" font-style="normal" font-weight="normal" text-decoration="none" x="400" y="60">UNREGISTERED</text><text fill="#eeeeee" stroke="none" font-family="Arial" font-size="24px" font-style="normal" font-weight="normal" text-decoration="none" x="400" y="90">UNREGISTERED</text><text fill="#eeeeee" stroke="none" font-family="Arial" font-size="24px" font-style="normal" font-weight="normal" text-decoration="none" x="400" y="120">UNREGISTERED</text><text fill="#eeeeee" stroke="none" font-family="Arial" font-size="24px" font-style="normal" font-weight="normal" text-decoration="none" x="400" y="150">UNREGISTERED</text><text fill="#eeeeee" stroke="none" font-family="Arial" font-size="24px" font-style="normal" font-weight="normal" text-decoration="none" x="400" y="180">UNREGISTERED</text><text fill="#eeeeee" stroke="none" font-family="Arial" font-size="24px" font-style="normal" font-weight="normal" text-decoration="none" x="400" y="210">UNREGISTERED</text><text fill="#eeeeee" stroke="none" font-family="Arial" font-size="24px" font-style="normal" font-weight="normal" text-decoration="none" x="400" y="240">UNREGISTERED</text><text fill="#eeeeee" stroke="none" font-family="Arial" font-size="24px" font-style="normal" font-weight="normal" text-decoration="none" x="400" y="270">UNREGISTERED</text><text fill="#eeeeee" stroke="none" font-family="Arial" font-size="24px" font-style="normal" font-weight="normal" text-decoration="none" x="400" y="300">UNREGISTERED</text><text fill="#eeeeee" stroke="none" font-family="Arial" font-size="24px" font-style="normal" font-weight="normal" text-decoration="none" x="400" y="330">UNREGISTERED</text><text fill="#eeeeee" stroke="none" font-family="Arial" font-size="24px" font-style="normal" font-weight="normal" text-decoration="none" x="400" y="360">UNREGISTERED</text><text fill="#eeeeee" stroke="none" font-family="Arial" font-size="24px" font-style="normal" font-weight="normal" text-decoration="none" x="400" y="390">UNREGISTERED</text><text fill="#eeeeee" stroke="none" font-family="Arial" font-size="24px" font-style="normal" font-weight="normal" text-decoration="none" x="400" y="420">UNREGISTERED</text><g transform="translate(-279,-292) scale(1,1)"><path fill="#C0C0C0" stroke="none" d="M 299 330.5 C 299 325.2532944 303.2532944 321 308.5 321 C 313.7467056 321 318 325.2532944 318 330.5 C 318 335.7467056 313.7467056 340 308.5 340 C 303.2532944 340 299 335.7467056 299 330.5 Z" opacity="0.2"/></g><g transform="translate(-279,-292) scale(1,1)"><path fill="#000000" stroke="none" d="M 292 323.5 C 292 318.2532944 296.2532944 314 301.5 314 C 306.7467056 314 311 318.2532944 311 323.5 C 311 328.7467056 306.7467056 333 301.5 333 C 296.2532944 333 292 328.7467056 292 323.5 Z"/></g><g transform="translate(-279,-292) scale(1,1)"><path fill="#C0C0C0" stroke="none" d="M 408 311 L 466.34814453125 311 Q 476.34814453125 311 476.34814453125 321 L 476.34814453125 340 Q 476.34814453125 350 466.34814453125 350 L 408 350 Q 398 350 398 340 L 398 321 Q 398 311 408 311 Z" opacity="0.2"/></g><g transform="translate(-279,-292) scale(1,1)"><path fill="#ffffff" stroke="none" d="M 401 304 L 459.34814453125 304 Q 469.34814453125 304 469.34814453125 314 L 469.34814453125 333 Q 469.34814453125 343 459.34814453125 343 L 401 343 Q 391 343 391 333 L 391 314 Q 391 304 401 304 Z"/></g><g transform="translate(-279,-292) scale(1,1)"><path fill="none" stroke="#000000" d="M 401 304 L 459.34814453125 304 Q 469.34814453125 304 469.34814453125 314 L 469.34814453125 333 Q 469.34814453125 343 459.34814453125 343 L 401 343 Q 391 343 391 333 L 391 314 Q 391 304 401 304 Z" stroke-miterlimit="10"/></g><g transform="translate(-279,-292) scale(1,1)"><g><path fill="none" stroke="none"/><text fill="#000000" stroke="none" font-family="Arial" font-size="13px" font-style="normal" font-weight="bold" text-decoration="none" x="403.437744140625" y="323.5">initialized</text></g></g><g transform="translate(-279,-292) scale(1,1)"><g><path fill="none" stroke="none"/><text fill="#000000" stroke="none" font-family="Arial" font-size="13px" font-style="normal" font-weight="normal" text-decoration="none" x="395.5" y="338.5">(from Node)</text></g></g><g transform="translate(-279,-292) scale(1,1)"><path fill="none" stroke="#000000" d="M 312 323 L 390 323" stroke-miterlimit="10"/></g><g transform="translate(-279,-292) scale(1,1)"><path fill="none" stroke="#000000" d="M 379.83732514237585 327.209517756016 L 390 323 L 379.83732514237585 318.790482243984" stroke-miterlimit="10"/></g><g transform="translate(-279,-292) scale(1,1)"><path fill="#C0C0C0" stroke="none" d="M 608 559 L 666.34814453125 559 Q 676.34814453125 559 676.34814453125 569 L 676.34814453125 588 Q 676.34814453125 598 666.34814453125 598 L 608 598 Q 598 598 598 588 L 598 569 Q 598 559 608 559 Z" opacity="0.2"/></g><g transform="translate(-279,-292) scale(1,1)"><path fill="#ffffff" stroke="none" d="M 601 552 L 659.34814453125 552 Q 669.34814453125 552 669.34814453125 562 L 669.34814453125 581 Q 669.34814453125 591 659.34814453125 591 L 601 591 Q 591 591 591 581 L 591 562 Q 591 552 601 552 Z"/></g><g transform="translate(-279,-292) scale(1,1)"><path fill="none" stroke="#000000" d="M 601 552 L 659.34814453125 552 Q 669.34814453125 552 669.34814453125 562 L 669.34814453125 581 Q 669.34814453125 591 659.34814453125 591 L 601 591 Q 591 591 591 581 L 591 562 Q 591 552 601 552 Z" stroke-miterlimit="10"/></g><g transform="translate(-279,-292) scale(1,1)"><g><path fill="none" stroke="none"/><text fill="#000000" stroke="none" font-family="Arial" font-size="13px" font-style="normal" font-weight="bold" text-decoration="none" x="610.302734375" y="571.5">started</text></g></g><g transform="translate(-279,-292) scale(1,1)"><g><path fill="none" stroke="none"/><text fill="#000000" stroke="none" font-family="Arial" font-size="13px" font-style="normal" font-weight="normal" text-decoration="none" x="595.5" y="586.5">(from Node)</text></g></g><g transform="translate(-279,-292) scale(1,1)"><path fill="#C0C0C0" stroke="none" d="M 408 559 L 466.34814453125 559 Q 476.34814453125 559 476.34814453125 569 L 476.34814453125 588 Q 476.34814453125 598 466.34814453125 598 L 408 598 Q 398 598 398 588 L 398 569 Q 398 559 408 559 Z" opacity="0.2"/></g><g transform="translate(-279,-292) scale(1,1)"><path fill="#ffffff" stroke="none" d="M 401 552 L 459.34814453125 552 Q 469.34814453125 552 469.34814453125 562 L 469.34814453125 581 Q 469.34814453125 591 459.34814453125 591 L 401 591 Q 391 591 391 581 L 391 562 Q 391 552 401 552 Z"/></g><g transform="translate(-279,-292) scale(1,1)"><path fill="none" stroke="#000000" d="M 401 552 L 459.34814453125 552 Q 469.34814453125 552 469.34814453125 562 L 469.34814453125 581 Q 469.34814453125 591 459.34814453125 591 L 401 591 Q 391 591 391 581 L 391 562 Q 391 552 401 552 Z" stroke-miterlimit="10"/></g><g transform="translate(-279,-292) scale(1,1)"><g><path fill="none" stroke="none"/><text fill="#000000" stroke="none" font-family="Arial" font-size="13px" font-style="normal" font-weight="bold" text-decoration="none" x="407.043212890625" y="571.5">stopped</text></g></g><g transform="translate(-279,-292) scale(1,1)"><g><path fill="none" stroke="none"/><text fill="#000000" stroke="none" font-family="Arial" font-size="13px" font-style="normal" font-weight="normal" text-decoration="none" x="395.5" y="586.5">(from Node)</text></g></g><g transform="translate(-279,-292) scale(1,1)"><path fill="none" stroke="#000000" d="M 590 571 L 470 571" stroke-miterlimit="10"/></g><g transform="translate(-279,-292) scale(1,1)"><path fill="none" stroke="#000000" d="M 480.16267485762415 566.790482243984 L 470 571 L 480.16267485762415 575.209517756016" stroke-miterlimit="10"/></g><g transform="translate(-279,-292) scale(1,1)"><g><path fill="none" stroke="none"/><text fill="#000000" stroke="none" font-family="Arial" font-size="13px" font-style="normal" font-weight="normal" text-decoration="none" x="508.5" y="592.5">_stop()</text></g></g><g transform="translate(-279,-292) scale(1,1)"><path fill="#C0C0C0" stroke="none" d="M 408 423 L 466.34814453125 423 Q 476.34814453125 423 476.34814453125 433 L 476.34814453125 452 Q 476.34814453125 462 466.34814453125 462 L 408 462 Q 398 462 398 452 L 398 433 Q 398 423 408 423 Z" opacity="0.2"/></g><g transform="translate(-279,-292) scale(1,1)"><path fill="#ffffff" stroke="none" d="M 401 416 L 459.34814453125 416 Q 469.34814453125 416 469.34814453125 426 L 469.34814453125 445 Q 469.34814453125 455 459.34814453125 455 L 401 455 Q 391 455 391 445 L 391 426 Q 391 416 401 416 Z"/></g><g transform="translate(-279,-292) scale(1,1)"><path fill="none" stroke="#000000" d="M 401 416 L 459.34814453125 416 Q 469.34814453125 416 469.34814453125 426 L 469.34814453125 445 Q 469.34814453125 455 459.34814453125 455 L 401 455 Q 391 455 391 445 L 391 426 Q 391 416 401 416 Z" stroke-miterlimit="10"/></g><g transform="translate(-279,-292) scale(1,1)"><g><path fill="none" stroke="none"/><text fill="#000000" stroke="none" font-family="Arial" font-size="13px" font-style="normal" font-weight="bold" text-decoration="none" x="401.628662109375" y="435.5">destroyed</text></g></g><g transform="translate(-279,-292) scale(1,1)"><g><path fill="none" stroke="none"/><text fill="#000000" stroke="none" font-family="Arial" font-size="13px" font-style="normal" font-weight="normal" text-decoration="none" x="395.5" y="450.5">(from Node)</text></g></g><g transform="translate(-279,-292) scale(1,1)"><path fill="none" stroke="#000000" d="M 430 551 L 430 456" stroke-miterlimit="10"/></g><g transform="translate(-279,-292) scale(1,1)"><path fill="none" stroke="#000000" d="M 434.209517756016 466.16267485762415 L 430 456 L 425.790482243984 466.16267485762415" stroke-miterlimit="10"/></g><g transform="translate(-279,-292) scale(1,1)"><g><path fill="none" stroke="none"/><text fill="#000000" stroke="none" font-family="Arial" font-size="13px" font-style="normal" font-weight="normal" text-decoration="none" x="348.5" y="508.5">_destroy()</text></g></g><g transform="translate(-279,-292) scale(1,1)"><path fill="none" stroke="#000000" d="M 430 344 L 430 415" stroke-miterlimit="10"/></g><g transform="translate(-279,-292) scale(1,1)"><path fill="none" stroke="#000000" d="M 425.790482243984 404.83732514237585 L 430 415 L 434.209517756016 404.83732514237585" stroke-miterlimit="10"/></g><g transform="translate(-279,-292) scale(1,1)"><g><path fill="none" stroke="none"/><text fill="#000000" stroke="none" font-family="Arial" font-size="13px" font-style="normal" font-weight="normal" text-decoration="none" x="357.5" y="383.5">_destroy()</text></g></g><g transform="translate(-279,-292) scale(1,1)"><path fill="#C0C0C0" stroke="none" d="M 608 423 L 666.34814453125 423 Q 676.34814453125 423 676.34814453125 433 L 676.34814453125 452 Q 676.34814453125 462 666.34814453125 462 L 608 462 Q 598 462 598 452 L 598 433 Q 598 423 608 423 Z" opacity="0.2"/></g><g transform="translate(-279,-292) scale(1,1)"><path fill="#ffffff" stroke="none" d="M 601 416 L 659.34814453125 416 Q 669.34814453125 416 669.34814453125 426 L 669.34814453125 445 Q 669.34814453125 455 659.34814453125 455 L 601 455 Q 591 455 591 445 L 591 426 Q 591 416 601 416 Z"/></g><g transform="translate(-279,-292) scale(1,1)"><path fill="none" stroke="#000000" d="M 601 416 L 659.34814453125 416 Q 669.34814453125 416 669.34814453125 426 L 669.34814453125 445 Q 669.34814453125 455 659.34814453125 455 L 601 455 Q 591 455 591 445 L 591 426 Q 591 416 601 416 Z" stroke-miterlimit="10"/></g><g transform="translate(-279,-292) scale(1,1)"><g><path fill="none" stroke="none"/><text fill="#000000" stroke="none" font-family="Arial" font-size="13px" font-style="normal" font-weight="bold" text-decoration="none" x="605.964111328125" y="435.5">checked</text></g></g><g transform="translate(-279,-292) scale(1,1)"><g><path fill="none" stroke="none"/><text fill="#000000" stroke="none" font-family="Arial" font-size="13px" font-style="normal" font-weight="normal" text-decoration="none" x="595.5" y="450.5">(from Node)</text></g></g><g transform="translate(-279,-292) scale(1,1)"><path fill="none" stroke="#000000" d="M 630 456 L 630 551" stroke-miterlimit="10"/></g><g transform="translate(-279,-292) scale(1,1)"><path fill="none" stroke="#000000" d="M 625.790482243984 540.8373251423759 L 630 551 L 634.209517756016 540.8373251423759" stroke-miterlimit="10"/></g><g transform="translate(-279,-292) scale(1,1)"><g><path fill="none" stroke="none"/><text fill="#000000" stroke="none" font-family="Arial" font-size="13px" font-style="normal" font-weight="normal" text-decoration="none" x="646.5" y="508.5">_start()</text></g></g><g transform="translate(-279,-292) scale(1,1)"><path fill="none" stroke="#000000" d="M 590 435 L 470 435" stroke-miterlimit="10"/></g><g transform="translate(-279,-292) scale(1,1)"><path fill="none" stroke="#000000" d="M 480.16267485762415 430.790482243984 L 470 435 L 480.16267485762415 439.209517756016" stroke-miterlimit="10"/></g><g transform="translate(-279,-292) scale(1,1)"><g><path fill="none" stroke="none"/><text fill="#000000" stroke="none" font-family="Arial" font-size="13px" font-style="normal" font-weight="normal" text-decoration="none" x="499.5" y="456.5">_destroy()</text></g></g><g transform="translate(-279,-292) scale(1,1)"><path fill="#C0C0C0" stroke="none" d="M 608 311 L 666.34814453125 311 Q 676.34814453125 311 676.34814453125 321 L 676.34814453125 340 Q 676.34814453125 350 666.34814453125 350 L 608 350 Q 598 350 598 340 L 598 321 Q 598 311 608 311 Z" opacity="0.2"/></g><g transform="translate(-279,-292) scale(1,1)"><path fill="#ffffff" stroke="none" d="M 601 304 L 659.34814453125 304 Q 669.34814453125 304 669.34814453125 314 L 669.34814453125 333 Q 669.34814453125 343 659.34814453125 343 L 601 343 Q 591 343 591 333 L 591 314 Q 591 304 601 304 Z"/></g><g transform="translate(-279,-292) scale(1,1)"><path fill="none" stroke="#000000" d="M 601 304 L 659.34814453125 304 Q 669.34814453125 304 669.34814453125 314 L 669.34814453125 333 Q 669.34814453125 343 659.34814453125 343 L 601 343 Q 591 343 591 333 L 591 314 Q 591 304 601 304 Z" stroke-miterlimit="10"/></g><g transform="translate(-279,-292) scale(1,1)"><g><path fill="none" stroke="none"/><text fill="#000000" stroke="none" font-family="Arial" font-size="13px" font-style="normal" font-weight="bold" text-decoration="none" x="610.299560546875" y="323.5">parsed</text></g></g><g transform="translate(-279,-292) scale(1,1)"><g><path fill="none" stroke="none"/><text fill="#000000" stroke="none" font-family="Arial" font-size="13px" font-style="normal" font-weight="normal" text-decoration="none" x="595.5" y="338.5">(from Node)</text></g></g><g transform="translate(-279,-292) scale(1,1)"><path fill="none" stroke="#000000" d="M 470 323 L 590 323" stroke-miterlimit="10"/></g><g transform="translate(-279,-292) scale(1,1)"><path fill="none" stroke="#000000" d="M 579.8373251423759 327.209517756016 L 590 323 L 579.8373251423758 318.790482243984" stroke-miterlimit="10"/></g><g transform="translate(-279,-292) scale(1,1)"><g><path fill="none" stroke="none"/><text fill="#000000" stroke="none" font-family="Arial" font-size="13px" font-style="normal" font-weight="normal" text-decoration="none" x="513.5" y="314.5">_init()</text></g></g><g transform="translate(-279,-292) scale(1,1)"><path fill="none" stroke="#000000" d="M 630 415 L 630 344" stroke-miterlimit="10"/></g><g transform="translate(-279,-292) scale(1,1)"><path fill="none" stroke="#000000" d="M 634.209517756016 354.16267485762415 L 630 344 L 625.790482243984 354.16267485762415" stroke-miterlimit="10"/></g><g transform="translate(-279,-292) scale(1,1)"><g><path fill="none" stroke="none"/><text fill="#000000" stroke="none" font-family="Arial" font-size="13px" font-style="normal" font-weight="normal" text-decoration="none" x="645.5" y="383.5">_check()</text></g></g><g transform="translate(-279,-292) scale(1,1)"><path fill="none" stroke="#000000" d="M 593 344 L 466 415" stroke-miterlimit="10"/></g><g transform="translate(-279,-292) scale(1,1)"><path fill="none" stroke="#000000" d="M 472.8164247580305 406.3665561032628 L 466 415 L 476.9247068942277 413.71517344547476" stroke-miterlimit="10"/></g><g transform="translate(-279,-292) scale(1,1)"><g><path fill="none" stroke="none"/><text fill="#000000" stroke="none" font-family="Arial" font-size="13px" font-style="normal" font-weight="normal" text-decoration="none" x="525.5" y="397.5">_destroy()</text></g></g><g transform="translate(-279,-292) scale(1,1)"><path fill="#C0C0C0" stroke="none" d="M 296 442.5 C 296 435.59644 301.59644 430 308.5 430 C 315.40356 430 321 435.59644 321 442.5 C 321 449.40356 315.40356 455 308.5 455 C 301.59644 455 296 449.40356 296 442.5 Z" opacity="0.2"/></g><g transform="translate(-279,-292) scale(1,1)"><path fill="none" stroke="#000000" d="M 289 435.5 C 289 428.59644 294.59644 423 301.5 423 C 308.40356 423 314 428.59644 314 435.5 C 314 442.40356 308.40356 448 301.5 448 C 294.59644 448 289 442.40356 289 435.5 Z" stroke-miterlimit="10"/></g><g transform="translate(-279,-292) scale(1,1)"><path fill="#000000" stroke="none" d="M 294 435.5 C 294 431.357864 297.357864 428 301.5 428 C 305.642136 428 309 431.357864 309 435.5 C 309 439.642136 305.642136 443 301.5 443 C 297.357864 443 294 439.642136 294 435.5 Z"/></g><g transform="translate(-279,-292) scale(1,1)"><path fill="none" stroke="#000000" d="M 390 435 L 315 435" stroke-miterlimit="10"/></g><g transform="translate(-279,-292) scale(1,1)"><path fill="none" stroke="#000000" d="M 325.16267485762415 430.790482243984 L 315 435 L 325.16267485762415 439.209517756016" stroke-miterlimit="10"/></g><g transform="translate(-279,-292) scale(1,1)"><path fill="#C0C0C0" stroke="none" d="M 513 679 L 567.0126953125 679 Q 577.0126953125 679 577.0126953125 689 L 577.0126953125 708 Q 577.0126953125 718 567.0126953125 718 L 513 718 Q 503 718 503 708 L 503 689 Q 503 679 513 679 Z" opacity="0.2"/></g><g transform="translate(-279,-292) scale(1,1)"><path fill="#ffffff" stroke="none" d="M 506 672 L 560.0126953125 672 Q 570.0126953125 672 570.0126953125 682 L 570.0126953125 701 Q 570.0126953125 711 560.0126953125 711 L 506 711 Q 496 711 496 701 L 496 682 Q 496 672 506 672 Z"/></g><g transform="translate(-279,-292) scale(1,1)"><path fill="none" stroke="#000000" d="M 506 672 L 560.0126953125 672 Q 570.0126953125 672 570.0126953125 682 L 570.0126953125 701 Q 570.0126953125 711 560.0126953125 711 L 506 711 Q 496 711 496 701 L 496 682 Q 496 672 506 672 Z" stroke-miterlimit="10"/></g><g transform="translate(-279,-292) scale(1,1)"><g><path fill="none" stroke="none"/><text fill="#000000" stroke="none" font-family="Arial" font-size="13px" font-style="normal" font-weight="bold" text-decoration="none" x="503.010498046875" y="691.5">connected</text></g></g><g transform="translate(-279,-292) scale(1,1)"><path fill="none" stroke="#000000" d="M 613 592 L 549 671" stroke-miterlimit="10"/></g><g transform="translate(-279,-292) scale(1,1)"><path fill="none" stroke="#000000" d="M 552.1263503739448 660.4536293759732 L 549 671 L 558.6680737349374 665.7532533646255" stroke-miterlimit="10"/></g><g transform="translate(-279,-292) scale(1,1)"><path fill="none" stroke="#000000" d="M 549 671 L 613 592" stroke-miterlimit="10"/></g><g transform="translate(-279,-292) scale(1,1)"><path fill="none" stroke="#000000" d="M 609.8736496260552 602.5463706240268 L 613 592 L 603.3319262650626 597.2467466353745" stroke-miterlimit="10"/></g><g transform="translate(-279,-292) scale(1,1)"><path fill="none" stroke="#000000" d="M 470 571 L 590 571" stroke-miterlimit="10"/></g><g transform="translate(-279,-292) scale(1,1)"><path fill="none" stroke="#000000" d="M 579.8373251423759 575.209517756016 L 590 571 L 579.8373251423758 566.790482243984" stroke-miterlimit="10"/></g><g transform="translate(-279,-292) scale(1,1)"><path fill="none" stroke="#000000" d="M 516 671 L 448 592" stroke-miterlimit="10"/></g><g transform="translate(-279,-292) scale(1,1)"><path fill="none" stroke="#000000" d="M 457.82022105575646 596.9561334138698 L 448 592 L 451.4394293558637 602.448460446689" stroke-miterlimit="10"/></g></g></svg>