<svg version="1.1" xmlns="http://www.w3.org/2000/svg" xmlns:xlink="http://www.w3.org/1999/xlink" width="363.84814453125" height="286"><defs/><g><text fill="#eeeeee" stroke="none" font-family="Arial" font-size="24px" font-style="normal" font-weight="normal" text-decoration="none" x="0" y="0">UNREGISTERED</text><text fill="#eeeeee" stroke="none" font-family="Arial" font-size="24px" font-style="normal" font-weight="normal" text-decoration="none" x="0" y="30">UNREGISTERED</text><text fill="#eeeeee" stroke="none" font-family="Arial" font-size="24px" font-style="normal" font-weight="normal" text-decoration="none" x="0" y="60">UNREGISTERED</text><text fill="#eeeeee" stroke="none" font-family="Arial" font-size="24px" font-style="normal" font-weight="normal" text-decoration="none" x="0" y="90">UNREGISTERED</text><text fill="#eeeeee" stroke="none" font-family="Arial" font-size="24px" font-style="normal" font-weight="normal" text-decoration="none" x="0" y="120">UNREGISTERED</text><text fill="#eeeeee" stroke="none" font-family="Arial" font-size="24px" font-style="normal" font-weight="normal" text-decoration="none" x="0" y="150">UNREGISTERED</text><text fill="#eeeeee" stroke="none" font-family="Arial" font-size="24px" font-style="normal" font-weight="normal" text-decoration="none" x="0" y="180">UNREGISTERED</text><text fill="#eeeeee" stroke="none" font-family="Arial" font-size="24px" font-style="normal" font-weight="normal" text-decoration="none" x="0" y="210">UNREGISTERED</text><text fill="#eeeeee" stroke="none" font-family="Arial" font-size="24px" font-style="normal" font-weight="normal" text-decoration="none" x="0" y="240">UNREGISTERED</text><text fill="#eeeeee" stroke="none" font-family="Arial" font-size="24px" font-style="normal" font-weight="normal" text-decoration="none" x="0" y="270">UNREGISTERED</text><text fill="#eeeeee" stroke="none" font-family="Arial" font-size="24px" font-style="normal" font-weight="normal" text-decoration="none" x="200" y="0">UNREGISTERED</text><text fill="#eeeeee" stroke="none" font-family="Arial" font-size="24px" font-style="normal" font-weight="normal" text-decoration="none" x="200" y="30">UNREGISTERED</text><text fill="#eeeeee" stroke="none" font-family="Arial" font-size="24px" font-style="normal" font-weight="normal" text-decoration="none" x="200" y="60">UNREGISTERED</text><text fill="#eeeeee" stroke="none" font-family="Arial" font-size="24px" font-style="normal" font-weight="normal" text-decoration="none" x="200" y="90">UNREGISTERED</text><text fill="#eeeeee" stroke="none" font-family="Arial" font-size="24px" font-style="normal" font-weight="normal" text-decoration="none" x="200" y="120">UNREGISTERED</text><text fill="#eeeeee" stroke="none" font-family="Arial" font-size="24px" font-style="normal" font-weight="normal" text-decoration="none" x="200" y="150">UNREGISTERED</text><text fill="#eeeeee" stroke="none" font-family="Arial" font-size="24px" font-style="normal" font-weight="normal" text-decoration="none" x="200" y="180">UNREGISTERED</text><text fill="#eeeeee" stroke="none" font-family="Arial" font-size="24px" font-style="normal" font-weight="normal" text-decoration="none" x="200" y="210">UNREGISTERED</text><text fill="#eeeeee" stroke="none" font-family="Arial" font-size="24px" font-style="normal" font-weight="normal" text-decoration="none" x="200" y="240">UNREGISTERED</text><text fill="#eeeeee" stroke="none" font-family="Arial" font-size="24px" font-style="normal" font-weight="normal" text-decoration="none" x="200" y="270">UNREGISTERED</text><g transform="translate(-158,-180) scale(1,1)"><path fill="#C0C0C0" stroke="none" d="M 178 218.5 C 178 213.2532944 182.2532944 209 187.5 209 C 192.7467056 209 197 213.2532944 197 218.5 C 197 223.7467056 192.7467056 228 187.5 228 C 182.2532944 228 178 223.7467056 178 218.5 Z" opacity="0.2"/></g><g transform="translate(-158,-180) scale(1,1)"><path fill="#000000" stroke="none" d="M 171 211.5 C 171 206.2532944 175.2532944 202 180.5 202 C 185.7467056 202 190 206.2532944 190 211.5 C 190 216.7467056 185.7467056 221 180.5 221 C 175.2532944 221 171 216.7467056 171 211.5 Z"/></g><g transform="translate(-158,-180) scale(1,1)"><path fill="#C0C0C0" stroke="none" d="M 282 199 L 330.22998046875 199 Q 340.22998046875 199 340.22998046875 209 L 340.22998046875 228 Q 340.22998046875 238 330.22998046875 238 L 282 238 Q 272 238 272 228 L 272 209 Q 272 199 282 199 Z" opacity="0.2"/></g><g transform="translate(-158,-180) scale(1,1)"><path fill="#ffffff" stroke="none" d="M 275 192 L 323.22998046875 192 Q 333.22998046875 192 333.22998046875 202 L 333.22998046875 221 Q 333.22998046875 231 323.22998046875 231 L 275 231 Q 265 231 265 221 L 265 202 Q 265 192 275 192 Z"/></g><g transform="translate(-158,-180) scale(1,1)"><path fill="none" stroke="#000000" d="M 275 192 L 323.22998046875 192 Q 333.22998046875 192 333.22998046875 202 L 333.22998046875 221 Q 333.22998046875 231 323.22998046875 231 L 275 231 Q 265 231 265 221 L 265 202 Q 265 192 275 192 Z" stroke-miterlimit="10"/></g><g transform="translate(-158,-180) scale(1,1)"><g><path fill="none" stroke="none"/><text fill="#000000" stroke="none" font-family="Arial" font-size="13px" font-style="normal" font-weight="bold" text-decoration="none" x="272.378662109375" y="211.5">initialized</text></g></g><g transform="translate(-158,-180) scale(1,1)"><path fill="#C0C0C0" stroke="none" d="M 442 423 L 481 423 Q 491 423 491 433 L 491 452 Q 491 462 481 462 L 442 462 Q 432 462 432 452 L 432 433 Q 432 423 442 423 Z" opacity="0.2"/></g><g transform="translate(-158,-180) scale(1,1)"><path fill="#ffffff" stroke="none" d="M 435 416 L 474 416 Q 484 416 484 426 L 484 445 Q 484 455 474 455 L 435 455 Q 425 455 425 445 L 425 426 Q 425 416 435 416 Z"/></g><g transform="translate(-158,-180) scale(1,1)"><path fill="none" stroke="#000000" d="M 435 416 L 474 416 Q 484 416 484 426 L 484 445 Q 484 455 474 455 L 435 455 Q 425 455 425 445 L 425 426 Q 425 416 435 416 Z" stroke-miterlimit="10"/></g><g transform="translate(-158,-180) scale(1,1)"><g><path fill="none" stroke="none"/><text fill="#000000" stroke="none" font-family="Arial" font-size="13px" font-style="normal" font-weight="bold" text-decoration="none" x="434.628662109375" y="435.5">started</text></g></g><g transform="translate(-158,-180) scale(1,1)"><path fill="#C0C0C0" stroke="none" d="M 287 423 L 326.552734375 423 Q 336.552734375 423 336.552734375 433 L 336.552734375 452 Q 336.552734375 462 326.552734375 462 L 287 462 Q 277 462 277 452 L 277 433 Q 277 423 287 423 Z" opacity="0.2"/></g><g transform="translate(-158,-180) scale(1,1)"><path fill="#ffffff" stroke="none" d="M 280 416 L 319.552734375 416 Q 329.552734375 416 329.552734375 426 L 329.552734375 445 Q 329.552734375 455 319.552734375 455 L 280 455 Q 270 455 270 445 L 270 426 Q 270 416 280 416 Z"/></g><g transform="translate(-158,-180) scale(1,1)"><path fill="none" stroke="#000000" d="M 280 416 L 319.552734375 416 Q 329.552734375 416 329.552734375 426 L 329.552734375 445 Q 329.552734375 455 319.552734375 455 L 280 455 Q 270 455 270 445 L 270 426 Q 270 416 280 416 Z" stroke-miterlimit="10"/></g><g transform="translate(-158,-180) scale(1,1)"><g><path fill="none" stroke="none"/><text fill="#000000" stroke="none" font-family="Arial" font-size="13px" font-style="normal" font-weight="bold" text-decoration="none" x="276.6455078125" y="435.5">stopped</text></g></g><g transform="translate(-158,-180) scale(1,1)"><path fill="#C0C0C0" stroke="none" d="M 281 303 L 332.130859375 303 Q 342.130859375 303 342.130859375 313 L 342.130859375 332 Q 342.130859375 342 332.130859375 342 L 281 342 Q 271 342 271 332 L 271 313 Q 271 303 281 303 Z" opacity="0.2"/></g><g transform="translate(-158,-180) scale(1,1)"><path fill="#ffffff" stroke="none" d="M 274 296 L 325.130859375 296 Q 335.130859375 296 335.130859375 306 L 335.130859375 325 Q 335.130859375 335 325.130859375 335 L 274 335 Q 264 335 264 325 L 264 306 Q 264 296 274 296 Z"/></g><g transform="translate(-158,-180) scale(1,1)"><path fill="none" stroke="#000000" d="M 274 296 L 325.130859375 296 Q 335.130859375 296 335.130859375 306 L 335.130859375 325 Q 335.130859375 335 325.130859375 335 L 274 335 Q 264 335 264 325 L 264 306 Q 264 296 274 296 Z" stroke-miterlimit="10"/></g><g transform="translate(-158,-180) scale(1,1)"><g><path fill="none" stroke="none"/><text fill="#000000" stroke="none" font-family="Arial" font-size="13px" font-style="normal" font-weight="bold" text-decoration="none" x="271.02001953125" y="315.5">destroyed</text></g></g><g transform="translate(-158,-180) scale(1,1)"><path fill="#C0C0C0" stroke="none" d="M 441 303 L 482.03173828125 303 Q 492.03173828125 303 492.03173828125 313 L 492.03173828125 332 Q 492.03173828125 342 482.03173828125 342 L 441 342 Q 431 342 431 332 L 431 313 Q 431 303 441 303 Z" opacity="0.2"/></g><g transform="translate(-158,-180) scale(1,1)"><path fill="#ffffff" stroke="none" d="M 434 296 L 475.03173828125 296 Q 485.03173828125 296 485.03173828125 306 L 485.03173828125 325 Q 485.03173828125 335 475.03173828125 335 L 434 335 Q 424 335 424 325 L 424 306 Q 424 296 434 296 Z"/></g><g transform="translate(-158,-180) scale(1,1)"><path fill="none" stroke="#000000" d="M 434 296 L 475.03173828125 296 Q 485.03173828125 296 485.03173828125 306 L 485.03173828125 325 Q 485.03173828125 335 475.03173828125 335 L 434 335 Q 424 335 424 325 L 424 306 Q 424 296 434 296 Z" stroke-miterlimit="10"/></g><g transform="translate(-158,-180) scale(1,1)"><g><path fill="none" stroke="none"/><text fill="#000000" stroke="none" font-family="Arial" font-size="13px" font-style="normal" font-weight="bold" text-decoration="none" x="430.305908203125" y="315.5">checked</text></g></g><g transform="translate(-158,-180) scale(1,1)"><path fill="#C0C0C0" stroke="none" d="M 442 199 L 481 199 Q 491 199 491 209 L 491 228 Q 491 238 481 238 L 442 238 Q 432 238 432 228 L 432 209 Q 432 199 442 199 Z" opacity="0.2"/></g><g transform="translate(-158,-180) scale(1,1)"><path fill="#ffffff" stroke="none" d="M 435 192 L 474 192 Q 484 192 484 202 L 484 221 Q 484 231 474 231 L 435 231 Q 425 231 425 221 L 425 202 Q 425 192 435 192 Z"/></g><g transform="translate(-158,-180) scale(1,1)"><path fill="none" stroke="#000000" d="M 435 192 L 474 192 Q 484 192 484 202 L 484 221 Q 484 231 474 231 L 435 231 Q 425 231 425 221 L 425 202 Q 425 192 435 192 Z" stroke-miterlimit="10"/></g><g transform="translate(-158,-180) scale(1,1)"><g><path fill="none" stroke="none"/><text fill="#000000" stroke="none" font-family="Arial" font-size="13px" font-style="normal" font-weight="bold" text-decoration="none" x="434.62548828125" y="211.5">parsed</text></g></g><g transform="translate(-158,-180) scale(1,1)"><path fill="none" stroke="#000000" d="M 334 211 L 424 211" stroke-miterlimit="10"/></g><g transform="translate(-158,-180) scale(1,1)"><path fill="none" stroke="#000000" d="M 413.83732514237585 215.209517756016 L 424 211 L 413.83732514237585 206.790482243984" stroke-miterlimit="10"/></g><g transform="translate(-158,-180) scale(1,1)"><g><path fill="none" stroke="none"/><text fill="#000000" stroke="none" font-family="Arial" font-size="13px" font-style="normal" font-weight="normal" text-decoration="none" x="362.5" y="202.5">_init()</text></g></g><g transform="translate(-158,-180) scale(1,1)"><path fill="none" stroke="#000000" d="M 454 295 L 454 232" stroke-miterlimit="10"/></g><g transform="translate(-158,-180) scale(1,1)"><path fill="none" stroke="#000000" d="M 458.209517756016 242.16267485762415 L 454 232 L 449.790482243984 242.16267485762415" stroke-miterlimit="10"/></g><g transform="translate(-158,-180) scale(1,1)"><g><path fill="none" stroke="none"/><text fill="#000000" stroke="none" font-family="Arial" font-size="13px" font-style="normal" font-weight="normal" text-decoration="none" x="462.5" y="267.5">_check()</text></g></g><g transform="translate(-158,-180) scale(1,1)"><path fill="none" stroke="#000000" d="M 454 336 L 454 415" stroke-miterlimit="10"/></g><g transform="translate(-158,-180) scale(1,1)"><path fill="none" stroke="#000000" d="M 449.790482243984 404.83732514237585 L 454 415 L 458.209517756016 404.83732514237585" stroke-miterlimit="10"/></g><g transform="translate(-158,-180) scale(1,1)"><g><path fill="none" stroke="none"/><text fill="#000000" stroke="none" font-family="Arial" font-size="13px" font-style="normal" font-weight="normal" text-decoration="none" x="464.5" y="380.5">_start()</text></g></g><g transform="translate(-158,-180) scale(1,1)"><path fill="none" stroke="#000000" d="M 424 435 L 331 435" stroke-miterlimit="10"/></g><g transform="translate(-158,-180) scale(1,1)"><path fill="none" stroke="#000000" d="M 341.16267485762415 430.790482243984 L 331 435 L 341.16267485762415 439.209517756016" stroke-miterlimit="10"/></g><g transform="translate(-158,-180) scale(1,1)"><g><path fill="none" stroke="none"/><text fill="#000000" stroke="none" font-family="Arial" font-size="13px" font-style="normal" font-weight="normal" text-decoration="none" x="355.5" y="456.5">_stop()</text></g></g><g transform="translate(-158,-180) scale(1,1)"><path fill="none" stroke="#000000" d="M 299 415 L 299 336" stroke-miterlimit="10"/></g><g transform="translate(-158,-180) scale(1,1)"><path fill="none" stroke="#000000" d="M 303.209517756016 346.16267485762415 L 299 336 L 294.790482243984 346.16267485762415" stroke-miterlimit="10"/></g><g transform="translate(-158,-180) scale(1,1)"><g><path fill="none" stroke="none"/><text fill="#000000" stroke="none" font-family="Arial" font-size="13px" font-style="normal" font-weight="normal" text-decoration="none" x="213.5" y="379.5">_destroy()</text></g></g><g transform="translate(-158,-180) scale(1,1)"><path fill="none" stroke="#000000" d="M 424 231 L 329 295" stroke-miterlimit="10"/></g><g transform="translate(-158,-180) scale(1,1)"><path fill="none" stroke="#000000" d="M 335.0765046530588 285.830698434376 L 329 295 L 339.78041296188667 292.8130623302923" stroke-miterlimit="10"/></g><g transform="translate(-158,-180) scale(1,1)"><g><path fill="none" stroke="none"/><text fill="#000000" stroke="none" font-family="Arial" font-size="13px" font-style="normal" font-weight="normal" text-decoration="none" x="366.5" y="279.5">_destroy()</text></g></g><g transform="translate(-158,-180) scale(1,1)"><path fill="none" stroke="#000000" d="M 299 232 L 299 295" stroke-miterlimit="10"/></g><g transform="translate(-158,-180) scale(1,1)"><path fill="none" stroke="#000000" d="M 294.790482243984 284.83732514237585 L 299 295 L 303.209517756016 284.83732514237585" stroke-miterlimit="10"/></g><g transform="translate(-158,-180) scale(1,1)"><g><path fill="none" stroke="none"/><text fill="#000000" stroke="none" font-family="Arial" font-size="13px" font-style="normal" font-weight="normal" text-decoration="none" x="215.5" y="266.5">_destroy()</text></g></g><g transform="translate(-158,-180) scale(1,1)"><path fill="none" stroke="#000000" d="M 191 211 L 264 211" stroke-miterlimit="10"/></g><g transform="translate(-158,-180) scale(1,1)"><path fill="none" stroke="#000000" d="M 253.83732514237585 215.209517756016 L 264 211 L 253.83732514237585 206.790482243984" stroke-miterlimit="10"/></g><g transform="translate(-158,-180) scale(1,1)"><path fill="#C0C0C0" stroke="none" d="M 175 322.5 C 175 315.59644 180.59644 310 187.5 310 C 194.40356 310 200 315.59644 200 322.5 C 200 329.40356 194.40356 335 187.5 335 C 180.59644 335 175 329.40356 175 322.5 Z" opacity="0.2"/></g><g transform="translate(-158,-180) scale(1,1)"><path fill="none" stroke="#000000" d="M 168 315.5 C 168 308.59644 173.59644 303 180.5 303 C 187.40356 303 193 308.59644 193 315.5 C 193 322.40356 187.40356 328 180.5 328 C 173.59644 328 168 322.40356 168 315.5 Z" stroke-miterlimit="10"/></g><g transform="translate(-158,-180) scale(1,1)"><path fill="#000000" stroke="none" d="M 173 315.5 C 173 311.357864 176.357864 308 180.5 308 C 184.642136 308 188 311.357864 188 315.5 C 188 319.642136 184.642136 323 180.5 323 C 176.357864 323 173 319.642136 173 315.5 Z"/></g><g transform="translate(-158,-180) scale(1,1)"><path fill="none" stroke="#000000" d="M 263 315 L 194 315" stroke-miterlimit="10"/></g><g transform="translate(-158,-180) scale(1,1)"><path fill="none" stroke="#000000" d="M 204.16267485762415 310.790482243984 L 194 315 L 204.16267485762415 319.209517756016" stroke-miterlimit="10"/></g><g transform="translate(-158,-180) scale(1,1)"><path fill="none" stroke="#000000" d="M 423 315 L 336 315" stroke-miterlimit="10"/></g><g transform="translate(-158,-180) scale(1,1)"><path fill="none" stroke="#000000" d="M 346.16267485762415 310.790482243984 L 336 315 L 346.16267485762415 319.209517756016" stroke-miterlimit="10"/></g><g transform="translate(-158,-180) scale(1,1)"><g><path fill="none" stroke="none"/><text fill="#000000" stroke="none" font-family="Arial" font-size="13px" font-style="normal" font-weight="normal" text-decoration="none" x="348.5" y="336.5">_destroy()</text></g></g></g></svg>