<svg version="1.1" xmlns="http://www.w3.org/2000/svg" xmlns:xlink="http://www.w3.org/1999/xlink" width="468" height="861"><defs/><g><g transform="translate(-134,-14) scale(1,1)"><path fill="#C0C0C0" stroke="none" d="M 185 95 L 589 95 Q 599 95 599 105 L 599 805 Q 599 815 589 815 L 185 815 Q 175 815 175 805 L 175 105 Q 175 95 185 95 Z" opacity="0.2"/></g><g transform="translate(-134,-14) scale(1,1)"><path fill="#ffffff" stroke="none" d="M 178 88 L 582 88 Q 592 88 592 98 L 592 798 Q 592 808 582 808 L 178 808 Q 168 808 168 798 L 168 98 Q 168 88 178 88 Z"/></g><g transform="translate(-134,-14) scale(1,1)"><path fill="none" stroke="#000000" d="M 178 88 L 582 88 Q 592 88 592 98 L 592 798 Q 592 808 582 808 L 178 808 Q 168 808 168 798 L 168 98 Q 168 88 178 88 Z" stroke-miterlimit="10"/></g><g transform="translate(-134,-14) scale(1,1)"><path fill="none" stroke="#000000" d="M 168 113 L 592 113" stroke-miterlimit="10"/></g><g transform="translate(-134,-14) scale(1,1)"><g><path fill="none" stroke="none"/><text fill="#000000" stroke="none" font-family="Arial" font-size="13px" font-style="normal" font-weight="bold" text-decoration="none" x="361" y="107.5">State1</text></g></g><g transform="translate(-134,-14) scale(1,1)"><path fill="#C0C0C0" stroke="none" d="M 308 183 L 347 183 Q 357 183 357 193 L 357 212 Q 357 222 347 222 L 308 222 Q 298 222 298 212 L 298 193 Q 298 183 308 183 Z" opacity="0.2"/></g><g transform="translate(-134,-14) scale(1,1)"><path fill="#ffffff" stroke="none" d="M 301 176 L 340 176 Q 350 176 350 186 L 350 205 Q 350 215 340 215 L 301 215 Q 291 215 291 205 L 291 186 Q 291 176 301 176 Z"/></g><g transform="translate(-134,-14) scale(1,1)"><path fill="none" stroke="#000000" d="M 301 176 L 340 176 Q 350 176 350 186 L 350 205 Q 350 215 340 215 L 301 215 Q 291 215 291 205 L 291 186 Q 291 176 301 176 Z" stroke-miterlimit="10"/></g><g transform="translate(-134,-14) scale(1,1)"><g><path fill="none" stroke="none"/><text fill="#000000" stroke="none" font-family="Arial" font-size="13px" font-style="normal" font-weight="bold" text-decoration="none" x="310.5" y="195.5">idle</text></g></g><g transform="translate(-134,-14) scale(1,1)"><path fill="#C0C0C0" stroke="none" d="M 308 327 L 347 327 Q 357 327 357 337 L 357 356 Q 357 366 347 366 L 308 366 Q 298 366 298 356 L 298 337 Q 298 327 308 327 Z" opacity="0.2"/></g><g transform="translate(-134,-14) scale(1,1)"><path fill="#ffffff" stroke="none" d="M 301 320 L 340 320 Q 350 320 350 330 L 350 349 Q 350 359 340 359 L 301 359 Q 291 359 291 349 L 291 330 Q 291 320 301 320 Z"/></g><g transform="translate(-134,-14) scale(1,1)"><path fill="none" stroke="#000000" d="M 301 320 L 340 320 Q 350 320 350 330 L 350 349 Q 350 359 340 359 L 301 359 Q 291 359 291 349 L 291 330 Q 291 320 301 320 Z" stroke-miterlimit="10"/></g><g transform="translate(-134,-14) scale(1,1)"><g><path fill="none" stroke="none"/><text fill="#000000" stroke="none" font-family="Arial" font-size="13px" font-style="normal" font-weight="bold" text-decoration="none" x="304.5" y="339.5">ready</text></g></g><g transform="translate(-134,-14) scale(1,1)"><path fill="#C0C0C0" stroke="none" d="M 308 515 L 347 515 Q 357 515 357 525 L 357 544 Q 357 554 347 554 L 308 554 Q 298 554 298 544 L 298 525 Q 298 515 308 515 Z" opacity="0.2"/></g><g transform="translate(-134,-14) scale(1,1)"><path fill="#ffffff" stroke="none" d="M 301 508 L 340 508 Q 350 508 350 518 L 350 537 Q 350 547 340 547 L 301 547 Q 291 547 291 537 L 291 518 Q 291 508 301 508 Z"/></g><g transform="translate(-134,-14) scale(1,1)"><path fill="none" stroke="#000000" d="M 301 508 L 340 508 Q 350 508 350 518 L 350 537 Q 350 547 340 547 L 301 547 Q 291 547 291 537 L 291 518 Q 291 508 301 508 Z" stroke-miterlimit="10"/></g><g transform="translate(-134,-14) scale(1,1)"><g><path fill="none" stroke="none"/><text fill="#000000" stroke="none" font-family="Arial" font-size="13px" font-style="normal" font-weight="bold" text-decoration="none" x="299.5" y="527.5">running</text></g></g><g transform="translate(-134,-14) scale(1,1)"><path fill="#C0C0C0" stroke="none" d="M 308 271 L 347 271 Q 357 271 357 281 L 357 300 Q 357 310 347 310 L 308 310 Q 298 310 298 300 L 298 281 Q 298 271 308 271 Z" opacity="0.2"/></g><g transform="translate(-134,-14) scale(1,1)"><path fill="#ffffff" stroke="none" d="M 301 264 L 340 264 Q 350 264 350 274 L 350 293 Q 350 303 340 303 L 301 303 Q 291 303 291 293 L 291 274 Q 291 264 301 264 Z"/></g><g transform="translate(-134,-14) scale(1,1)"><path fill="none" stroke="#000000" d="M 301 264 L 340 264 Q 350 264 350 274 L 350 293 Q 350 303 340 303 L 301 303 Q 291 303 291 293 L 291 274 Q 291 264 301 264 Z" stroke-miterlimit="10"/></g><g transform="translate(-134,-14) scale(1,1)"><g><path fill="none" stroke="none"/><text fill="#000000" stroke="none" font-family="Arial" font-size="13px" font-style="normal" font-weight="bold" text-decoration="none" x="300" y="283.5">loading</text></g></g><g transform="translate(-134,-14) scale(1,1)"><path fill="#C0C0C0" stroke="none" d="M 273 391 L 371 391 Q 381 391 381 401 L 381 458 Q 381 468 371 468 L 273 468 Q 263 468 263 458 L 263 401 Q 263 391 273 391 Z" opacity="0.2"/></g><g transform="translate(-134,-14) scale(1,1)"><path fill="#ffffff" stroke="none" d="M 266 384 L 364 384 Q 374 384 374 394 L 374 451 Q 374 461 364 461 L 266 461 Q 256 461 256 451 L 256 394 Q 256 384 266 384 Z"/></g><g transform="translate(-134,-14) scale(1,1)"><path fill="none" stroke="#000000" d="M 266 384 L 364 384 Q 374 384 374 394 L 374 451 Q 374 461 364 461 L 266 461 Q 256 461 256 451 L 256 394 Q 256 384 266 384 Z" stroke-miterlimit="10"/></g><g transform="translate(-134,-14) scale(1,1)"><path fill="none" stroke="#000000" d="M 256 409 L 374 409" stroke-miterlimit="10"/></g><g transform="translate(-134,-14) scale(1,1)"><g><path fill="none" stroke="none"/><text fill="#000000" stroke="none" font-family="Arial" font-size="13px" font-style="normal" font-weight="bold" text-decoration="none" x="293.5" y="403.5">starting</text></g></g><g transform="translate(-134,-14) scale(1,1)"><g><path fill="none" stroke="none"/><text fill="#000000" stroke="none" font-family="Arial" font-size="13px" font-style="normal" font-weight="normal" text-decoration="none" x="261" y="426.5">do/DownloadModel</text></g></g><g transform="translate(-134,-14) scale(1,1)"><g><path fill="none" stroke="none"/><text fill="#000000" stroke="none" font-family="Arial" font-size="13px" font-style="normal" font-weight="normal" text-decoration="none" x="261" y="441.5">do/PrepareModel</text></g></g><g transform="translate(-134,-14) scale(1,1)"><g><path fill="none" stroke="none"/><text fill="#000000" stroke="none" font-family="Arial" font-size="13px" font-style="normal" font-weight="normal" text-decoration="none" x="261" y="456.5">do/LoadModel</text></g></g><g transform="translate(-134,-14) scale(1,1)"><path fill="none" stroke="#000000" d="M 320 216 L 320 263" stroke-miterlimit="10"/></g><g transform="translate(-134,-14) scale(1,1)"><path fill="none" stroke="#000000" d="M 315.790482243984 252.83732514237585 L 320 263 L 324.209517756016 252.83732514237585" stroke-miterlimit="10"/></g><g transform="translate(-134,-14) scale(1,1)"><g><path fill="none" stroke="none"/><text fill="#000000" stroke="none" font-family="Arial" font-size="13px" font-style="normal" font-weight="normal" text-decoration="none" x="326.5" y="244.5">load</text></g></g><g transform="translate(-134,-14) scale(1,1)"><path fill="none" stroke="#000000" d="M 320 304 L 320 319" stroke-miterlimit="10"/></g><g transform="translate(-134,-14) scale(1,1)"><path fill="none" stroke="#000000" d="M 315.790482243984 308.83732514237585 L 320 319 L 324.209517756016 308.83732514237585" stroke-miterlimit="10"/></g><g transform="translate(-134,-14) scale(1,1)"><path fill="none" stroke="#000000" d="M 319 360 L 317 383" stroke-miterlimit="10"/></g><g transform="translate(-134,-14) scale(1,1)"><path fill="none" stroke="#000000" d="M 313.68669617888304 372.51086191391437 L 317 383 L 322.0740810694301 373.2401997304837" stroke-miterlimit="10"/></g><g transform="translate(-134,-14) scale(1,1)"><g><path fill="none" stroke="none"/><text fill="#000000" stroke="none" font-family="Arial" font-size="13px" font-style="normal" font-weight="normal" text-decoration="none" x="324.5" y="373.5">start</text></g></g><g transform="translate(-134,-14) scale(1,1)"><path fill="none" stroke="#000000" d="M 317 462 L 319 507" stroke-miterlimit="10"/></g><g transform="translate(-134,-14) scale(1,1)"><path fill="none" stroke="#000000" d="M 314.343404643469 497.0342526780209 L 319 507 L 322.7541373571182 496.66044233519204" stroke-miterlimit="10"/></g><g transform="translate(-134,-14) scale(1,1)"><path fill="#C0C0C0" stroke="none" d="M 409 599 L 448 599 Q 458 599 458 609 L 458 628 Q 458 638 448 638 L 409 638 Q 399 638 399 628 L 399 609 Q 399 599 409 599 Z" opacity="0.2"/></g><g transform="translate(-134,-14) scale(1,1)"><path fill="#ffffff" stroke="none" d="M 402 592 L 441 592 Q 451 592 451 602 L 451 621 Q 451 631 441 631 L 402 631 Q 392 631 392 621 L 392 602 Q 392 592 402 592 Z"/></g><g transform="translate(-134,-14) scale(1,1)"><path fill="none" stroke="#000000" d="M 402 592 L 441 592 Q 451 592 451 602 L 451 621 Q 451 631 441 631 L 402 631 Q 392 631 392 621 L 392 602 Q 392 592 402 592 Z" stroke-miterlimit="10"/></g><g transform="translate(-134,-14) scale(1,1)"><g><path fill="none" stroke="none"/><text fill="#000000" stroke="none" font-family="Arial" font-size="13px" font-style="normal" font-weight="bold" text-decoration="none" x="399" y="611.5">pausing</text></g></g><g transform="translate(-134,-14) scale(1,1)"><path fill="#C0C0C0" stroke="none" d="M 505 599 L 544 599 Q 554 599 554 609 L 554 628 Q 554 638 544 638 L 505 638 Q 495 638 495 628 L 495 609 Q 495 599 505 599 Z" opacity="0.2"/></g><g transform="translate(-134,-14) scale(1,1)"><path fill="#ffffff" stroke="none" d="M 498 592 L 537 592 Q 547 592 547 602 L 547 621 Q 547 631 537 631 L 498 631 Q 488 631 488 621 L 488 602 Q 488 592 498 592 Z"/></g><g transform="translate(-134,-14) scale(1,1)"><path fill="none" stroke="#000000" d="M 498 592 L 537 592 Q 547 592 547 602 L 547 621 Q 547 631 537 631 L 498 631 Q 488 631 488 621 L 488 602 Q 488 592 498 592 Z" stroke-miterlimit="10"/></g><g transform="translate(-134,-14) scale(1,1)"><g><path fill="none" stroke="none"/><text fill="#000000" stroke="none" font-family="Arial" font-size="13px" font-style="normal" font-weight="bold" text-decoration="none" x="496.5" y="611.5">paused</text></g></g><g transform="translate(-134,-14) scale(1,1)"><path fill="#C0C0C0" stroke="none" d="M 500 515 L 548 515 Q 558 515 558 525 L 558 544 Q 558 554 548 554 L 500 554 Q 490 554 490 544 L 490 525 Q 490 515 500 515 Z" opacity="0.2"/></g><g transform="translate(-134,-14) scale(1,1)"><path fill="#ffffff" stroke="none" d="M 493 508 L 541 508 Q 551 508 551 518 L 551 537 Q 551 547 541 547 L 493 547 Q 483 547 483 537 L 483 518 Q 483 508 493 508 Z"/></g><g transform="translate(-134,-14) scale(1,1)"><path fill="none" stroke="#000000" d="M 493 508 L 541 508 Q 551 508 551 518 L 551 537 Q 551 547 541 547 L 493 547 Q 483 547 483 537 L 483 518 Q 483 508 493 508 Z" stroke-miterlimit="10"/></g><g transform="translate(-134,-14) scale(1,1)"><g><path fill="none" stroke="none"/><text fill="#000000" stroke="none" font-family="Arial" font-size="13px" font-style="normal" font-weight="bold" text-decoration="none" x="490.5" y="527.5">resuming</text></g></g><g transform="translate(-134,-14) scale(1,1)"><path fill="none" stroke="#000000" d="M 345 548 L 397 591" stroke-miterlimit="10"/></g><g transform="translate(-134,-14) scale(1,1)"><path fill="none" stroke="#000000" d="M 386.48560702910765 587.7677344704296 L 397 591 L 391.85075830477666 581.279644555667" stroke-miterlimit="10"/></g><g transform="translate(-134,-14) scale(1,1)"><g><path fill="none" stroke="none"/><text fill="#000000" stroke="none" font-family="Arial" font-size="13px" font-style="normal" font-weight="normal" text-decoration="none" x="383.5" y="572.5">pause</text></g></g><g transform="translate(-134,-14) scale(1,1)"><path fill="none" stroke="#000000" d="M 452 611 L 487 611" stroke-miterlimit="10"/></g><g transform="translate(-134,-14) scale(1,1)"><path fill="none" stroke="#000000" d="M 476.83732514237585 615.209517756016 L 487 611 L 476.83732514237585 606.790482243984" stroke-miterlimit="10"/></g><g transform="translate(-134,-14) scale(1,1)"><path fill="none" stroke="#000000" d="M 517 591 L 517 548" stroke-miterlimit="10"/></g><g transform="translate(-134,-14) scale(1,1)"><path fill="none" stroke="#000000" d="M 521.209517756016 558.1626748576241 L 517 548 L 512.790482243984 558.1626748576241" stroke-miterlimit="10"/></g><g transform="translate(-134,-14) scale(1,1)"><g><path fill="none" stroke="none"/><text fill="#000000" stroke="none" font-family="Arial" font-size="13px" font-style="normal" font-weight="normal" text-decoration="none" x="527.5" y="579.5">resume</text></g></g><g transform="translate(-134,-14) scale(1,1)"><path fill="none" stroke="#000000" d="M 482 527 L 351 527" stroke-miterlimit="10"/></g><g transform="translate(-134,-14) scale(1,1)"><path fill="none" stroke="#000000" d="M 361.16267485762415 522.790482243984 L 351 527 L 361.16267485762415 531.209517756016" stroke-miterlimit="10"/></g><g transform="translate(-134,-14) scale(1,1)"><path fill="#C0C0C0" stroke="none" d="M 305 663 L 349 663 Q 359 663 359 673 L 359 692 Q 359 702 349 702 L 305 702 Q 295 702 295 692 L 295 673 Q 295 663 305 663 Z" opacity="0.2"/></g><g transform="translate(-134,-14) scale(1,1)"><path fill="#ffffff" stroke="none" d="M 298 656 L 342 656 Q 352 656 352 666 L 352 685 Q 352 695 342 695 L 298 695 Q 288 695 288 685 L 288 666 Q 288 656 298 656 Z"/></g><g transform="translate(-134,-14) scale(1,1)"><path fill="none" stroke="#000000" d="M 298 656 L 342 656 Q 352 656 352 666 L 352 685 Q 352 695 342 695 L 298 695 Q 288 695 288 685 L 288 666 Q 288 656 298 656 Z" stroke-miterlimit="10"/></g><g transform="translate(-134,-14) scale(1,1)"><g><path fill="none" stroke="none"/><text fill="#000000" stroke="none" font-family="Arial" font-size="13px" font-style="normal" font-weight="bold" text-decoration="none" x="295.5" y="675.5">stopping</text></g></g><g transform="translate(-134,-14) scale(1,1)"><path fill="#C0C0C0" stroke="none" d="M 305 751 L 344 751 Q 354 751 354 761 L 354 780 Q 354 790 344 790 L 305 790 Q 295 790 295 780 L 295 761 Q 295 751 305 751 Z" opacity="0.2"/></g><g transform="translate(-134,-14) scale(1,1)"><path fill="#ffffff" stroke="none" d="M 298 744 L 337 744 Q 347 744 347 754 L 347 773 Q 347 783 337 783 L 298 783 Q 288 783 288 773 L 288 754 Q 288 744 298 744 Z"/></g><g transform="translate(-134,-14) scale(1,1)"><path fill="none" stroke="#000000" d="M 298 744 L 337 744 Q 347 744 347 754 L 347 773 Q 347 783 337 783 L 298 783 Q 288 783 288 773 L 288 754 Q 288 744 298 744 Z" stroke-miterlimit="10"/></g><g transform="translate(-134,-14) scale(1,1)"><g><path fill="none" stroke="none"/><text fill="#000000" stroke="none" font-family="Arial" font-size="13px" font-style="normal" font-weight="bold" text-decoration="none" x="294.5" y="763.5">stopped</text></g></g><g transform="translate(-134,-14) scale(1,1)"><path fill="none" stroke="#000000" d="M 320 548 L 320 655" stroke-miterlimit="10"/></g><g transform="translate(-134,-14) scale(1,1)"><path fill="none" stroke="#000000" d="M 315.790482243984 644.8373251423759 L 320 655 L 324.209517756016 644.8373251423759" stroke-miterlimit="10"/></g><g transform="translate(-134,-14) scale(1,1)"><g><path fill="none" stroke="none"/><text fill="#000000" stroke="none" font-family="Arial" font-size="13px" font-style="normal" font-weight="normal" text-decoration="none" x="321.5" y="606.5">stop</text></g></g><g transform="translate(-134,-14) scale(1,1)"><path fill="none" stroke="#000000" d="M 319 696 L 318 743" stroke-miterlimit="10"/></g><g transform="translate(-134,-14) scale(1,1)"><path fill="none" stroke="#000000" d="M 314.0076129302576 732.7500807083493 L 318 743 L 322.4247434676047 732.9291685921227" stroke-miterlimit="10"/></g><g transform="translate(-134,-14) scale(1,1)"><path fill="none" stroke="#000000" d="M 518 631 L 518 672 L 352 672" stroke-miterlimit="10"/></g><g transform="translate(-134,-14) scale(1,1)"><path fill="none" stroke="#000000" d="M 362.16267485762415 667.790482243984 L 352 672 L 362.16267485762415 676.209517756016" stroke-miterlimit="10"/></g><g transform="translate(-134,-14) scale(1,1)"><g><path fill="none" stroke="none"/><text fill="#000000" stroke="none" font-family="Arial" font-size="13px" font-style="normal" font-weight="normal" text-decoration="none" x="415.5" y="692.5">stop</text></g></g><g transform="translate(-134,-14) scale(1,1)"><path fill="#C0C0C0" stroke="none" d="M 383 859.5 C 383 852.59644 388.59644 847 395.5 847 C 402.40356 847 408 852.59644 408 859.5 C 408 866.40356 402.40356 872 395.5 872 C 388.59644 872 383 866.40356 383 859.5 Z" opacity="0.2"/></g><g transform="translate(-134,-14) scale(1,1)"><path fill="none" stroke="#000000" d="M 376 852.5 C 376 845.59644 381.59644 840 388.5 840 C 395.40356 840 401 845.59644 401 852.5 C 401 859.40356 395.40356 865 388.5 865 C 381.59644 865 376 859.40356 376 852.5 Z" stroke-miterlimit="10"/></g><g transform="translate(-134,-14) scale(1,1)"><path fill="#000000" stroke="none" d="M 381 852.5 C 381 848.357864 384.357864 845 388.5 845 C 392.642136 845 396 848.357864 396 852.5 C 396 856.642136 392.642136 860 388.5 860 C 384.357864 860 381 856.642136 381 852.5 Z"/></g><g transform="translate(-134,-14) scale(1,1)"><path fill="#C0C0C0" stroke="none" d="M 375 40.5 C 375 35.2532944 379.2532944 31 384.5 31 C 389.7467056 31 394 35.2532944 394 40.5 C 394 45.7467056 389.7467056 50 384.5 50 C 379.2532944 50 375 45.7467056 375 40.5 Z" opacity="0.2"/></g><g transform="translate(-134,-14) scale(1,1)"><path fill="#000000" stroke="none" d="M 368 33.5 C 368 28.2532944 372.2532944 24 377.5 24 C 382.7467056 24 387 28.2532944 387 33.5 C 387 38.7467056 382.7467056 43 377.5 43 C 372.2532944 43 368 38.7467056 368 33.5 Z"/></g><g transform="translate(-134,-14) scale(1,1)"><path fill="#C0C0C0" stroke="none" d="M 320 142 C 320 138.1340064 323.1340064 135 327 135 C 330.8659936 135 334 138.1340064 334 142 C 334 145.8659936 330.8659936 149 327 149 C 323.1340064 149 320 145.8659936 320 142 Z" opacity="0.2"/></g><g transform="translate(-134,-14) scale(1,1)"><path fill="#ffffff" stroke="none" d="M 313 135 C 313 131.1340064 316.1340064 128 320 128 C 323.8659936 128 327 131.1340064 327 135 C 327 138.8659936 323.8659936 142 320 142 C 316.1340064 142 313 138.8659936 313 135 Z"/></g><g transform="translate(-134,-14) scale(1,1)"><path fill="none" stroke="#000000" d="M 313 135 C 313 131.1340064 316.1340064 128 320 128 C 323.8659936 128 327 131.1340064 327 135 C 327 138.8659936 323.8659936 142 320 142 C 316.1340064 142 313 138.8659936 313 135 Z" stroke-miterlimit="10"/></g><g transform="translate(-134,-14) scale(1,1)"><path fill="none" stroke="#000000" d="M 320 143 L 320 175" stroke-miterlimit="10"/></g><g transform="translate(-134,-14) scale(1,1)"><path fill="none" stroke="#000000" d="M 315.790482243984 164.83732514237585 L 320 175 L 324.209517756016 164.83732514237585" stroke-miterlimit="10"/></g><g transform="translate(-134,-14) scale(1,1)"><path fill="none" stroke="#000000" d="M 387 808 L 387 840" stroke-miterlimit="10"/></g><g transform="translate(-134,-14) scale(1,1)"><path fill="none" stroke="#000000" d="M 382.790482243984 829.8373251423759 L 387 840 L 391.209517756016 829.8373251423759" stroke-miterlimit="10"/></g><g transform="translate(-134,-14) scale(1,1)"><g><path fill="none" stroke="none"/><text fill="#000000" stroke="none" font-family="Arial" font-size="13px" font-style="normal" font-weight="normal" text-decoration="none" x="398.5" y="829.5">shutdown</text></g></g><g transform="translate(-134,-14) scale(1,1)"><path fill="none" stroke="#000000" d="M 377 43 L 377 88" stroke-miterlimit="10"/></g><g transform="translate(-134,-14) scale(1,1)"><path fill="none" stroke="#000000" d="M 372.790482243984 77.83732514237585 L 377 88 L 381.209517756016 77.83732514237585" stroke-miterlimit="10"/></g><g transform="translate(-134,-14) scale(1,1)"><path fill="none" stroke="#000000" d="M 168 168 L 144 168 L 144 194 L 291 194" stroke-miterlimit="10"/></g><g transform="translate(-134,-14) scale(1,1)"><path fill="none" stroke="#000000" d="M 280.83732514237585 198.209517756016 L 291 194 L 280.83732514237585 189.790482243984" stroke-miterlimit="10"/></g><g transform="translate(-134,-14) scale(1,1)"><g><path fill="none" stroke="none"/><text fill="#000000" stroke="none" font-family="Arial" font-size="13px" font-style="normal" font-weight="normal" text-decoration="none" x="205.5" y="212.5">reset</text></g></g></g></svg>