<svg version="1.1" xmlns="http://www.w3.org/2000/svg" xmlns:xlink="http://www.w3.org/1999/xlink" width="645" height="604"><defs/><g><text fill="#eeeeee" stroke="none" font-family="Arial" font-size="24px" font-style="normal" font-weight="normal" text-decoration="none" x="0" y="0">UNREGISTERED</text><text fill="#eeeeee" stroke="none" font-family="Arial" font-size="24px" font-style="normal" font-weight="normal" text-decoration="none" x="0" y="30">UNREGISTERED</text><text fill="#eeeeee" stroke="none" font-family="Arial" font-size="24px" font-style="normal" font-weight="normal" text-decoration="none" x="0" y="60">UNREGISTERED</text><text fill="#eeeeee" stroke="none" font-family="Arial" font-size="24px" font-style="normal" font-weight="normal" text-decoration="none" x="0" y="90">UNREGISTERED</text><text fill="#eeeeee" stroke="none" font-family="Arial" font-size="24px" font-style="normal" font-weight="normal" text-decoration="none" x="0" y="120">UNREGISTERED</text><text fill="#eeeeee" stroke="none" font-family="Arial" font-size="24px" font-style="normal" font-weight="normal" text-decoration="none" x="0" y="150">UNREGISTERED</text><text fill="#eeeeee" stroke="none" font-family="Arial" font-size="24px" font-style="normal" font-weight="normal" text-decoration="none" x="0" y="180">UNREGISTERED</text><text fill="#eeeeee" stroke="none" font-family="Arial" font-size="24px" font-style="normal" font-weight="normal" text-decoration="none" x="0" y="210">UNREGISTERED</text><text fill="#eeeeee" stroke="none" font-family="Arial" font-size="24px" font-style="normal" font-weight="normal" text-decoration="none" x="0" y="240">UNREGISTERED</text><text fill="#eeeeee" stroke="none" font-family="Arial" font-size="24px" font-style="normal" font-weight="normal" text-decoration="none" x="0" y="270">UNREGISTERED</text><text fill="#eeeeee" stroke="none" font-family="Arial" font-size="24px" font-style="normal" font-weight="normal" text-decoration="none" x="0" y="300">UNREGISTERED</text><text fill="#eeeeee" stroke="none" font-family="Arial" font-size="24px" font-style="normal" font-weight="normal" text-decoration="none" x="0" y="330">UNREGISTERED</text><text fill="#eeeeee" stroke="none" font-family="Arial" font-size="24px" font-style="normal" font-weight="normal" text-decoration="none" x="0" y="360">UNREGISTERED</text><text fill="#eeeeee" stroke="none" font-family="Arial" font-size="24px" font-style="normal" font-weight="normal" text-decoration="none" x="0" y="390">UNREGISTERED</text><text fill="#eeeeee" stroke="none" font-family="Arial" font-size="24px" font-style="normal" font-weight="normal" text-decoration="none" x="0" y="420">UNREGISTERED</text><text fill="#eeeeee" stroke="none" font-family="Arial" font-size="24px" font-style="normal" font-weight="normal" text-decoration="none" x="0" y="450">UNREGISTERED</text><text fill="#eeeeee" stroke="none" font-family="Arial" font-size="24px" font-style="normal" font-weight="normal" text-decoration="none" x="0" y="480">UNREGISTERED</text><text fill="#eeeeee" stroke="none" font-family="Arial" font-size="24px" font-style="normal" font-weight="normal" text-decoration="none" x="0" y="510">UNREGISTERED</text><text fill="#eeeeee" stroke="none" font-family="Arial" font-size="24px" font-style="normal" font-weight="normal" text-decoration="none" x="0" y="540">UNREGISTERED</text><text fill="#eeeeee" stroke="none" font-family="Arial" font-size="24px" font-style="normal" font-weight="normal" text-decoration="none" x="0" y="570">UNREGISTERED</text><text fill="#eeeeee" stroke="none" font-family="Arial" font-size="24px" font-style="normal" font-weight="normal" text-decoration="none" x="0" y="600">UNREGISTERED</text><text fill="#eeeeee" stroke="none" font-family="Arial" font-size="24px" font-style="normal" font-weight="normal" text-decoration="none" x="200" y="0">UNREGISTERED</text><text fill="#eeeeee" stroke="none" font-family="Arial" font-size="24px" font-style="normal" font-weight="normal" text-decoration="none" x="200" y="30">UNREGISTERED</text><text fill="#eeeeee" stroke="none" font-family="Arial" font-size="24px" font-style="normal" font-weight="normal" text-decoration="none" x="200" y="60">UNREGISTERED</text><text fill="#eeeeee" stroke="none" font-family="Arial" font-size="24px" font-style="normal" font-weight="normal" text-decoration="none" x="200" y="90">UNREGISTERED</text><text fill="#eeeeee" stroke="none" font-family="Arial" font-size="24px" font-style="normal" font-weight="normal" text-decoration="none" x="200" y="120">UNREGISTERED</text><text fill="#eeeeee" stroke="none" font-family="Arial" font-size="24px" font-style="normal" font-weight="normal" text-decoration="none" x="200" y="150">UNREGISTERED</text><text fill="#eeeeee" stroke="none" font-family="Arial" font-size="24px" font-style="normal" font-weight="normal" text-decoration="none" x="200" y="180">UNREGISTERED</text><text fill="#eeeeee" stroke="none" font-family="Arial" font-size="24px" font-style="normal" font-weight="normal" text-decoration="none" x="200" y="210">UNREGISTERED</text><text fill="#eeeeee" stroke="none" font-family="Arial" font-size="24px" font-style="normal" font-weight="normal" text-decoration="none" x="200" y="240">UNREGISTERED</text><text fill="#eeeeee" stroke="none" font-family="Arial" font-size="24px" font-style="normal" font-weight="normal" text-decoration="none" x="200" y="270">UNREGISTERED</text><text fill="#eeeeee" stroke="none" font-family="Arial" font-size="24px" font-style="normal" font-weight="normal" text-decoration="none" x="200" y="300">UNREGISTERED</text><text fill="#eeeeee" stroke="none" font-family="Arial" font-size="24px" font-style="normal" font-weight="normal" text-decoration="none" x="200" y="330">UNREGISTERED</text><text fill="#eeeeee" stroke="none" font-family="Arial" font-size="24px" font-style="normal" font-weight="normal" text-decoration="none" x="200" y="360">UNREGISTERED</text><text fill="#eeeeee" stroke="none" font-family="Arial" font-size="24px" font-style="normal" font-weight="normal" text-decoration="none" x="200" y="390">UNREGISTERED</text><text fill="#eeeeee" stroke="none" font-family="Arial" font-size="24px" font-style="normal" font-weight="normal" text-decoration="none" x="200" y="420">UNREGISTERED</text><text fill="#eeeeee" stroke="none" font-family="Arial" font-size="24px" font-style="normal" font-weight="normal" text-decoration="none" x="200" y="450">UNREGISTERED</text><text fill="#eeeeee" stroke="none" font-family="Arial" font-size="24px" font-style="normal" font-weight="normal" text-decoration="none" x="200" y="480">UNREGISTERED</text><text fill="#eeeeee" stroke="none" font-family="Arial" font-size="24px" font-style="normal" font-weight="normal" text-decoration="none" x="200" y="510">UNREGISTERED</text><text fill="#eeeeee" stroke="none" font-family="Arial" font-size="24px" font-style="normal" font-weight="normal" text-decoration="none" x="200" y="540">UNREGISTERED</text><text fill="#eeeeee" stroke="none" font-family="Arial" font-size="24px" font-style="normal" font-weight="normal" text-decoration="none" x="200" y="570">UNREGISTERED</text><text fill="#eeeeee" stroke="none" font-family="Arial" font-size="24px" font-style="normal" font-weight="normal" text-decoration="none" x="200" y="600">UNREGISTERED</text><text fill="#eeeeee" stroke="none" font-family="Arial" font-size="24px" font-style="normal" font-weight="normal" text-decoration="none" x="400" y="0">UNREGISTERED</text><text fill="#eeeeee" stroke="none" font-family="Arial" font-size="24px" font-style="normal" font-weight="normal" text-decoration="none" x="400" y="30">UNREGISTERED</text><text fill="#eeeeee" stroke="none" font-family="Arial" font-size="24px" font-style="normal" font-weight="normal" text-decoration="none" x="400" y="60">UNREGISTERED</text><text fill="#eeeeee" stroke="none" font-family="Arial" font-size="24px" font-style="normal" font-weight="normal" text-decoration="none" x="400" y="90">UNREGISTERED</text><text fill="#eeeeee" stroke="none" font-family="Arial" font-size="24px" font-style="normal" font-weight="normal" text-decoration="none" x="400" y="120">UNREGISTERED</text><text fill="#eeeeee" stroke="none" font-family="Arial" font-size="24px" font-style="normal" font-weight="normal" text-decoration="none" x="400" y="150">UNREGISTERED</text><text fill="#eeeeee" stroke="none" font-family="Arial" font-size="24px" font-style="normal" font-weight="normal" text-decoration="none" x="400" y="180">UNREGISTERED</text><text fill="#eeeeee" stroke="none" font-family="Arial" font-size="24px" font-style="normal" font-weight="normal" text-decoration="none" x="400" y="210">UNREGISTERED</text><text fill="#eeeeee" stroke="none" font-family="Arial" font-size="24px" font-style="normal" font-weight="normal" text-decoration="none" x="400" y="240">UNREGISTERED</text><text fill="#eeeeee" stroke="none" font-family="Arial" font-size="24px" font-style="normal" font-weight="normal" text-decoration="none" x="400" y="270">UNREGISTERED</text><text fill="#eeeeee" stroke="none" font-family="Arial" font-size="24px" font-style="normal" font-weight="normal" text-decoration="none" x="400" y="300">UNREGISTERED</text><text fill="#eeeeee" stroke="none" font-family="Arial" font-size="24px" font-style="normal" font-weight="normal" text-decoration="none" x="400" y="330">UNREGISTERED</text><text fill="#eeeeee" stroke="none" font-family="Arial" font-size="24px" font-style="normal" font-weight="normal" text-decoration="none" x="400" y="360">UNREGISTERED</text><text fill="#eeeeee" stroke="none" font-family="Arial" font-size="24px" font-style="normal" font-weight="normal" text-decoration="none" x="400" y="390">UNREGISTERED</text><text fill="#eeeeee" stroke="none" font-family="Arial" font-size="24px" font-style="normal" font-weight="normal" text-decoration="none" x="400" y="420">UNREGISTERED</text><text fill="#eeeeee" stroke="none" font-family="Arial" font-size="24px" font-style="normal" font-weight="normal" text-decoration="none" x="400" y="450">UNREGISTERED</text><text fill="#eeeeee" stroke="none" font-family="Arial" font-size="24px" font-style="normal" font-weight="normal" text-decoration="none" x="400" y="480">UNREGISTERED</text><text fill="#eeeeee" stroke="none" font-family="Arial" font-size="24px" font-style="normal" font-weight="normal" text-decoration="none" x="400" y="510">UNREGISTERED</text><text fill="#eeeeee" stroke="none" font-family="Arial" font-size="24px" font-style="normal" font-weight="normal" text-decoration="none" x="400" y="540">UNREGISTERED</text><text fill="#eeeeee" stroke="none" font-family="Arial" font-size="24px" font-style="normal" font-weight="normal" text-decoration="none" x="400" y="570">UNREGISTERED</text><text fill="#eeeeee" stroke="none" font-family="Arial" font-size="24px" font-style="normal" font-weight="normal" text-decoration="none" x="400" y="600">UNREGISTERED</text><text fill="#eeeeee" stroke="none" font-family="Arial" font-size="24px" font-style="normal" font-weight="normal" text-decoration="none" x="600" y="0">UNREGISTERED</text><text fill="#eeeeee" stroke="none" font-family="Arial" font-size="24px" font-style="normal" font-weight="normal" text-decoration="none" x="600" y="30">UNREGISTERED</text><text fill="#eeeeee" stroke="none" font-family="Arial" font-size="24px" font-style="normal" font-weight="normal" text-decoration="none" x="600" y="60">UNREGISTERED</text><text fill="#eeeeee" stroke="none" font-family="Arial" font-size="24px" font-style="normal" font-weight="normal" text-decoration="none" x="600" y="90">UNREGISTERED</text><text fill="#eeeeee" stroke="none" font-family="Arial" font-size="24px" font-style="normal" font-weight="normal" text-decoration="none" x="600" y="120">UNREGISTERED</text><text fill="#eeeeee" stroke="none" font-family="Arial" font-size="24px" font-style="normal" font-weight="normal" text-decoration="none" x="600" y="150">UNREGISTERED</text><text fill="#eeeeee" stroke="none" font-family="Arial" font-size="24px" font-style="normal" font-weight="normal" text-decoration="none" x="600" y="180">UNREGISTERED</text><text fill="#eeeeee" stroke="none" font-family="Arial" font-size="24px" font-style="normal" font-weight="normal" text-decoration="none" x="600" y="210">UNREGISTERED</text><text fill="#eeeeee" stroke="none" font-family="Arial" font-size="24px" font-style="normal" font-weight="normal" text-decoration="none" x="600" y="240">UNREGISTERED</text><text fill="#eeeeee" stroke="none" font-family="Arial" font-size="24px" font-style="normal" font-weight="normal" text-decoration="none" x="600" y="270">UNREGISTERED</text><text fill="#eeeeee" stroke="none" font-family="Arial" font-size="24px" font-style="normal" font-weight="normal" text-decoration="none" x="600" y="300">UNREGISTERED</text><text fill="#eeeeee" stroke="none" font-family="Arial" font-size="24px" font-style="normal" font-weight="normal" text-decoration="none" x="600" y="330">UNREGISTERED</text><text fill="#eeeeee" stroke="none" font-family="Arial" font-size="24px" font-style="normal" font-weight="normal" text-decoration="none" x="600" y="360">UNREGISTERED</text><text fill="#eeeeee" stroke="none" font-family="Arial" font-size="24px" font-style="normal" font-weight="normal" text-decoration="none" x="600" y="390">UNREGISTERED</text><text fill="#eeeeee" stroke="none" font-family="Arial" font-size="24px" font-style="normal" font-weight="normal" text-decoration="none" x="600" y="420">UNREGISTERED</text><text fill="#eeeeee" stroke="none" font-family="Arial" font-size="24px" font-style="normal" font-weight="normal" text-decoration="none" x="600" y="450">UNREGISTERED</text><text fill="#eeeeee" stroke="none" font-family="Arial" font-size="24px" font-style="normal" font-weight="normal" text-decoration="none" x="600" y="480">UNREGISTERED</text><text fill="#eeeeee" stroke="none" font-family="Arial" font-size="24px" font-style="normal" font-weight="normal" text-decoration="none" x="600" y="510">UNREGISTERED</text><text fill="#eeeeee" stroke="none" font-family="Arial" font-size="24px" font-style="normal" font-weight="normal" text-decoration="none" x="600" y="540">UNREGISTERED</text><text fill="#eeeeee" stroke="none" font-family="Arial" font-size="24px" font-style="normal" font-weight="normal" text-decoration="none" x="600" y="570">UNREGISTERED</text><text fill="#eeeeee" stroke="none" font-family="Arial" font-size="24px" font-style="normal" font-weight="normal" text-decoration="none" x="600" y="600">UNREGISTERED</text><g transform="translate(-158,-14) scale(1,1)"><path fill="#C0C0C0" stroke="none" d="M 185 95 L 589 95 Q 599 95 599 105 L 599 605 Q 599 615 589 615 L 185 615 Q 175 615 175 605 L 175 105 Q 175 95 185 95 Z" opacity="0.2"/></g><g transform="translate(-158,-14) scale(1,1)"><path fill="#ffffff" stroke="none" d="M 178 88 L 582 88 Q 592 88 592 98 L 592 598 Q 592 608 582 608 L 178 608 Q 168 608 168 598 L 168 98 Q 168 88 178 88 Z"/></g><g transform="translate(-158,-14) scale(1,1)"><path fill="none" stroke="#000000" d="M 178 88 L 582 88 Q 592 88 592 98 L 592 598 Q 592 608 582 608 L 178 608 Q 168 608 168 598 L 168 98 Q 168 88 178 88 Z" stroke-miterlimit="10"/></g><g transform="translate(-158,-14) scale(1,1)"><path fill="none" stroke="#000000" d="M 168 113 L 592 113" stroke-miterlimit="10"/></g><g transform="translate(-158,-14) scale(1,1)"><g><path fill="none" stroke="none"/><text fill="#000000" stroke="none" font-family="Arial" font-size="13px" font-style="normal" font-weight="bold" text-decoration="none" x="361.207763671875" y="107.5">State1</text></g></g><g transform="translate(-158,-14) scale(1,1)"><path fill="#C0C0C0" stroke="none" d="M 222 191 L 261 191 Q 271 191 271 201 L 271 220 Q 271 230 261 230 L 222 230 Q 212 230 212 220 L 212 201 Q 212 191 222 191 Z" opacity="0.2"/></g><g transform="translate(-158,-14) scale(1,1)"><path fill="#ffffff" stroke="none" d="M 215 184 L 254 184 Q 264 184 264 194 L 264 213 Q 264 223 254 223 L 215 223 Q 205 223 205 213 L 205 194 Q 205 184 215 184 Z"/></g><g transform="translate(-158,-14) scale(1,1)"><path fill="none" stroke="#000000" d="M 215 184 L 254 184 Q 264 184 264 194 L 264 213 Q 264 223 254 223 L 215 223 Q 205 223 205 213 L 205 194 Q 205 184 215 184 Z" stroke-miterlimit="10"/></g><g transform="translate(-158,-14) scale(1,1)"><g><path fill="none" stroke="none"/><text fill="#000000" stroke="none" font-family="Arial" font-size="13px" font-style="normal" font-weight="bold" text-decoration="none" x="224.3818359375" y="203.5">idle</text></g></g><g transform="translate(-158,-14) scale(1,1)"><path fill="#C0C0C0" stroke="none" d="M 222 343 L 261 343 Q 271 343 271 353 L 271 372 Q 271 382 261 382 L 222 382 Q 212 382 212 372 L 212 353 Q 212 343 222 343 Z" opacity="0.2"/></g><g transform="translate(-158,-14) scale(1,1)"><path fill="#ffffff" stroke="none" d="M 215 336 L 254 336 Q 264 336 264 346 L 264 365 Q 264 375 254 375 L 215 375 Q 205 375 205 365 L 205 346 Q 205 336 215 336 Z"/></g><g transform="translate(-158,-14) scale(1,1)"><path fill="none" stroke="#000000" d="M 215 336 L 254 336 Q 264 336 264 346 L 264 365 Q 264 375 254 375 L 215 375 Q 205 375 205 365 L 205 346 Q 205 336 215 336 Z" stroke-miterlimit="10"/></g><g transform="translate(-158,-14) scale(1,1)"><g><path fill="none" stroke="none"/><text fill="#000000" stroke="none" font-family="Arial" font-size="13px" font-style="normal" font-weight="bold" text-decoration="none" x="212.81640625" y="355.5">running</text></g></g><g transform="translate(-158,-14) scale(1,1)"><path fill="none" stroke="#000000" d="M 234 296 L 234 335" stroke-miterlimit="10"/></g><g transform="translate(-158,-14) scale(1,1)"><path fill="none" stroke="#000000" d="M 229.790482243984 324.83732514237585 L 234 335 L 238.209517756016 324.83732514237585" stroke-miterlimit="10"/></g><g transform="translate(-158,-14) scale(1,1)"><path fill="#C0C0C0" stroke="none" d="M 485 455 L 524 455 Q 534 455 534 465 L 534 484 Q 534 494 524 494 L 485 494 Q 475 494 475 484 L 475 465 Q 475 455 485 455 Z" opacity="0.2"/></g><g transform="translate(-158,-14) scale(1,1)"><path fill="#ffffff" stroke="none" d="M 478 448 L 517 448 Q 527 448 527 458 L 527 477 Q 527 487 517 487 L 478 487 Q 468 487 468 477 L 468 458 Q 468 448 478 448 Z"/></g><g transform="translate(-158,-14) scale(1,1)"><path fill="none" stroke="#000000" d="M 478 448 L 517 448 Q 527 448 527 458 L 527 477 Q 527 487 517 487 L 478 487 Q 468 487 468 477 L 468 458 Q 468 448 478 448 Z" stroke-miterlimit="10"/></g><g transform="translate(-158,-14) scale(1,1)"><g><path fill="none" stroke="none"/><text fill="#000000" stroke="none" font-family="Arial" font-size="13px" font-style="normal" font-weight="bold" text-decoration="none" x="476.175048828125" y="467.5">paused</text></g></g><g transform="translate(-158,-14) scale(1,1)"><path fill="none" stroke="#000000" d="M 265 368 L 335 398" stroke-miterlimit="10"/></g><g transform="translate(-158,-14) scale(1,1)"><path fill="none" stroke="#000000" d="M 324.00081763111893 397.86588357261144 L 335 398 L 327.31723819473166 390.1275689241817" stroke-miterlimit="10"/></g><g transform="translate(-158,-14) scale(1,1)"><g><path fill="none" stroke="none"/><text fill="#000000" stroke="none" font-family="Arial" font-size="13px" font-style="normal" font-weight="normal" text-decoration="none" x="309.5" y="377.5">pause</text></g></g><g transform="translate(-158,-14) scale(1,1)"><path fill="none" stroke="#000000" d="M 396 424 L 467 454" stroke-miterlimit="10"/></g><g transform="translate(-158,-14) scale(1,1)"><path fill="none" stroke="#000000" d="M 456.00027585111786 453.92209846921037 L 467 454 L 459.2771051638302 446.16693576245785" stroke-miterlimit="10"/></g><g transform="translate(-158,-14) scale(1,1)"><path fill="none" stroke="#000000" d="M 497 447 L 497 376" stroke-miterlimit="10"/></g><g transform="translate(-158,-14) scale(1,1)"><path fill="none" stroke="#000000" d="M 501.209517756016 386.16267485762415 L 497 376 L 492.790482243984 386.16267485762415" stroke-miterlimit="10"/></g><g transform="translate(-158,-14) scale(1,1)"><g><path fill="none" stroke="none"/><text fill="#000000" stroke="none" font-family="Arial" font-size="13px" font-style="normal" font-weight="normal" text-decoration="none" x="507.5" y="421.5">resume</text></g></g><g transform="translate(-158,-14) scale(1,1)"><path fill="none" stroke="#000000" d="M 462 355 L 265 355" stroke-miterlimit="10"/></g><g transform="translate(-158,-14) scale(1,1)"><path fill="none" stroke="#000000" d="M 275.16267485762415 350.790482243984 L 265 355 L 275.16267485762415 359.209517756016" stroke-miterlimit="10"/></g><g transform="translate(-158,-14) scale(1,1)"><path fill="#C0C0C0" stroke="none" d="M 222 551 L 261.552734375 551 Q 271.552734375 551 271.552734375 561 L 271.552734375 580 Q 271.552734375 590 261.552734375 590 L 222 590 Q 212 590 212 580 L 212 561 Q 212 551 222 551 Z" opacity="0.2"/></g><g transform="translate(-158,-14) scale(1,1)"><path fill="#ffffff" stroke="none" d="M 215 544 L 254.552734375 544 Q 264.552734375 544 264.552734375 554 L 264.552734375 573 Q 264.552734375 583 254.552734375 583 L 215 583 Q 205 583 205 573 L 205 554 Q 205 544 215 544 Z"/></g><g transform="translate(-158,-14) scale(1,1)"><path fill="none" stroke="#000000" d="M 215 544 L 254.552734375 544 Q 264.552734375 544 264.552734375 554 L 264.552734375 573 Q 264.552734375 583 254.552734375 583 L 215 583 Q 205 583 205 573 L 205 554 Q 205 544 215 544 Z" stroke-miterlimit="10"/></g><g transform="translate(-158,-14) scale(1,1)"><g><path fill="none" stroke="none"/><text fill="#000000" stroke="none" font-family="Arial" font-size="13px" font-style="normal" font-weight="bold" text-decoration="none" x="211.6455078125" y="563.5">stopped</text></g></g><g transform="translate(-158,-14) scale(1,1)"><path fill="none" stroke="#000000" d="M 234 376 L 234 447" stroke-miterlimit="10"/></g><g transform="translate(-158,-14) scale(1,1)"><path fill="none" stroke="#000000" d="M 229.790482243984 436.83732514237585 L 234 447 L 238.209517756016 436.83732514237585" stroke-miterlimit="10"/></g><g transform="translate(-158,-14) scale(1,1)"><g><path fill="none" stroke="none"/><text fill="#000000" stroke="none" font-family="Arial" font-size="13px" font-style="normal" font-weight="normal" text-decoration="none" x="235.714111328125" y="416.5">stop</text></g></g><g transform="translate(-158,-14) scale(1,1)"><path fill="none" stroke="#000000" d="M 234 488 L 234 543" stroke-miterlimit="10"/></g><g transform="translate(-158,-14) scale(1,1)"><path fill="none" stroke="#000000" d="M 229.790482243984 532.8373251423759 L 234 543 L 238.209517756016 532.8373251423759" stroke-miterlimit="10"/></g><g transform="translate(-158,-14) scale(1,1)"><path fill="none" stroke="#000000" d="M 468 464 L 266 464" stroke-miterlimit="10"/></g><g transform="translate(-158,-14) scale(1,1)"><path fill="none" stroke="#000000" d="M 276.16267485762415 459.790482243984 L 266 464 L 276.16267485762415 468.209517756016" stroke-miterlimit="10"/></g><g transform="translate(-158,-14) scale(1,1)"><g><path fill="none" stroke="none"/><text fill="#000000" stroke="none" font-family="Arial" font-size="13px" font-style="normal" font-weight="normal" text-decoration="none" x="359.714111328125" y="483.5">stop</text></g></g><g transform="translate(-158,-14) scale(1,1)"><path fill="#C0C0C0" stroke="none" d="M 705 451.5 C 705 444.59644 710.59644 439 717.5 439 C 724.40356 439 730 444.59644 730 451.5 C 730 458.40356 724.40356 464 717.5 464 C 710.59644 464 705 458.40356 705 451.5 Z" opacity="0.2"/></g><g transform="translate(-158,-14) scale(1,1)"><path fill="none" stroke="#000000" d="M 698 444.5 C 698 437.59644 703.59644 432 710.5 432 C 717.40356 432 723 437.59644 723 444.5 C 723 451.40356 717.40356 457 710.5 457 C 703.59644 457 698 451.40356 698 444.5 Z" stroke-miterlimit="10"/></g><g transform="translate(-158,-14) scale(1,1)"><path fill="#000000" stroke="none" d="M 703 444.5 C 703 440.357864 706.357864 437 710.5 437 C 714.642136 437 718 440.357864 718 444.5 C 718 448.642136 714.642136 452 710.5 452 C 706.357864 452 703 448.642136 703 444.5 Z"/></g><g transform="translate(-158,-14) scale(1,1)"><path fill="#C0C0C0" stroke="none" d="M 375 40.5 C 375 35.2532944 379.2532944 31 384.5 31 C 389.7467056 31 394 35.2532944 394 40.5 C 394 45.7467056 389.7467056 50 384.5 50 C 379.2532944 50 375 45.7467056 375 40.5 Z" opacity="0.2"/></g><g transform="translate(-158,-14) scale(1,1)"><path fill="#000000" stroke="none" d="M 368 33.5 C 368 28.2532944 372.2532944 24 377.5 24 C 382.7467056 24 387 28.2532944 387 33.5 C 387 38.7467056 382.7467056 43 377.5 43 C 372.2532944 43 368 38.7467056 368 33.5 Z"/></g><g transform="translate(-158,-14) scale(1,1)"><path fill="#C0C0C0" stroke="none" d="M 234 142 C 234 138.1340064 237.1340064 135 241 135 C 244.8659936 135 248 138.1340064 248 142 C 248 145.8659936 244.8659936 149 241 149 C 237.1340064 149 234 145.8659936 234 142 Z" opacity="0.2"/></g><g transform="translate(-158,-14) scale(1,1)"><path fill="#ffffff" stroke="none" d="M 227 135 C 227 131.1340064 230.1340064 128 234 128 C 237.8659936 128 241 131.1340064 241 135 C 241 138.8659936 237.8659936 142 234 142 C 230.1340064 142 227 138.8659936 227 135 Z"/></g><g transform="translate(-158,-14) scale(1,1)"><path fill="none" stroke="#000000" d="M 227 135 C 227 131.1340064 230.1340064 128 234 128 C 237.8659936 128 241 131.1340064 241 135 C 241 138.8659936 237.8659936 142 234 142 C 230.1340064 142 227 138.8659936 227 135 Z" stroke-miterlimit="10"/></g><g transform="translate(-158,-14) scale(1,1)"><path fill="none" stroke="#000000" d="M 234 143 L 234 183" stroke-miterlimit="10"/></g><g transform="translate(-158,-14) scale(1,1)"><path fill="none" stroke="#000000" d="M 229.790482243984 172.83732514237585 L 234 183 L 238.209517756016 172.83732514237585" stroke-miterlimit="10"/></g><g transform="translate(-158,-14) scale(1,1)"><path fill="none" stroke="#000000" d="M 377 43 L 377 88" stroke-miterlimit="10"/></g><g transform="translate(-158,-14) scale(1,1)"><path fill="none" stroke="#000000" d="M 372.790482243984 77.83732514237585 L 377 88 L 381.209517756016 77.83732514237585" stroke-miterlimit="10"/></g><g transform="translate(-158,-14) scale(1,1)"><path fill="none" stroke="#000000" d="M 234 224 L 234 255" stroke-miterlimit="10"/></g><g transform="translate(-158,-14) scale(1,1)"><path fill="none" stroke="#000000" d="M 229.790482243984 244.83732514237585 L 234 255 L 238.209517756016 244.83732514237585" stroke-miterlimit="10"/></g><g transform="translate(-158,-14) scale(1,1)"><g><path fill="none" stroke="none"/><text fill="#000000" stroke="none" font-family="Arial" font-size="13px" font-style="normal" font-weight="normal" text-decoration="none" x="239.5" y="244.5">start</text></g></g><g transform="translate(-158,-14) scale(1,1)"><path fill="#C0C0C0" stroke="none" d="M 222 263 L 261 263 Q 271 263 271 273 L 271 292 Q 271 302 261 302 L 222 302 Q 212 302 212 292 L 212 273 Q 212 263 222 263 Z" opacity="0.2"/></g><g transform="translate(-158,-14) scale(1,1)"><path fill="#ffffff" stroke="none" d="M 215 256 L 254 256 Q 264 256 264 266 L 264 285 Q 264 295 254 295 L 215 295 Q 205 295 205 285 L 205 266 Q 205 256 215 256 Z"/></g><g transform="translate(-158,-14) scale(1,1)"><path fill="none" stroke="#000000" d="M 215 256 L 254 256 Q 264 256 264 266 L 264 285 Q 264 295 254 295 L 215 295 Q 205 295 205 285 L 205 266 Q 205 256 215 256 Z" stroke-miterlimit="10"/></g><g transform="translate(-158,-14) scale(1,1)"><g><path fill="none" stroke="none"/><text fill="#000000" stroke="none" font-family="Arial" font-size="13px" font-style="normal" font-weight="bold" text-decoration="none" x="213.1845703125" y="275.5">starting</text></g></g><g transform="translate(-158,-14) scale(1,1)"><path fill="#C0C0C0" stroke="none" d="M 480 343 L 528 343 Q 538 343 538 353 L 538 372 Q 538 382 528 382 L 480 382 Q 470 382 470 372 L 470 353 Q 470 343 480 343 Z" opacity="0.2"/></g><g transform="translate(-158,-14) scale(1,1)"><path fill="#ffffff" stroke="none" d="M 473 336 L 521 336 Q 531 336 531 346 L 531 365 Q 531 375 521 375 L 473 375 Q 463 375 463 365 L 463 346 Q 463 336 473 336 Z"/></g><g transform="translate(-158,-14) scale(1,1)"><path fill="none" stroke="#000000" d="M 473 336 L 521 336 Q 531 336 531 346 L 531 365 Q 531 375 521 375 L 473 375 Q 463 375 463 365 L 463 346 Q 463 336 473 336 Z" stroke-miterlimit="10"/></g><g transform="translate(-158,-14) scale(1,1)"><g><path fill="none" stroke="none"/><text fill="#000000" stroke="none" font-family="Arial" font-size="13px" font-style="normal" font-weight="bold" text-decoration="none" x="470.266845703125" y="355.5">resuming</text></g></g><g transform="translate(-158,-14) scale(1,1)"><path fill="#C0C0C0" stroke="none" d="M 219 455 L 263 455 Q 273 455 273 465 L 273 484 Q 273 494 263 494 L 219 494 Q 209 494 209 484 L 209 465 Q 209 455 219 455 Z" opacity="0.2"/></g><g transform="translate(-158,-14) scale(1,1)"><path fill="#ffffff" stroke="none" d="M 212 448 L 256 448 Q 266 448 266 458 L 266 477 Q 266 487 256 487 L 212 487 Q 202 487 202 477 L 202 458 Q 202 448 212 448 Z"/></g><g transform="translate(-158,-14) scale(1,1)"><path fill="none" stroke="#000000" d="M 212 448 L 256 448 Q 266 448 266 458 L 266 477 Q 266 487 256 487 L 212 487 Q 202 487 202 477 L 202 458 Q 202 448 212 448 Z" stroke-miterlimit="10"/></g><g transform="translate(-158,-14) scale(1,1)"><g><path fill="none" stroke="none"/><text fill="#000000" stroke="none" font-family="Arial" font-size="13px" font-style="normal" font-weight="bold" text-decoration="none" x="209.425048828125" y="467.5">stopping</text></g></g><g transform="translate(-158,-14) scale(1,1)"><path fill="#C0C0C0" stroke="none" d="M 353 399 L 392 399 Q 402 399 402 409 L 402 428 Q 402 438 392 438 L 353 438 Q 343 438 343 428 L 343 409 Q 343 399 353 399 Z" opacity="0.2"/></g><g transform="translate(-158,-14) scale(1,1)"><path fill="#ffffff" stroke="none" d="M 346 392 L 385 392 Q 395 392 395 402 L 395 421 Q 395 431 385 431 L 346 431 Q 336 431 336 421 L 336 402 Q 336 392 346 392 Z"/></g><g transform="translate(-158,-14) scale(1,1)"><path fill="none" stroke="#000000" d="M 346 392 L 385 392 Q 395 392 395 402 L 395 421 Q 395 431 385 431 L 346 431 Q 336 431 336 421 L 336 402 Q 336 392 346 392 Z" stroke-miterlimit="10"/></g><g transform="translate(-158,-14) scale(1,1)"><g><path fill="none" stroke="none"/><text fill="#000000" stroke="none" font-family="Arial" font-size="13px" font-style="normal" font-weight="bold" text-decoration="none" x="342.73095703125" y="411.5">pausing</text></g></g><g transform="translate(-158,-14) scale(1,1)"><path fill="#C0C0C0" stroke="none" d="M 696 279 L 739.90087890625 279 Q 749.90087890625 279 749.90087890625 289 L 749.90087890625 308 Q 749.90087890625 318 739.90087890625 318 L 696 318 Q 686 318 686 308 L 686 289 Q 686 279 696 279 Z" opacity="0.2"/></g><g transform="translate(-158,-14) scale(1,1)"><path fill="#ffffff" stroke="none" d="M 689 272 L 732.90087890625 272 Q 742.90087890625 272 742.90087890625 282 L 742.90087890625 301 Q 742.90087890625 311 732.90087890625 311 L 689 311 Q 679 311 679 301 L 679 282 Q 679 272 689 272 Z"/></g><g transform="translate(-158,-14) scale(1,1)"><path fill="none" stroke="#000000" d="M 689 272 L 732.90087890625 272 Q 742.90087890625 272 742.90087890625 282 L 742.90087890625 301 Q 742.90087890625 311 732.90087890625 311 L 689 311 Q 679 311 679 301 L 679 282 Q 679 272 689 272 Z" stroke-miterlimit="10"/></g><g transform="translate(-158,-14) scale(1,1)"><g><path fill="none" stroke="none"/><text fill="#000000" stroke="none" font-family="Arial" font-size="13px" font-style="normal" font-weight="bold" text-decoration="none" x="686.02001953125" y="291.5">resetting</text></g></g><g transform="translate(-158,-14) scale(1,1)"><path fill="#C0C0C0" stroke="none" d="M 680 367 L 754.1982421875 367 Q 764.1982421875 367 764.1982421875 377 L 764.1982421875 396 Q 764.1982421875 406 754.1982421875 406 L 680 406 Q 670 406 670 396 L 670 377 Q 670 367 680 367 Z" opacity="0.2"/></g><g transform="translate(-158,-14) scale(1,1)"><path fill="#ffffff" stroke="none" d="M 673 360 L 747.1982421875 360 Q 757.1982421875 360 757.1982421875 370 L 757.1982421875 389 Q 757.1982421875 399 747.1982421875 399 L 673 399 Q 663 399 663 389 L 663 370 Q 663 360 673 360 Z"/></g><g transform="translate(-158,-14) scale(1,1)"><path fill="none" stroke="#000000" d="M 673 360 L 747.1982421875 360 Q 757.1982421875 360 757.1982421875 370 L 757.1982421875 389 Q 757.1982421875 399 747.1982421875 399 L 673 399 Q 663 399 663 389 L 663 370 Q 663 360 673 360 Z" stroke-miterlimit="10"/></g><g transform="translate(-158,-14) scale(1,1)"><g><path fill="none" stroke="none"/><text fill="#000000" stroke="none" font-family="Arial" font-size="13px" font-style="normal" font-weight="bold" text-decoration="none" x="671.794189453125" y="379.5">shuttingdown</text></g></g><g transform="translate(-158,-14) scale(1,1)"><path fill="none" stroke="#000000" d="M 592 375 L 663 375" stroke-miterlimit="10"/></g><g transform="translate(-158,-14) scale(1,1)"><path fill="none" stroke="#000000" d="M 652.8373251423759 379.209517756016 L 663 375 L 652.8373251423758 370.790482243984" stroke-miterlimit="10"/></g><g transform="translate(-158,-14) scale(1,1)"><g><path fill="none" stroke="none"/><text fill="#000000" stroke="none" font-family="Arial" font-size="13px" font-style="normal" font-weight="normal" text-decoration="none" x="599.5" y="395.5">shutdown</text></g></g><g transform="translate(-158,-14) scale(1,1)"><path fill="none" stroke="#000000" d="M 710 400 L 710 431" stroke-miterlimit="10"/></g><g transform="translate(-158,-14) scale(1,1)"><path fill="none" stroke="#000000" d="M 705.790482243984 420.83732514237585 L 710 431 L 714.209517756016 420.83732514237585" stroke-miterlimit="10"/></g><g transform="translate(-158,-14) scale(1,1)"><path fill="none" stroke="#000000" d="M 592 288 L 679 288" stroke-miterlimit="10"/></g><g transform="translate(-158,-14) scale(1,1)"><path fill="none" stroke="#000000" d="M 668.8373251423759 292.209517756016 L 679 288 L 668.8373251423758 283.790482243984" stroke-miterlimit="10"/></g><g transform="translate(-158,-14) scale(1,1)"><g><path fill="none" stroke="none"/><text fill="#000000" stroke="none" font-family="Arial" font-size="13px" font-style="normal" font-weight="normal" text-decoration="none" x="612.5" y="308.5">reset</text></g></g><g transform="translate(-158,-14) scale(1,1)"><path fill="none" stroke="#000000" d="M 704 272 L 704 32 L 387 32" stroke-miterlimit="10"/></g><g transform="translate(-158,-14) scale(1,1)"><path fill="none" stroke="#000000" d="M 397.16267485762415 27.790482243984012 L 387 32 L 397.16267485762415 36.209517756015984" stroke-miterlimit="10"/></g><g transform="translate(-158,-14) scale(1,1)"><path fill="#C0C0C0" stroke="none" d="M 698 511 L 737 511 Q 747 511 747 521 L 747 540 Q 747 550 737 550 L 698 550 Q 688 550 688 540 L 688 521 Q 688 511 698 511 Z" opacity="0.2"/></g><g transform="translate(-158,-14) scale(1,1)"><path fill="#ffffff" stroke="none" d="M 691 504 L 730 504 Q 740 504 740 514 L 740 533 Q 740 543 730 543 L 691 543 Q 681 543 681 533 L 681 514 Q 681 504 691 504 Z"/></g><g transform="translate(-158,-14) scale(1,1)"><path fill="none" stroke="#000000" d="M 691 504 L 730 504 Q 740 504 740 514 L 740 533 Q 740 543 730 543 L 691 543 Q 681 543 681 533 L 681 514 Q 681 504 691 504 Z" stroke-miterlimit="10"/></g><g transform="translate(-158,-14) scale(1,1)"><g><path fill="none" stroke="none"/><text fill="#000000" stroke="none" font-family="Arial" font-size="13px" font-style="normal" font-weight="bold" text-decoration="none" x="696.7763671875" y="523.5">error</text></g></g><g transform="translate(-158,-14) scale(1,1)"><path fill="none" stroke="#000000" d="M 592 520 L 681 520" stroke-miterlimit="10"/></g><g transform="translate(-158,-14) scale(1,1)"><path fill="none" stroke="#000000" d="M 670.8373251423759 524.209517756016 L 681 520 L 670.8373251423758 515.790482243984" stroke-miterlimit="10"/></g><g transform="translate(-158,-14) scale(1,1)"><g><path fill="none" stroke="none"/><text fill="#000000" stroke="none" font-family="Arial" font-size="13px" font-style="normal" font-weight="normal" text-decoration="none" x="607.34814453125" y="540.5">exception</text></g></g><g transform="translate(-158,-14) scale(1,1)"><path fill="none" stroke="#000000" d="M 740 520 L 792 520 L 792 288 L 743 288" stroke-miterlimit="10"/></g><g transform="translate(-158,-14) scale(1,1)"><path fill="none" stroke="#000000" d="M 753.1626748576241 283.790482243984 L 743 288 L 753.1626748576241 292.209517756016" stroke-miterlimit="10"/></g><g transform="translate(-158,-14) scale(1,1)"><g><path fill="none" stroke="none"/><text fill="#000000" stroke="none" font-family="Arial" font-size="13px" font-style="normal" font-weight="normal" text-decoration="none" x="749.5" y="540.5">reset</text></g></g></g></svg>